<svg xmlns="http://www.w3.org/2000/svg" viewBox="0 0 28.21 62.02"><defs><style>.cls-1{fill:#f5db51;}.cls-2{fill:#c8a34a;}.cls-3{fill:#ffee86;}.cls-4{fill:#f1c025;}.cls-5{fill:#eccf35;}</style></defs><title>Asset 8</title><g id="Layer_2" data-name="Layer 2"><g id="Layer_9" data-name="Layer 9"><path class="cls-1" d="M20.19,0S15.89,3.13,17,5.51A6.14,6.14,0,0,1,12.4,9C9,9.56-3.36,15.56.87,36s20.4,27.55,26.36,24.48c0,0-1.29-3.57,0-4.82,0,0-13.09-16.25-13.65-24.13-.59-8.19-.46-7.17,4.24-21.93l2.45-2.19S19.18,2.94,20.19,0Z"/><path class="cls-2" d="M20.19,0s-1.71,1.39-1.3,2.81a35.59,35.59,0,0,1,.62,5.26l.76-.68S19.48,1.53,20.19,0"/><path class="cls-3" d="M24.53,53.51c.07.83-9.44-4.27-13.95-15.11S8.53,19.22,13,15.26c1.39.45-4.69,13.13-.6,22S24.39,51.92,24.53,53.51Z"/><path class="cls-4" d="M13.61,8.67S-4,10.89.87,36s24.2,26.38,26.36,24.48h0s-20-2.33-24.34-26,13.46-25,13.46-25l-2.74-.78"/><path class="cls-2" d="M27.23,55.64s-1.66,1.3,0,4.82h0s.76.43,1-2.15-1-2.67-1-2.67"/><path class="cls-5" d="M17,5.51l1.11,1.13s-2,1.33-1.71,2.42l-2.24-.61A7.5,7.5,0,0,0,17,5.51"/></g></g></svg>