<svg xmlns="http://www.w3.org/2000/svg" viewBox="0 0 26.39 33.7"><defs><style>.cls-1{fill:#f5db51;}.cls-2{fill:#c8a34a;}.cls-3{fill:#ffee86;}.cls-4{fill:#f1c025;}.cls-5{fill:#ebcb3a;}.cls-6{fill:#eccf35;}</style></defs><title>bananas</title><g id="Layer_2" data-name="Layer 2"><g id="bananas"><g id="bananas-2" data-name="bananas"><path class="cls-1" d="M25.91,29.33l0-2.27a24.47,24.47,0,0,0-4.64-3.6c-2.13-1.12-6.2-4.49-5.94-10s-.61-5.86-.61-5.86L15.83,6s1.93-.17,2-1.16c0,0-2.55-4.31-4.36-4.82-.33-.09-2.43,2.43-1.75,3.05A5.49,5.49,0,0,1,9.1,4.85,4.56,4.56,0,0,0,7,5.76S4.42,5.68,2.21,8.85-1,17,1.39,23.36s5.93,9.33,10.35,9.39l.49-1s2.49,1.13,4.1.78c0,0,4.52,2.21,6.91.53l.2-2.77S25.3,30.25,25.91,29.33Z"/><path class="cls-2" d="M17.68,5.12S18.8,4.62,16,2,13.51.08,13.51.08s-.21.74,0,1S17.68,5.12,17.68,5.12Z"/><path class="cls-3" d="M24,26.61c.21-.5-7-4.35-8.41-7.59S14.39,10.07,14,9.85s-2.28,5.39.21,9.46S23.57,27.6,24,26.61Z"/><path class="cls-3" d="M21.08,30c.6,0-7.39-6.46-8.84-10.29s0-9.77-.42-10S8.52,15,10.63,19.59,18.49,30.13,21.08,30Z"/><path class="cls-3" d="M14.72,29.09c0,.45-5-2.28-7.46-8.08S6.17,10.75,8.57,8.63c.74.24-2.51,7-.32,11.75S14.65,28.25,14.72,29.09Z"/><path class="cls-4" d="M17.11,32.42S8.34,30.48,5.63,21.81,4.85,9,9.44,5.66l-.22-.53s-5.65.39-6.48,9.34,6.82,16.33,10,17.65S17.11,32.42,17.11,32.42Z"/><path class="cls-5" d="M11.75,32.57S4.34,29.9,2.55,22.4s-.67-10.74.84-12.12c0,0,1.86-3.4,3.59-4.52,0,0-7.82.11-6.84,12.77C1,29.7,9.87,33.61,11.75,32.57Z"/><path class="cls-6" d="M12.66,3.6,11.94,3a4.45,4.45,0,0,1-2.7,1.89l.33.81Z"/><path class="cls-2" d="M25.91,29.33a5.52,5.52,0,0,1,0-2.27s.53,0,.5,1.23S25.91,29.33,25.91,29.33Z"/><path class="cls-2" d="M17.31,32.33a5.66,5.66,0,0,1,0-2.26s.53,0,.51,1.23S17.31,32.33,17.31,32.33Z"/><path class="cls-2" d="M23.25,33.09a6.21,6.21,0,0,1,.08-2.74s.69,0,.6,1.46S23.25,33.09,23.25,33.09Z"/><path class="cls-2" d="M11.74,32.75s.61.12.79-.73l-.3-.26Z"/><polygon class="cls-6" points="14.54 5.38 13.41 7.13 13.15 6.98 14.54 5.38"/><polygon class="cls-6" points="13.45 4.71 12.32 6.55 12.11 6.38 13.45 4.71"/></g></g></g></svg>