<svg xmlns="http://www.w3.org/2000/svg" viewBox="0 0 259.33 131.59"><defs><style>.cls-1{fill:#f7e597;}.cls-2{fill:#f9f9f7;}.cls-3{fill:#edaede;}</style></defs><title>begintxt</title><g id="Layer_2" data-name="Layer 2"><g id="Layer_9" data-name="Layer 9"><g id="begintxt"><rect class="cls-1" x="63.87" y="-63.87" width="131.59" height="259.33" rx="26.67" ry="26.67" transform="translate(195.46 -63.87) rotate(90)"/><rect class="cls-2" x="10" y="7.61" width="239.33" height="116.37" rx="16.67" ry="16.67"/><path class="cls-3" d="M30.46,55v3.78a6.65,6.65,0,0,1-2.05.37,6.26,6.26,0,0,1-5.09-2.36,9.36,9.36,0,0,1-2-6.2,8.83,8.83,0,0,1,2-5.9,6.29,6.29,0,0,1,5-2.32,7,7,0,0,1,2.15.31v3.8a6.2,6.2,0,0,0-2-.35,2.81,2.81,0,0,0-2.34,1.29,5.49,5.49,0,0,0-.93,3.29,5.53,5.53,0,0,0,.94,3.4,3,3,0,0,0,2.5,1.24A5.46,5.46,0,0,0,30.46,55Z"/><path class="cls-3" d="M32.52,41.91H36V58.74H32.52Z"/><path class="cls-3" d="M38.73,44.45a1.77,1.77,0,0,1,.54-1.3,1.74,1.74,0,0,1,1.29-.54,1.84,1.84,0,1,1-1.83,1.84Zm.09,3.3H42.3v11H38.82Z"/><path class="cls-3" d="M51,55.38v2.87a4.44,4.44,0,0,1-2.5.83,3.44,3.44,0,0,1-3-1.6,7.47,7.47,0,0,1-1.12-4.32A7.1,7.1,0,0,1,45.56,49a3.49,3.49,0,0,1,3-1.61,4.25,4.25,0,0,1,2.5.89v2.85a2.73,2.73,0,0,0-1.27-.37,1.63,1.63,0,0,0-1.35.67,2.91,2.91,0,0,0-.51,1.8,3.09,3.09,0,0,0,.5,1.86,1.59,1.59,0,0,0,1.36.68A2.8,2.8,0,0,0,51,55.38Z"/><path class="cls-3" d="M53,41.91H56.5v9.76h.06l2.37-3.92h4.15l-3.52,4.92,3.59,6.07h-4l-2.59-5.36H56.5v5.36H53Z"/><path class="cls-3" d="M74.88,47.37A4.33,4.33,0,0,1,78.5,49a7,7,0,0,1,1.24,4.4,6.39,6.39,0,0,1-1.29,4.27,4.43,4.43,0,0,1-3.57,1.51,4.29,4.29,0,0,1-3.47-1.54,6.46,6.46,0,0,1-1.28-4.24A7.08,7.08,0,0,1,71.35,49,4.22,4.22,0,0,1,74.88,47.37Zm0,8.66a1.09,1.09,0,0,0,1-.64,4.86,4.86,0,0,0,.34-2.16,4.63,4.63,0,0,0-.34-2.12,1.06,1.06,0,0,0-1-.61,1.08,1.08,0,0,0-1,.59,4.7,4.7,0,0,0-.35,2.17C73.58,55.1,74,56,74.91,56Z"/><path class="cls-3" d="M85.25,47.75v1.49h.06a3.52,3.52,0,0,1,3-1.85,2.32,2.32,0,0,1,1.83.77,3,3,0,0,1,.67,2.06v8.52H87.3V52a1.48,1.48,0,0,0-.26-.92.8.8,0,0,0-.68-.36c-.74,0-1.11.46-1.11,1.4v6.65H81.79v-11Z"/><path class="cls-3" d="M104.85,58.79V57.22a2.89,2.89,0,0,1-2.41,1.49,3.12,3.12,0,0,1-2.75-1.47,7.52,7.52,0,0,1-1-4.17,7.68,7.68,0,0,1,1-4.15,2.93,2.93,0,0,1,5.11,0h0V47.75h3.47V57.93a7.17,7.17,0,0,1-.49,2.65,3.93,3.93,0,0,1-1.75,2,5.46,5.46,0,0,1-2.75.72,5.35,5.35,0,0,1-2.81-.8,4,4,0,0,1-1.71-2.68h3.11a1.56,1.56,0,0,0,1.34.84,1.45,1.45,0,0,0,1.14-.54A1.91,1.91,0,0,0,104.85,58.79Zm0-5.77c0-1.78-.45-2.67-1.34-2.67a1.17,1.17,0,0,0-1,.65,3.58,3.58,0,0,0-.38,1.79c0,2,.47,3,1.4,3S104.85,54.87,104.85,53Z"/><path class="cls-3" d="M111,44.45a1.86,1.86,0,1,1,.55,1.3A1.74,1.74,0,0,1,111,44.45Zm.1,3.3h3.48v11h-3.48Z"/><path class="cls-3" d="M122.73,58.74V57.29h0a5.94,5.94,0,0,1-1.22,1.38,2.3,2.3,0,0,1-1.39.44,2.8,2.8,0,0,1-2.5-1.6,8.67,8.67,0,0,1-.93-4.35,8.07,8.07,0,0,1,.94-4.2,2.82,2.82,0,0,1,2.49-1.57,2.33,2.33,0,0,1,1.39.41,5.27,5.27,0,0,1,1.2,1.32h0V47.75h3.47v11Zm0-5.56c0-1.82-.45-2.73-1.34-2.73s-1.35.91-1.35,2.73.47,2.85,1.4,2.85S122.73,55.08,122.73,53.18Z"/><path class="cls-3" d="M132.3,47.75v1.49h.06a3.52,3.52,0,0,1,3-1.85,2.3,2.3,0,0,1,1.82.77,3,3,0,0,1,.68,2.06v8.52h-3.48V52a1.54,1.54,0,0,0-.26-.92.81.81,0,0,0-.68-.36c-.74,0-1.11.46-1.11,1.4v6.65h-3.47v-11Z"/><path class="cls-3" d="M140.81,44.82h3.48v2.93h1.35v2.89h-1.37v8.1h-3.46V50.62H139.5V47.75h1.31Z"/><path class="cls-3" d="M153.4,44.45a1.86,1.86,0,1,1,.55,1.3A1.74,1.74,0,0,1,153.4,44.45Zm.1,3.3H157v11H153.5Z"/><path class="cls-3" d="M165.67,55.38v2.87a4.42,4.42,0,0,1-2.5.83,3.46,3.46,0,0,1-3-1.6,7.47,7.47,0,0,1-1.11-4.32A7.1,7.1,0,0,1,160.23,49a3.52,3.52,0,0,1,3-1.61,4.24,4.24,0,0,1,2.49.89v2.85a2.73,2.73,0,0,0-1.26-.37,1.61,1.61,0,0,0-1.35.67,2.85,2.85,0,0,0-.52,1.8,3.09,3.09,0,0,0,.5,1.86,1.6,1.6,0,0,0,1.37.68A2.76,2.76,0,0,0,165.67,55.38Z"/><path class="cls-3" d="M172.87,55.38h2.93q-.84,3.7-4.18,3.7a3.93,3.93,0,0,1-3.31-1.58,7.07,7.07,0,0,1-1.22-4.39,6.65,6.65,0,0,1,1.22-4.17,3.88,3.88,0,0,1,3.23-1.57,4.1,4.1,0,0,1,2.35.76,4.35,4.35,0,0,1,1.63,2,11.66,11.66,0,0,1,.57,4H170.3c0,1.63.5,2.45,1.36,2.45a1.14,1.14,0,0,0,.79-.32A1.41,1.41,0,0,0,172.87,55.38Zm-2.52-3.17h2.52a4.15,4.15,0,0,0-.32-1.72,1,1,0,0,0-.91-.55,1.05,1.05,0,0,0-1,.53A3.77,3.77,0,0,0,170.35,52.21Z"/><path class="cls-3" d="M190.08,55.38v2.87a4.42,4.42,0,0,1-2.5.83,3.43,3.43,0,0,1-3-1.6,7.4,7.4,0,0,1-1.12-4.32A7,7,0,0,1,184.65,49a3.49,3.49,0,0,1,3-1.61,4.27,4.27,0,0,1,2.5.89v2.85a2.77,2.77,0,0,0-1.27-.37,1.61,1.61,0,0,0-1.35.67,2.91,2.91,0,0,0-.51,1.8,3,3,0,0,0,.5,1.86,1.58,1.58,0,0,0,1.36.68A2.76,2.76,0,0,0,190.08,55.38Z"/><path class="cls-3" d="M195.45,47.75v1.84h0c.83-1.43,1.7-2.15,2.62-2.15a2.89,2.89,0,0,1,.56.07v3.41a6.22,6.22,0,0,0-1.17-.11c-1.27,0-1.91.82-1.91,2.47v5.46h-3.46v-11Z"/><path class="cls-3" d="M205.7,55.38h2.93q-.84,3.7-4.18,3.7a3.94,3.94,0,0,1-3.31-1.58,7.07,7.07,0,0,1-1.22-4.39,6.65,6.65,0,0,1,1.22-4.17,3.88,3.88,0,0,1,3.24-1.57,4.1,4.1,0,0,1,2.34.76,4.37,4.37,0,0,1,1.64,2,11.92,11.92,0,0,1,.57,4h-5.79c0,1.63.5,2.45,1.36,2.45a1.16,1.16,0,0,0,.79-.32A1.35,1.35,0,0,0,205.7,55.38Zm-2.52-3.17h2.52a4.15,4.15,0,0,0-.32-1.72,1,1,0,0,0-.91-.55,1.05,1.05,0,0,0-1,.53A3.77,3.77,0,0,0,203.18,52.21Z"/><path class="cls-3" d="M216.43,58.74V57.29h-.05a5.94,5.94,0,0,1-1.22,1.38,2.3,2.3,0,0,1-1.39.44,2.8,2.8,0,0,1-2.5-1.6,8.67,8.67,0,0,1-.93-4.35,8.07,8.07,0,0,1,.94-4.2,2.82,2.82,0,0,1,2.49-1.57,2.33,2.33,0,0,1,1.39.41,5.47,5.47,0,0,1,1.2,1.32h0V47.75h3.47v11Zm0-5.56c0-1.82-.45-2.73-1.34-2.73s-1.35.91-1.35,2.73.47,2.85,1.4,2.85S216.43,55.08,216.43,53.18Z"/><path class="cls-3" d="M226,47.75V49.1a4.09,4.09,0,0,1,3-1.73,2.29,2.29,0,0,1,2.37,1.9,7.18,7.18,0,0,1,1.56-1.45,3.14,3.14,0,0,1,1.69-.45q2.43,0,2.43,3.39v8h-3.48V52.25c0-1.06-.34-1.59-1-1.59s-1.05.53-1.05,1.57v6.51H228V52.06a1.74,1.74,0,0,0-.28-1,.87.87,0,0,0-.73-.4.86.86,0,0,0-.74.39,1.69,1.69,0,0,0-.28,1v6.65h-3.47v-11Z"/><path class="cls-3" d="M74.55,74.18H78V77.1h1.35V80H78v8.1H74.55V80H73.24V77.1h1.31Z"/><path class="cls-3" d="M85.28,76.72A4.33,4.33,0,0,1,88.9,78.3a7,7,0,0,1,1.24,4.41A6.41,6.41,0,0,1,88.85,87a4.47,4.47,0,0,1-3.57,1.51A4.3,4.3,0,0,1,81.81,87a6.46,6.46,0,0,1-1.28-4.24,7,7,0,0,1,1.22-4.41A4.21,4.21,0,0,1,85.28,76.72Zm0,8.66a1.11,1.11,0,0,0,1-.63,5,5,0,0,0,.34-2.16,4.82,4.82,0,0,0-.34-2.13,1.07,1.07,0,0,0-1-.61,1.1,1.1,0,0,0-1,.59A4.6,4.6,0,0,0,84,82.61C84,84.46,84.42,85.38,85.3,85.38Z"/><path class="cls-3" d="M95.65,77.1v1.4h.06a3.22,3.22,0,0,1,2.61-1.71,2.85,2.85,0,0,1,2.52,1.6,8.37,8.37,0,0,1,1,4.29,8,8,0,0,1-1,4.21,2.87,2.87,0,0,1-2.49,1.6,3,3,0,0,1-2.61-1.84h-.06v6H92.18V77.1Zm2.67,5.46c0-1.81-.45-2.71-1.37-2.71s-1.3.91-1.3,2.74.43,2.82,1.3,2.82S98.32,84.46,98.32,82.56Z"/><path class="cls-3" d="M110.25,74.18h3.48V77.1h1.35V80h-1.37v8.1h-3.46V80h-1.31V77.1h1.31Z"/><path class="cls-3" d="M121,76.72a4.33,4.33,0,0,1,3.62,1.58,7,7,0,0,1,1.24,4.41A6.41,6.41,0,0,1,124.55,87,4.47,4.47,0,0,1,121,88.49,4.3,4.3,0,0,1,117.51,87a6.46,6.46,0,0,1-1.28-4.24,7,7,0,0,1,1.22-4.41A4.21,4.21,0,0,1,121,76.72Zm0,8.66a1.11,1.11,0,0,0,1-.63,5,5,0,0,0,.34-2.16,4.82,4.82,0,0,0-.34-2.13,1.07,1.07,0,0,0-1-.61,1.1,1.1,0,0,0-1,.59,4.6,4.6,0,0,0-.35,2.17C119.68,84.46,120.12,85.38,121,85.38Z"/><path class="cls-3" d="M133.88,71.26h3.46v7.17h.06a6,6,0,0,1,1.19-1.28,2.37,2.37,0,0,1,1.43-.4,2.86,2.86,0,0,1,2.44,1.52,8.09,8.09,0,0,1,1,4.36,8.36,8.36,0,0,1-.94,4.23,2.78,2.78,0,0,1-2.43,1.6,3.15,3.15,0,0,1-2.67-1.79h-.06v1.42h-3.46ZM140,82.54c0-1.83-.47-2.74-1.4-2.74s-1.26.88-1.26,2.64a5.55,5.55,0,0,0,.33,2.22,1.11,1.11,0,0,0,1.05.7C139.57,85.36,140,84.42,140,82.54Z"/><path class="cls-3" d="M150.64,84.74h2.92c-.55,2.46-1.95,3.7-4.18,3.7a4,4,0,0,1-3.31-1.59,7.06,7.06,0,0,1-1.21-4.38,6.65,6.65,0,0,1,1.21-4.18,3.91,3.91,0,0,1,3.24-1.57,4.1,4.1,0,0,1,2.34.76,4.41,4.41,0,0,1,1.64,2,12,12,0,0,1,.57,4h-5.79c.05,1.63.5,2.44,1.36,2.44a1.11,1.11,0,0,0,.79-.32A1.36,1.36,0,0,0,150.64,84.74Zm-2.52-3.18h2.52a4.2,4.2,0,0,0-.33-1.72.94.94,0,0,0-.9-.55,1,1,0,0,0-1,.54A3.72,3.72,0,0,0,148.12,81.56Z"/><path class="cls-3" d="M161.85,88.14V86.57a2.89,2.89,0,0,1-2.41,1.5,3.12,3.12,0,0,1-2.75-1.48,7.52,7.52,0,0,1-1-4.17,7.7,7.7,0,0,1,1-4.15,2.93,2.93,0,0,1,5.11,0h.05V77.1h3.47V87.28a7.13,7.13,0,0,1-.49,2.65,3.85,3.85,0,0,1-1.75,2,5.43,5.43,0,0,1-2.75.72,5.37,5.37,0,0,1-2.81-.8,3.9,3.9,0,0,1-1.7-2.68h3.1a1.58,1.58,0,0,0,1.34.84,1.49,1.49,0,0,0,1.15-.53A1.92,1.92,0,0,0,161.85,88.14Zm0-5.77c0-1.77-.44-2.66-1.34-2.66a1.15,1.15,0,0,0-1,.64,3.47,3.47,0,0,0-.39,1.79c0,2,.47,3,1.4,3S161.85,84.23,161.85,82.37Z"/><path class="cls-3" d="M168,73.81a1.74,1.74,0,0,1,.53-1.3,1.83,1.83,0,1,1,2.59,2.59,1.79,1.79,0,0,1-2.58,0A1.76,1.76,0,0,1,168,73.81Zm.09,3.29h3.48v11h-3.48Z"/><path class="cls-3" d="M177.73,77.1v1.5h.06a3.5,3.5,0,0,1,3-1.85,2.31,2.31,0,0,1,1.82.76,3,3,0,0,1,.68,2.07v8.51h-3.48V81.32a1.56,1.56,0,0,0-.26-.92.81.81,0,0,0-.68-.36c-.74,0-1.11.47-1.11,1.4v6.65h-3.47v-11Z"/><path class="cls-3" d="M186.19,86.53a1.88,1.88,0,0,1,.59-1.39,1.94,1.94,0,0,1,1.4-.57,1.89,1.89,0,0,1,1.39.58,1.86,1.86,0,0,1,.59,1.38,2,2,0,0,1-3.39,1.4A1.93,1.93,0,0,1,186.19,86.53Zm.23-14.38h3.48V83.59h-3.48Z"/></g></g></g></svg>