<svg xmlns="http://www.w3.org/2000/svg" viewBox="0 0 793.39 612"><defs><style>.cls-1{fill:#edaede;}.cls-2{fill:#d895cb;}.cls-3{fill:#f9f9f7;}.cls-4{fill:#aeedf4;}.cls-5,.cls-9{fill:#f7e597;}.cls-6,.cls-8{fill:#fff;}.cls-6{opacity:0.33;}.cls-7{fill:#e2cba3;}.cls-9{stroke:#a9ebed;stroke-miterlimit:10;stroke-width:3px;}.cls-10{fill:#848484;}.cls-11{fill:#c9c9c9;}.cls-12{fill:#efedef;}.cls-13{fill:#af9472;}</style></defs><title>bg2</title><g id="Layer_2" data-name="Layer 2"><g id="bg2"><g id="bg2-2" data-name="bg2"><g id="icstand"><rect class="cls-1" y="79.88" width="792.3" height="532.12"/><rect class="cls-2" x="17.18" y="110.24" width="760.99" height="327.01"/><rect class="cls-1" width="792.3" height="96.39"/><path class="cls-3" d="M51.87,96.39v88.4h0c.73,11.66,16,21,34.66,21s33.93-9.31,34.66-21h0V96.39Z"/><path class="cls-4" d="M121.25,96.39v88.4h0c.72,11.66,16,21,34.65,21s33.93-9.31,34.66-21h0V96.39Z"/><path class="cls-5" d="M190,96.39v88.4h0c.73,11.66,17.95,21,36.64,21s33.93-9.31,34.66-21h0V96.39Z"/><path class="cls-3" d="M261.39,96.39v88.4h0c.72,11.66,16,21,34.65,21s33.93-9.31,34.66-21h0V96.39Z"/><path class="cls-4" d="M330.28,96.94v88.4h0c.72,11.66,16,21,34.65,21s33.93-9.31,34.66-21h0V96.94Z"/><path class="cls-5" d="M399.66,96.12v88.39h0c.72,11.66,16,21,34.65,21s33.93-9.31,34.66-21h0V96.12Z"/><path class="cls-3" d="M469,96.12v88.39h0c.73,11.66,16,21,34.66,21s33.93-9.31,34.65-21h0V96.12Z"/><path class="cls-4" d="M538.43,96.12v88.39h0c.73,11.66,16,21,34.66,21s33.93-9.31,34.65-21h0V96.12Z"/><path class="cls-5" d="M607.2,96.12v88.39h0c.72,11.66,17.94,21,36.64,21s33.93-9.31,34.65-21h0V96.12Z"/><path class="cls-3" d="M678.57,96.12v88.39h0c.73,11.66,16,21,34.66,21s33.93-9.31,34.66-21h0V96.12Z"/><rect class="cls-6" y="94.12" width="792.3" height="47.22"/><polygon class="cls-7" points="3.45 0 190.5 0 189.33 93.72 47.91 94.12 3.45 0"/><polygon class="cls-8" points="17.18 437.25 0 451.66 793.39 451.66 778.17 437.25 17.18 437.25"/><rect class="cls-4" x="17.18" y="483.21" width="760.99" height="128.79"/><polygon class="cls-3" points="121.59 612 70.08 612 68.68 483.21 120.19 483.21 121.59 612"/><rect class="cls-5" x="173.98" y="483.21" width="51.51" height="128.79"/><rect class="cls-3" x="225.48" y="483.21" width="51.51" height="128.79"/><rect class="cls-5" x="327.23" y="483.21" width="51.51" height="128.79"/><rect class="cls-3" x="378.74" y="483.21" width="51.51" height="128.79"/><rect class="cls-5" x="478.73" y="483.21" width="51.51" height="128.79"/><rect class="cls-3" x="530.24" y="483.21" width="51.51" height="128.79"/><rect class="cls-5" x="631.38" y="483.21" width="51.51" height="128.79"/><rect class="cls-3" x="682.88" y="483.21" width="51.51" height="128.79"/><path class="cls-8" d="M223.36,60.9a4.54,4.54,0,0,1-.82-3.16,31.21,31.21,0,0,1,.33-4q.33-2.46,1.1-6.76,1.32-7.93,2.08-13.75a51.42,51.42,0,0,0,.46-6.07q0-2.28-1.68-2.28a5.84,5.84,0,0,0-3.18,1.34,21.26,21.26,0,0,0-4.09,4.28,2,2,0,0,1-1.57,1,1.56,1.56,0,0,1-1.25-.69,2.44,2.44,0,0,1-.53-1.54,4.4,4.4,0,0,1,.33-1.64,9,9,0,0,1,1.09-1.9,19.15,19.15,0,0,1,5.44-5.23,11.38,11.38,0,0,1,6-1.85,5.31,5.31,0,0,1,4.29,1.77,7.79,7.79,0,0,1,1.5,5.16,24,24,0,0,1-.26,3.21c-.17,1.23-.32,2.24-.45,3s-.24,1.32-.31,1.62q2.9-8.25,6.51-11.51a11.57,11.57,0,0,1,7.92-3.26,6.38,6.38,0,0,1,5.21,2.33,10.11,10.11,0,0,1,1.91,6.57,24,24,0,0,1-.46,4.15q2.53-7,5.94-10a11.4,11.4,0,0,1,7.83-3,6.71,6.71,0,0,1,5.46,2.28,9.63,9.63,0,0,1,1.91,6.37,27.38,27.38,0,0,1-.66,5.41l-3.1,14.47a22.4,22.4,0,0,0-.51,4.35,4.52,4.52,0,0,0,1,3.18,3.59,3.59,0,0,0,2.77,1.06,5.7,5.7,0,0,0,3.28-1.11,21.71,21.71,0,0,0,3.78-3.69A1.79,1.79,0,0,1,282,50.2a1.16,1.16,0,0,1,1,.61,3.06,3.06,0,0,1,.39,1.67,4.76,4.76,0,0,1-1,3.13,19.67,19.67,0,0,1-5.23,4.66,11,11,0,0,1-5.44,1.46A8.92,8.92,0,0,1,265,59.18a9.53,9.53,0,0,1-2.44-6.85,44.88,44.88,0,0,1,1.22-8.65l2-9.26q.1-.45.36-1.62c.17-.77.31-1.51.41-2.2a14.24,14.24,0,0,0,.15-2.05,4.26,4.26,0,0,0-.69-2.65,2.32,2.32,0,0,0-1.95-.89q-2.39,0-5,3.06t-5,10.14a101.4,101.4,0,0,0-3.83,18.41A8.17,8.17,0,0,1,249,60.7a3.59,3.59,0,0,1-2.87,1,3.36,3.36,0,0,1-2.51-.81,4.36,4.36,0,0,1-.79-3,33.92,33.92,0,0,1,.56-5.44q.56-3.36,1.42-7.91,2.34-12.24,2.34-15.78a4.51,4.51,0,0,0-.74-2.84,2.7,2.7,0,0,0-2.21-.91q-2.49,0-5.13,2.81t-5.16,10a102.76,102.76,0,0,0-4.19,19.35,9.19,9.19,0,0,1-1,3.59,3,3,0,0,1-2.67,1A3.67,3.67,0,0,1,223.36,60.9Z"/><path class="cls-8" d="M280.52,59.46a9.1,9.1,0,0,1-1.88-6,16.4,16.4,0,0,1,1.88-7.66,16,16,0,0,1,5-5.82,11.34,11.34,0,0,1,6.64-2.2,2,2,0,0,1,1.49.43,3.57,3.57,0,0,1,.64,1.54,12.36,12.36,0,0,1,2.24-.2c1.65,0,2.48.59,2.48,1.77a37.19,37.19,0,0,1-.76,5.06,48.8,48.8,0,0,0-1.17,8.09,1.78,1.78,0,0,0,.39,1.21,1.2,1.2,0,0,0,1,.46,3.83,3.83,0,0,0,2.33-1.24,43.9,43.9,0,0,0,3.71-4,1.81,1.81,0,0,1,1.37-.71,1.19,1.19,0,0,1,1.05.61,3.15,3.15,0,0,1,.38,1.67,4.63,4.63,0,0,1-1,3.13A25.5,25.5,0,0,1,301.91,60a7.57,7.57,0,0,1-4.52,1.77,4.82,4.82,0,0,1-3.08-1.13,6.91,6.91,0,0,1-2.1-3.12c-1.77,2.84-4,4.25-6.66,4.25A6.2,6.2,0,0,1,280.52,59.46Zm9-4.15A8.56,8.56,0,0,0,291,51.82l1.88-9.31a6.19,6.19,0,0,0-3.94,1.6,10.72,10.72,0,0,0-2.87,4.07A13.68,13.68,0,0,0,285,53.54a3.54,3.54,0,0,0,.64,2.33,2.16,2.16,0,0,0,1.75.75A2.78,2.78,0,0,0,289.51,55.31Z"/><path class="cls-8" d="M333.59,50.81a3.15,3.15,0,0,1,.38,1.67,4.63,4.63,0,0,1-1,3.13,24.5,24.5,0,0,1-4.63,4.45,9.23,9.23,0,0,1-5.54,1.67,8.89,8.89,0,0,1-6.3-2.22,7.72,7.72,0,0,1-2.38-5.92,2.91,2.91,0,0,1,2-2.83,9.1,9.1,0,0,0,3.2-2,3.88,3.88,0,0,0,1-2.66,2,2,0,0,0-.38-1.36,1.15,1.15,0,0,0-.94-.46c-.91,0-1.92.66-3,2a21.93,21.93,0,0,0-3.07,5.08,35.73,35.73,0,0,0-2.24,6.4,7.88,7.88,0,0,1-1.3,3.21,3,3,0,0,1-2.31.83,2.56,2.56,0,0,1-2.31-1.13,8.34,8.34,0,0,1-1-3.52c-.17-1.59-.25-3.91-.25-7a87.1,87.1,0,0,1,1.6-16.24,48.52,48.52,0,0,1,4.72-14.18q3.12-5.75,7.5-5.74a4.45,4.45,0,0,1,3.78,2,8.58,8.58,0,0,1,1.45,5.18,22.08,22.08,0,0,1-3,10.6,69.07,69.07,0,0,1-9.75,12.82c-.11,1.75-.16,3.55-.16,5.41q2.44-6.33,5.59-9.18t5.9-2.86a5.24,5.24,0,0,1,4.09,1.72,6.13,6.13,0,0,1,1.55,4.25A9.69,9.69,0,0,1,325.39,49a12.16,12.16,0,0,1-4.88,4.14,3.3,3.3,0,0,0,1.24,2.2,3.89,3.89,0,0,0,2.52.84A4.76,4.76,0,0,0,327.32,55a34.35,34.35,0,0,0,3.86-4.05,1.78,1.78,0,0,1,1.37-.71A1.16,1.16,0,0,1,333.59,50.81ZM314.26,21.55a43.17,43.17,0,0,0-2.16,7,91.86,91.86,0,0,0-1.71,9.63,35.72,35.72,0,0,0,5.21-8,18.6,18.6,0,0,0,2.06-7.89,7,7,0,0,0-.35-2.48c-.24-.57-.58-.86-1-.86C315.68,18.94,315,19.81,314.26,21.55Z"/><path class="cls-8" d="M349.09,52.33a3.14,3.14,0,0,1,.38,1.66,5.64,5.64,0,0,1-.86,3.14,9.92,9.92,0,0,1-3.74,3.39,11.7,11.7,0,0,1-5.51,1.21,9.83,9.83,0,0,1-7.57-2.9,11.13,11.13,0,0,1-2.7-7.87,14.49,14.49,0,0,1,1.48-6.5,12,12,0,0,1,4.09-4.78,10.29,10.29,0,0,1,5.92-1.77,6.42,6.42,0,0,1,4.72,1.75,6.29,6.29,0,0,1,1.78,4.72,8.19,8.19,0,0,1-2.51,6q-2.52,2.5-8.57,4a4.28,4.28,0,0,0,4.12,2.32,5.7,5.7,0,0,0,3.43-1,16.44,16.44,0,0,0,3.12-3.23,1.76,1.76,0,0,1,1.38-.76A1.17,1.17,0,0,1,349.09,52.33ZM336.54,45a10.06,10.06,0,0,0-1.3,5.26v.1A11.6,11.6,0,0,0,340,48.28,4.17,4.17,0,0,0,341.7,45a2.18,2.18,0,0,0-.54-1.54,1.85,1.85,0,0,0-1.45-.58A3.71,3.71,0,0,0,336.54,45Z"/><path class="cls-8" d="M408.82,50.05c1.15,0,1.72.74,1.72,2.22a3.68,3.68,0,0,1-.53,2,2.32,2.32,0,0,1-1.65,1c-3.08.57-6.12,1.21-9.1,1.92l-.15,1.22q-1.42,10-5.66,14.74A13.61,13.61,0,0,1,382.85,78a9.5,9.5,0,0,1-6.53-2A6.69,6.69,0,0,1,374,70.74q0-5.33,4.78-9.46t14.48-7.34l1-7.13c.13-.81.3-1.89.5-3.23q-2.39,6.27-6.09,9.35A12.65,12.65,0,0,1,380.41,56a8.29,8.29,0,0,1-6.65-2.66,10.09,10.09,0,0,1-2.29-6.85,23.41,23.41,0,0,1,.41-4.12q.4-2.25,1.27-6.1c.51-2.32.89-4.18,1.14-5.56a20.08,20.08,0,0,0,.38-3.69c0-1.62-.63-2.43-1.88-2.43a6.33,6.33,0,0,0-3.48,1.44,20.65,20.65,0,0,0-4.24,4.43,2,2,0,0,1-1.58,1,1.54,1.54,0,0,1-1.24-.69,2.38,2.38,0,0,1-.53-1.54,6.3,6.3,0,0,1,1.42-3.54q5.17-7.08,12.14-7.08a6.29,6.29,0,0,1,4.85,1.87A7.8,7.8,0,0,1,381.89,26a30.41,30.41,0,0,1-.49,5.38c-.32,1.84-.8,4.17-1.44,7-.41,1.68-.72,3-.92,4.07a13.89,13.89,0,0,0-.3,2.55,5.84,5.84,0,0,0,.91,3.69,3.93,3.93,0,0,0,3.2,1.12c1.83,0,3.7-1,5.62-3a27.24,27.24,0,0,0,5.18-9.13,63.35,63.35,0,0,0,3.33-15,5.32,5.32,0,0,1,1.17-3.16,3.5,3.5,0,0,1,2.64-.94q3.56,0,3.56,3.54a7.69,7.69,0,0,1-.05,1q-1.08,7.55-2,13.61-.51,3.64-1.09,7.48c-.39,2.57-.77,5.16-1.14,7.79q3.71-1,7.82-1.82A3.07,3.07,0,0,1,408.82,50.05Zm-16.31,9.2q-12.3,4.26-12.3,10.32a3.15,3.15,0,0,0,3.4,3.29q7.06,0,8.85-13.25Z"/><path class="cls-8" d="M434.37,46.61a3.47,3.47,0,0,1,.36,1.67q0,2.43-1.47,2.88a23.53,23.53,0,0,1-6.71,1.22,12.56,12.56,0,0,1-3.81,6.8,9.41,9.41,0,0,1-6.45,2.55,9.09,9.09,0,0,1-5.21-1.46,9.31,9.31,0,0,1-3.28-3.9,12.5,12.5,0,0,1-1.12-5.26,15.26,15.26,0,0,1,1.48-6.85,11.55,11.55,0,0,1,4.06-4.71A10.34,10.34,0,0,1,418,37.86a8,8,0,0,1,6.23,2.66A11.35,11.35,0,0,1,427,47.07a31.29,31.29,0,0,0,5.7-1,3.44,3.44,0,0,1,.71-.1A1.09,1.09,0,0,1,434.37,46.61Zm-14.86,8.45a7.25,7.25,0,0,0,1.6-3.8,6.91,6.91,0,0,1-2.41-2.78,8.3,8.3,0,0,1-.68-5.26h-.26a4,4,0,0,0-3.38,2A9.56,9.56,0,0,0,413,50.66a7,7,0,0,0,1.1,4.24,3.15,3.15,0,0,0,2.56,1.47A3.71,3.71,0,0,0,419.51,55.06Z"/><path class="cls-8" d="M431.81,59.63a9,9,0,0,1-1.45-5.23,43.89,43.89,0,0,1,.51-7,44.85,44.85,0,0,1,1.67-6.7A4.24,4.24,0,0,1,434,38.57a5,5,0,0,1,2.9-.66,2.45,2.45,0,0,1,1.54.36,1.28,1.28,0,0,1,.44,1.06,21.48,21.48,0,0,1-.56,2.73c-.34,1.25-.61,2.38-.82,3.39a48.38,48.38,0,0,0-1,7.08,3.14,3.14,0,0,0,.25,1.49.87.87,0,0,0,.81.43c.51,0,1.15-.51,1.91-1.52a22,22,0,0,0,2.44-4.6,61.25,61.25,0,0,0,2.51-7.59,3.31,3.31,0,0,1,3.76-2.83,3.31,3.31,0,0,1,1.63.28,1.1,1.1,0,0,1,.46,1A49.76,49.76,0,0,1,449,46.15a55.34,55.34,0,0,0-1.42,8,2.42,2.42,0,0,0,.4,1.49,1.29,1.29,0,0,0,1.07.53,3.94,3.94,0,0,0,2.41-1.24,42,42,0,0,0,3.74-4,1.78,1.78,0,0,1,1.37-.71,1.16,1.16,0,0,1,1,.61,3.15,3.15,0,0,1,.38,1.67,4.63,4.63,0,0,1-1,3.13,22.45,22.45,0,0,1-4.7,4.4,9.89,9.89,0,0,1-5.72,1.72A3.88,3.88,0,0,1,443,59.86a10,10,0,0,1-1.15-5.26,11.81,11.81,0,0,1-2.59,5.29,5,5,0,0,1-3.71,1.84A4.36,4.36,0,0,1,431.81,59.63Z"/><path class="cls-8" d="M476.27,45.62a2.68,2.68,0,0,1,.78,2,3.9,3.9,0,0,1-.3,1.42,8.4,8.4,0,0,1-2.29,3.13,4.84,4.84,0,0,1-3.25,1.27,3.25,3.25,0,0,1-2.41-1,3.75,3.75,0,0,1-1-2.73c0-.65,0-1.34.1-2.08a10,10,0,0,0,.1-1.11.91.91,0,0,0-.18-.61.57.57,0,0,0-.43-.2c-.47,0-1.12.56-1.93,1.69A25,25,0,0,0,463,51.82a36.47,36.47,0,0,0-2,5.87,8,8,0,0,1-1.27,3.23,3,3,0,0,1-2.34.81,2.77,2.77,0,0,1-2.72-2,19.49,19.49,0,0,1-.78-6.47,40.85,40.85,0,0,1,1.88-12.5,3.84,3.84,0,0,1,1.49-2.15,5.38,5.38,0,0,1,2.93-.68,3,3,0,0,1,1.42.25,1.06,1.06,0,0,1,.41,1,19.49,19.49,0,0,1-.77,3.64q-.51,2-.81,3.54c-.2,1-.37,2.26-.51,3.74A28.72,28.72,0,0,1,463.74,43a15.05,15.05,0,0,1,4.07-3.9,7.3,7.3,0,0,1,3.6-1.16,3,3,0,0,1,2.27.84,3.45,3.45,0,0,1,.78,2.45,22,22,0,0,1-.55,3.64h.45A2.62,2.62,0,0,1,476.27,45.62Z"/><path class="cls-8" d="M501.17,59.71a14.56,14.56,0,0,1-5.77-5.94,19.41,19.41,0,0,1-2.13-9.39,30.93,30.93,0,0,1,2.82-13.55,21.69,21.69,0,0,1,7.67-9,19.09,19.09,0,0,1,10.74-3.19,16.56,16.56,0,0,1,8.16,2,14.65,14.65,0,0,1,5.77,5.95,19.37,19.37,0,0,1,2.13,9.38,30.93,30.93,0,0,1-2.82,13.55,21.87,21.87,0,0,1-7.67,9.06,19.21,19.21,0,0,1-10.75,3.18A16.45,16.45,0,0,1,501.17,59.71Zm15.65-6.37a15.35,15.35,0,0,0,4.64-6.75,27.57,27.57,0,0,0,1.63-9.79c0-4-.85-7.06-2.54-9.13A8.08,8.08,0,0,0,514,24.56a10.72,10.72,0,0,0-6.91,2.4,15.59,15.59,0,0,0-4.68,6.73,27,27,0,0,0-1.68,9.84q0,6,2.54,9.12a8.08,8.08,0,0,0,6.56,3.12A10.85,10.85,0,0,0,516.82,53.34Z"/><path class="cls-8" d="M572.33,46.05a1.4,1.4,0,0,1,1.16.51,2.07,2.07,0,0,1,.41,1.37,4.25,4.25,0,0,1-.61,2.45,3.44,3.44,0,0,1-1.83,1.29,16.22,16.22,0,0,1-5,.76,14.43,14.43,0,0,1-4.21-.61c-1,1.59-2.07,3.22-3.26,4.91a17.46,17.46,0,0,1-3.48,3.94,5.35,5.35,0,0,1-3.27,1.06,3.47,3.47,0,0,1-3.08-1.56A11.1,11.1,0,0,1,547.89,55l-.26-3.7a48.49,48.49,0,0,1-2.82,6.48,9.09,9.09,0,0,1-2.49,3.08,5,5,0,0,1-2.92.86,3.86,3.86,0,0,1-3.28-1.62,10.32,10.32,0,0,1-1.5-5.1q-.6-7.08-.61-12.4V40.84a2.87,2.87,0,0,1,.92-2.32,4.24,4.24,0,0,1,2.59-.66,2.89,2.89,0,0,1,2,.58,2.57,2.57,0,0,1,.63,2q0,5.82.71,15.12,3.46-7.23,6.35-15.07a4.24,4.24,0,0,1,1.35-2,3.37,3.37,0,0,1,1.91-.53,2.58,2.58,0,0,1,1.9.56,2.81,2.81,0,0,1,.54,2q0,5.82.71,15.12,3-4.5,4.57-7.18a7.46,7.46,0,0,1-.76-3.49,7.72,7.72,0,0,1,.76-3.34,7.06,7.06,0,0,1,2.08-2.63,4.83,4.83,0,0,1,3-1,3,3,0,0,1,2.39,1,4.4,4.4,0,0,1,.91,3,13.74,13.74,0,0,1-1.22,5.21,36.66,36.66,0,0,0,5.14-.76l1.37-.26A1.94,1.94,0,0,1,572.33,46.05Z"/><path class="cls-8" d="M570.37,59.71a19.17,19.17,0,0,1-.79-6.47,41.16,41.16,0,0,1,1.88-12.5,3.9,3.9,0,0,1,1.5-2.15,5.37,5.37,0,0,1,2.92-.68,3,3,0,0,1,1.43.25,1.05,1.05,0,0,1,.4,1,19.13,19.13,0,0,1-.76,3.64q-.51,2-.81,3.54a33,33,0,0,0-.51,3.74A28.72,28.72,0,0,1,579.39,43a14.81,14.81,0,0,1,4.09-3.9,7.53,7.53,0,0,1,3.68-1.16,3.34,3.34,0,0,1,2.47.84,3.29,3.29,0,0,1,.84,2.45,40.18,40.18,0,0,1-.56,4.95q-.51,3.09-.82,5.85a57,57,0,0,0-.3,6.14A3.94,3.94,0,0,1,588,60.9a3.42,3.42,0,0,1-2.57.83,3.06,3.06,0,0,1-2.43-.86,3.77,3.77,0,0,1-.77-2.58,50,50,0,0,1,.72-6.67,49.42,49.42,0,0,0,.61-5.16c0-.54-.19-.81-.56-.81s-1.06.56-1.86,1.69a27.85,27.85,0,0,0-2.44,4.48,33.79,33.79,0,0,0-2,5.87,8,8,0,0,1-1.3,3.21,3,3,0,0,1-2.31.83A2.77,2.77,0,0,1,570.37,59.71Z"/><path class="cls-8" d="M610.89,59.33a8.58,8.58,0,0,1-4.06-7.81,7.77,7.77,0,0,1,1-4.25,3.19,3.19,0,0,1,2.85-1.47,3.41,3.41,0,0,1,2.23.71,2.24,2.24,0,0,1,.87,1.82,9.28,9.28,0,0,1-.15,1.77,6,6,0,0,1-.08.71,7.23,7.23,0,0,0-.08,1.06,3.59,3.59,0,0,0,2.31,3.39,15.32,15.32,0,0,0,6.48,1.11A12.58,12.58,0,0,0,629,54.83a4.85,4.85,0,0,0,2.44-4.33,4.23,4.23,0,0,0-1.12-3,9.3,9.3,0,0,0-2.79-2.08c-1.12-.55-2.7-1.24-4.73-2a52.35,52.35,0,0,1-6.37-2.88,13.13,13.13,0,0,1-4.22-3.72A9.47,9.47,0,0,1,610.43,31a11.14,11.14,0,0,1,2-6.47,12.57,12.57,0,0,1,5.64-4.4,21.92,21.92,0,0,1,8.66-1.57,20.27,20.27,0,0,1,6.81,1.09,11,11,0,0,1,5,3.31,8.28,8.28,0,0,1,1.85,5.46,9.6,9.6,0,0,1-1,4.81,3.36,3.36,0,0,1-5.06.81,2.53,2.53,0,0,1-.89-1.93,9.74,9.74,0,0,1,.15-1.77c.1-1,.16-1.65.16-1.92a3.51,3.51,0,0,0-2.09-3.23,10.79,10.79,0,0,0-5.18-1.12q-4.37,0-6.68,1.6a5.12,5.12,0,0,0-2.31,4.47,4.81,4.81,0,0,0,1.19,3.29,10,10,0,0,0,3,2.28c1.19.6,2.85,1.33,5,2.17a65.81,65.81,0,0,1,6.2,2.83,12.4,12.4,0,0,1,4,3.44,8.62,8.62,0,0,1,1.65,5.36,10.54,10.54,0,0,1-4.55,9.18q-4.54,3.21-12.17,3.21Q615,61.88,610.89,59.33Z"/><path class="cls-8" d="M643.94,59.63a9,9,0,0,1-1.44-5.23,45.17,45.17,0,0,1,.5-7,43.75,43.75,0,0,1,1.68-6.7,4.23,4.23,0,0,1,1.42-2.17,5,5,0,0,1,2.9-.66,2.5,2.5,0,0,1,1.55.36,1.28,1.28,0,0,1,.43,1.06,19.65,19.65,0,0,1-.56,2.73q-.51,1.88-.81,3.39a47.46,47.46,0,0,0-1,7.08,3.11,3.11,0,0,0,.26,1.49.87.87,0,0,0,.81.43c.51,0,1.14-.51,1.91-1.52a22.51,22.51,0,0,0,2.44-4.6,61.25,61.25,0,0,0,2.51-7.59,3.31,3.31,0,0,1,3.76-2.83,3.34,3.34,0,0,1,1.63.28,1.12,1.12,0,0,1,.45,1,48.17,48.17,0,0,1-1.27,6.92,55.34,55.34,0,0,0-1.42,8,2.36,2.36,0,0,0,.41,1.49,1.28,1.28,0,0,0,1.06.53,4,4,0,0,0,2.42-1.24,42.15,42.15,0,0,0,3.73-4,1.81,1.81,0,0,1,1.37-.71,1.19,1.19,0,0,1,1.05.61,3.15,3.15,0,0,1,.38,1.67,4.63,4.63,0,0,1-1,3.13,22.2,22.2,0,0,1-4.7,4.4,9.84,9.84,0,0,1-5.71,1.72,3.91,3.91,0,0,1-3.59-1.87A10.14,10.14,0,0,1,654,54.6a11.92,11.92,0,0,1-2.59,5.29,5.05,5.05,0,0,1-3.71,1.84A4.39,4.39,0,0,1,643.94,59.63Z"/><path class="cls-8" d="M666.86,59.71a19.43,19.43,0,0,1-.79-6.47A41.16,41.16,0,0,1,668,40.74a3.9,3.9,0,0,1,1.5-2.15,5.37,5.37,0,0,1,2.92-.68,3,3,0,0,1,1.43.25,1.05,1.05,0,0,1,.4,1,19.13,19.13,0,0,1-.76,3.64q-.51,2-.81,3.54a33,33,0,0,0-.51,3.74A28.72,28.72,0,0,1,675.88,43a14.81,14.81,0,0,1,4.09-3.9,7.53,7.53,0,0,1,3.68-1.16q3.32,0,3.31,3.29a41.13,41.13,0,0,1-1.12,7.13,35.42,35.42,0,0,0-1,5.82c0,1.34.49,2,1.48,2a4,4,0,0,0,2.41-1.24,40.87,40.87,0,0,0,3.73-4,1.81,1.81,0,0,1,1.38-.71,1.17,1.17,0,0,1,1,.61,3.15,3.15,0,0,1,.38,1.67,4.58,4.58,0,0,1-1,3.13,22,22,0,0,1-4.7,4.4,9.84,9.84,0,0,1-5.71,1.72A5,5,0,0,1,680,60.24a6.31,6.31,0,0,1-1.32-4.32,31,31,0,0,1,.72-5.06,26.15,26.15,0,0,0,.66-4.4c0-.54-.19-.81-.56-.81s-1.06.56-1.86,1.69a27.85,27.85,0,0,0-2.44,4.48,33.79,33.79,0,0,0-2,5.87,8,8,0,0,1-1.3,3.21,3,3,0,0,1-2.31.83A2.77,2.77,0,0,1,666.86,59.71Z"/><path class="cls-8" d="M721.08,50.81a3.15,3.15,0,0,1,.38,1.67,4.58,4.58,0,0,1-1,3.13,24.5,24.5,0,0,1-4.57,4.33A8.45,8.45,0,0,1,711,61.73q-3.87,0-5.89-4.5a14.46,14.46,0,0,1-3.74,3.59,7.39,7.39,0,0,1-3.73.91,6.46,6.46,0,0,1-5.11-2.3,8.77,8.77,0,0,1-2-6,16.61,16.61,0,0,1,1.73-7.51A15.44,15.44,0,0,1,697,40.26a13.94,13.94,0,0,1,6.78-2.6,63.75,63.75,0,0,1,3.69-16.77q2.71-6.94,7.14-7a4.37,4.37,0,0,1,3.63,2c1,1.32,1.45,3.3,1.45,6a39,39,0,0,1-2.8,13.25,97.69,97.69,0,0,1-7.47,15.58,11.2,11.2,0,0,0,.89,4.19,2,2,0,0,0,1.76,1.27A4.34,4.34,0,0,0,714.85,55a36.66,36.66,0,0,0,3.81-4.05A1.81,1.81,0,0,1,720,50.2,1.19,1.19,0,0,1,721.08,50.81Zm-19.74,5a14.74,14.74,0,0,0,2.43-2.91,33.53,33.53,0,0,1-.5-6.12c0-.81,0-2.12.1-3.94a8.46,8.46,0,0,0-4.65,3.72,11.37,11.37,0,0,0-1.86,6.34q0,3.69,2.55,3.69A3.09,3.09,0,0,0,701.34,55.84Zm10.77-33.53a60.12,60.12,0,0,0-1.65,8.92q-.69,5.52-1,11.54,5.7-12.35,5.7-19.83a10.46,10.46,0,0,0-.33-3c-.22-.71-.49-1.07-.79-1.07C713.39,18.89,712.75,20,712.11,22.31Z"/><path class="cls-8" d="M718.05,59.46a9.1,9.1,0,0,1-1.88-6,16.4,16.4,0,0,1,1.88-7.66,16.05,16.05,0,0,1,5-5.82,11.28,11.28,0,0,1,6.63-2.2,2,2,0,0,1,1.5.43,3.71,3.71,0,0,1,.63,1.54,12.44,12.44,0,0,1,2.24-.2q2.49,0,2.49,1.77a39,39,0,0,1-.76,5.06,48.8,48.8,0,0,0-1.17,8.09,1.77,1.77,0,0,0,.38,1.21,1.2,1.2,0,0,0,1,.46,3.88,3.88,0,0,0,2.34-1.24,44.11,44.11,0,0,0,3.7-4,1.81,1.81,0,0,1,1.38-.71,1.16,1.16,0,0,1,1,.61,3.15,3.15,0,0,1,.38,1.67,4.58,4.58,0,0,1-1,3.13A25.81,25.81,0,0,1,739.45,60a7.6,7.6,0,0,1-4.53,1.77,4.78,4.78,0,0,1-3.07-1.13,6.93,6.93,0,0,1-2.11-3.12c-1.76,2.84-4,4.25-6.66,4.25A6.22,6.22,0,0,1,718.05,59.46Zm9-4.15a8.7,8.7,0,0,0,1.47-3.49l1.88-9.31a6.21,6.21,0,0,0-3.94,1.6,10.72,10.72,0,0,0-2.87,4.07,13.68,13.68,0,0,0-1.07,5.36,3.54,3.54,0,0,0,.64,2.33,2.17,2.17,0,0,0,1.75.75A2.78,2.78,0,0,0,727.05,55.31Z"/><path class="cls-8" d="M760,52.33a3.14,3.14,0,0,1,.38,1.66,5.56,5.56,0,0,1-.87,3.14,9.89,9.89,0,0,1-3.73,3.39,11.71,11.71,0,0,1-5.52,1.21,9.84,9.84,0,0,1-7.57-2.9A11.17,11.17,0,0,1,740,51a14.61,14.61,0,0,1,1.47-6.5,12.16,12.16,0,0,1,4.09-4.78,10.34,10.34,0,0,1,5.92-1.77,6.44,6.44,0,0,1,4.73,1.75,6.29,6.29,0,0,1,1.78,4.72,8.16,8.16,0,0,1-2.52,6q-2.5,2.5-8.56,4A4.28,4.28,0,0,0,751,56.67a5.7,5.7,0,0,0,3.43-1,16.74,16.74,0,0,0,3.12-3.23,1.75,1.75,0,0,1,1.37-.76A1.19,1.19,0,0,1,760,52.33ZM747.39,45a10.15,10.15,0,0,0-1.29,5.26v.1a11.66,11.66,0,0,0,4.73-2.12A4.16,4.16,0,0,0,752.55,45a2.22,2.22,0,0,0-.53-1.54,1.87,1.87,0,0,0-1.45-.58A3.73,3.73,0,0,0,747.39,45Z"/><path class="cls-8" d="M764.27,60.52a4.43,4.43,0,0,1-1.15-3.19,5.06,5.06,0,0,1,1.3-3.64,5.66,5.66,0,0,1,7-.28,4.25,4.25,0,0,1,1.14,3.21,5.17,5.17,0,0,1-1.32,3.72,4.72,4.72,0,0,1-3.61,1.39A4.4,4.4,0,0,1,764.27,60.52Zm3.63-11.33a1.6,1.6,0,0,1-.66-1.42l0-.4c.58-3.78,1.35-8.08,2.34-12.9s1.89-9,2.74-12.49c.54-2.16,2-3.24,4.42-3.24,2.17,0,3.25.69,3.25,2.08a3.92,3.92,0,0,1-.15,1q-1.32,5.36-3.51,13c-1.45,5.08-2.84,9.48-4.16,13.23a2.48,2.48,0,0,1-2.65,1.62A2.91,2.91,0,0,1,767.9,49.19Z"/><g id="Converyer_belt" data-name="Converyer belt"><rect class="cls-9" x="14.17" y="424.62" width="765.46" height="16.8" rx="4.25" ry="4.25"/><ellipse class="cls-10" cx="24.29" cy="433.02" rx="5.03" ry="5.01"/><ellipse class="cls-10" cx="66.48" cy="433.02" rx="5.03" ry="5.01"/><ellipse class="cls-10" cx="155.91" cy="433.02" rx="5.03" ry="5.01"/><ellipse class="cls-10" cx="110.13" cy="433.02" rx="5.03" ry="5.01"/><ellipse class="cls-10" cx="199.55" cy="433.02" rx="5.03" ry="5.01"/><ellipse class="cls-10" cx="241.73" cy="433.02" rx="5.03" ry="5.01"/><ellipse class="cls-10" cx="331.17" cy="433.02" rx="5.03" ry="5.01"/><ellipse class="cls-10" cx="285.39" cy="433.02" rx="5.03" ry="5.01"/><ellipse class="cls-10" cx="374.79" cy="433.02" rx="5.03" ry="5.01"/><ellipse class="cls-10" cx="418.63" cy="433.02" rx="5.03" ry="5.01"/><ellipse class="cls-10" cx="505.84" cy="433.02" rx="5.03" ry="5.01"/><ellipse class="cls-10" cx="462.29" cy="433.02" rx="5.03" ry="5.01"/><ellipse class="cls-10" cx="547.39" cy="433.02" rx="5.03" ry="5.01"/><ellipse class="cls-10" cx="591.14" cy="433.02" rx="5.03" ry="5.01"/><ellipse class="cls-10" cx="676.91" cy="433.02" rx="5.03" ry="5.01"/><ellipse class="cls-10" cx="633.24" cy="433.02" rx="5.03" ry="5.01"/><ellipse class="cls-10" cx="768.58" cy="433.14" rx="5.03" ry="5.01"/><ellipse class="cls-10" cx="724.79" cy="433.02" rx="5.03" ry="5.01"/><ellipse class="cls-11" cx="24.29" cy="433.02" rx="1.29" ry="1.28"/><ellipse class="cls-11" cx="66.48" cy="433.02" rx="1.29" ry="1.28"/><ellipse class="cls-11" cx="110.13" cy="433.02" rx="1.29" ry="1.28"/><ellipse class="cls-11" cx="155.91" cy="433.02" rx="1.29" ry="1.28"/><ellipse class="cls-11" cx="199.55" cy="433.02" rx="1.29" ry="1.28"/><ellipse class="cls-11" cx="331.16" cy="433.02" rx="1.29" ry="1.28"/><ellipse class="cls-11" cx="374.79" cy="433.02" rx="1.29" ry="1.28"/><ellipse class="cls-11" cx="241.76" cy="433.02" rx="1.29" ry="1.28"/><ellipse class="cls-11" cx="285.39" cy="433.02" rx="1.29" ry="1.28"/><ellipse class="cls-11" cx="418.54" cy="433.02" rx="1.29" ry="1.28"/><ellipse class="cls-11" cx="462.09" cy="433.02" rx="1.29" ry="1.28"/><ellipse class="cls-11" cx="505.84" cy="433.02" rx="1.29" ry="1.28"/><ellipse class="cls-11" cx="547.39" cy="433.02" rx="1.29" ry="1.28"/><ellipse class="cls-11" cx="591.14" cy="433.02" rx="1.29" ry="1.28"/><ellipse class="cls-11" cx="633.16" cy="433.02" rx="1.29" ry="1.28"/><path class="cls-11" d="M676.91,431.74a1.28,1.28,0,1,1,0,2.56,1.28,1.28,0,1,1,0-2.56Z"/><ellipse class="cls-11" cx="724.71" cy="433.02" rx="1.29" ry="1.28"/><path class="cls-11" d="M768.46,431.74a1.28,1.28,0,1,1,0,2.56,1.28,1.28,0,1,1,0-2.56Z"/></g></g><rect class="cls-12" y="451.66" width="793.39" height="14.42"/><rect class="cls-5" x="17.18" y="483.21" width="51.51" height="128.79"/><path class="cls-4" d="M792.3,96.39l-44.84.28v88.39h0c.73,11.66,26.12,20.42,44.81,20.42Z"/><path class="cls-13" d="M189.66,24.4l-5.73,7.76L133.58,2.81,136.18,0h-3.11l-1.51,1.64L128.75,0h-4.52L130,3.35l-32.21,35L44.83,7l6.6-7H48.3L42.82,5.84,32.92,0H28.44L41.22,7.55,19,31.2l1.13,2.13L43.23,8.74,96.19,40,66.1,72.68l-36-18.49-1,2L64.5,74.42,49,91.27l1.69,1.54,16-17.31,36.65,18.8,2.34-1.36L68.21,73.76l30-32.55,55,32.5L138.33,93.86h2.58l14.28-19L187.1,93.73l2.81-1L156.56,73l28-37.88L190,38.34l.22-2.51-4.32-2.52L190.58,27ZM154.58,71.87,99.78,39.5,132,4.53,182.57,34Z"/><path class="cls-5" d="M0,96.39v106.5a51.09,51.09,0,0,0,17.18,2.87c18.69,0,33.93-9.31,34.65-21h0V96.39Z"/></g></g></g></svg>