<svg xmlns="http://www.w3.org/2000/svg" viewBox="0 0 130.52 119.09"><defs><style>.cls-1{fill:#f7e597;}.cls-2{fill:#efda81;}.cls-3{fill:#f4ebc9;}</style></defs><title>bigic</title><g id="Layer_2" data-name="Layer 2"><g id="bigic"><g id="bigic-2" data-name="bigic"><path class="cls-1" d="M44.45,10.08S42,5.13,38.58,5.94s-8.11,13.29,7.77,16.43,21.3-5.58,33.38,5c0,0,5.6,5.19,2.23,8.82,16.14-4.47,28.25,8.2,24.11,15.57,11.46-8.86,21.66,12.69,7.93,18.72,14.82-4.44,22.81,12.61,4.87,22.62s-60,35.74-114.74,22c0,0-11.56-16.28,4-20-9.58-2.09-7-20.17,5.22-22.46C.69,69.48,11.16,51.37,17.72,50.62c0,0,3.54-2.84-4-5.53S12.88-3.66,33.86.23C44.05,2.13,44.45,10.08,44.45,10.08Z"/><path class="cls-2" d="M68.55,20.16s24.31-.54,17.56,14.05c17.46-3.74,27.21,5.71,23.76,14.75,10.2-4.69,20.06,9.47,7.49,19,13.82-6.38,19.86,15.37,2.5,24.59,9-14.73,11.82-26.34-16.71-13.06S46.75,100.58,25.5,98.68c0,0,37.73-.24,88.46-29.18,3.26-6.84,5.36-17.92-8.42-11.72S56.81,77.49,20.74,72.71c0,0,31.1,3.69,83.78-20.44,3-6.36-1.25-17.75-18-13.63s-23.19,6.4-37.7,3.8c0,0,25.4-3.36,28.21-12.06s-13.75-4.82-23.87-6.32c-16-2.36-16.25-6.69-16.25-6.69S56.82,22.77,68.55,20.16Z"/><path class="cls-3" d="M55.8,29c-2-6-24.51,11.13-34,4.2S28.74,6.28,28.74,6.28s-18,2.12-15,33.24C20.67,48.62,58.52,37,55.8,29Z"/><path class="cls-3" d="M87.59,46.38C92,50,44.08,74.55,13.32,63c-7.57-3.35-.18-12.41,6.41-9.59s8.65,4.74,28.73.91S81.09,41.05,87.59,46.38Z"/><path class="cls-3" d="M105.76,66.45c5.12,3.78-61.7,33.39-97.14,20.63-8.74-3.66-.65-12.54,7-9.46s10,5.09,32.75,1.95S98.17,60.85,105.76,66.45Z"/><path class="cls-3" d="M113.28,86.43C116,89.26,55,120.65,18.79,115c-2.94-5,26.4-8.67,45.13-14.82S107.31,80.12,113.28,86.43Z"/></g></g></g></svg>