<svg xmlns="http://www.w3.org/2000/svg" viewBox="0 0 36.99 15.75"><defs><style>.cls-1{fill:#fff;}.cls-2{fill:#e8e8e8;}</style></defs><title>bowl</title><g id="Layer_2" data-name="Layer 2"><g id="Bowl"><g id="bowl-2" data-name="bowl"><path id="Bowl-3" data-name="Bowl" class="cls-1" d="M18.49,2.63C10.94,2.42,0,0,0,0S2.44,7.15,6.39,8.78a54.91,54.91,0,0,0,8.32,2.53l0,1.68a26.74,26.74,0,0,0-5.07,1.77,58.91,58.91,0,0,0,8.72,1h.17c5-.37,8.72-1,8.72-1A26.78,26.78,0,0,0,22.22,13l.05-1.68a54.55,54.55,0,0,0,8.32-2.53C34.55,7.15,37,0,37,0S26.05,2.42,18.49,2.63Z"/><path class="cls-2" d="M0,0S6.2,1.21,7.17,1.36,5.58,5.23,11.83,7.58s4.28,3.15,4.28,3.15l0,2.94L12.31,15.2l-2.62-.44a11.68,11.68,0,0,1,4.42-1.84V11.17S6.89,9.47,5.49,8.3,2.67,6.86,0,0Z"/></g></g></g></svg>