<svg xmlns="http://www.w3.org/2000/svg" viewBox="0 0 791.6 114.19"><defs><style>.cls-1{fill:#8ebf7b;}.cls-2{fill:#78a565;}</style></defs><title>bushes</title><g id="Layer_2" data-name="Layer 2"><g id="Bushes"><g id="bushes-2" data-name="bushes"><path class="cls-1" d="M656.71,62s5.52-12.89-11-12.42c0,0,4.51-9-3-11.41S631.13,41,631.13,41s1.5-13.78-10.54-13.31-9.53,10.46-9.53,10.46-5-6.65-16.06,0-4.51,12.36-4.51,12.36-10.54-6.18-14,1.9,3,11.89,3,11.89-9-5.23-16.05,0,2.51,11.88,2.51,11.88-14.55-8.08-19.07,0,2.51,17.12,2.51,17.12H656.69Z"/><path class="cls-2" d="M637.93,59.43s4.65-2.88,6.2.88a5.09,5.09,0,0,1,.39,2.85,4.73,4.73,0,0,0,.28-4.73c-1.32-3.19-4.72-1.89-6-1.24A2.93,2.93,0,0,1,637.93,59.43Z"/><path class="cls-2" d="M608.69,60.93c.59-1.12,1.95-2,4.87-1.94,0,0-2-4.21,1.33-5.32A4.49,4.49,0,0,1,620,55s-.67-6.42,4.65-6.2c2.45.1,3.53,1.14,4,2.24.14-1.12.22-4.64-4.53-4.84-5.64-.24-4.94,6.58-4.94,6.58a4.76,4.76,0,0,0-5.4-1.41c-3.53,1.18-1.42,5.65-1.42,5.65-3.1-.1-4.55.87-5.17,2.06v5.31Z"/><path class="cls-2" d="M628.85,53.67s2.21-3.1,7.08,0c1.82,1.16,2.56,2.26,2.77,3.18.59-1,1.09-3.13-2.6-5.48-4.49-2.85-6.85-.76-7.4-.15A4.8,4.8,0,0,1,628.85,53.67Z"/><path class="cls-2" d="M596.93,85.14s4.65-2.88,6.2.88a5.09,5.09,0,0,1,.39,2.85,4.73,4.73,0,0,0,.28-4.73c-1.32-3.19-4.72-1.89-6-1.24A2.93,2.93,0,0,1,596.93,85.14Z"/><path class="cls-2" d="M567.69,86.64c.59-1.12,1.95-2,4.87-1.94,0,0-2-4.21,1.33-5.32a4.49,4.49,0,0,1,5.1,1.33s-.67-6.42,4.65-6.2c2.45.1,3.53,1.14,4,2.24.14-1.12.22-4.64-4.53-4.84-5.64-.24-4.94,6.58-4.94,6.58a4.76,4.76,0,0,0-5.4-1.41c-3.53,1.18-1.42,5.65-1.42,5.65-3.1-.1-4.55.87-5.17,2.06V90.1Z"/><path class="cls-2" d="M587.85,79.38s2.21-3.1,7.08,0c1.82,1.16,2.56,2.26,2.77,3.17.59-1,1.09-3.12-2.6-5.47-4.49-2.85-6.85-.76-7.4-.15A4.8,4.8,0,0,1,587.85,79.38Z"/><g id="bush4"><path class="cls-1" d="M791.6,51.28c-1.74-3.74-6.15-6.89-16.26-6.6,0,0,6.54-13.08-4.36-16.52s-16.71,4.13-16.71,4.13S756.45,12.33,739,13s-13.8,15.14-13.8,15.14-7.26-9.64-23.24,0-6.54,17.89-6.54,17.89-15.25-8.94-20.34,2.76S679.46,66,679.46,66s-13.07-7.57-23.24,0,3.63,17.21,3.63,17.21-21.06-11.7-27.6,0S635.88,108,635.88,108h155.4l0-45.34s.11-.28.28-.75Z"/><path class="cls-2" d="M742.26,59.15s6.94-4.3,9.26,1.32a7.67,7.67,0,0,1,.59,4.26c1-1.43,1.77-3.77.41-7.08-2-4.76-7-2.82-9-1.84A4.33,4.33,0,0,1,742.26,59.15Z"/><path class="cls-2" d="M698.6,61.39c.87-1.68,2.9-3,7.27-2.9,0,0-3-6.29,2-7.94a6.71,6.71,0,0,1,7.61,2s-1-9.59,6.94-9.26c3.66.15,5.28,1.71,6,3.34.22-1.66.33-6.92-6.76-7.22-8.43-.35-7.37,9.84-7.37,9.84a7.11,7.11,0,0,0-8.08-2.11c-5.27,1.75-2.11,8.43-2.11,8.43-4.64-.14-6.8,1.3-7.72,3.08v7.93Z"/><path class="cls-2" d="M728.7,50.55s3.31-4.63,10.58,0c2.72,1.73,3.82,3.37,4.14,4.74.88-1.52,1.62-4.67-3.89-8.17-6.7-4.26-10.23-1.14-11-.23A7.24,7.24,0,0,1,728.7,50.55Z"/><path class="cls-2" d="M679.05,95.05s4.65-2.88,6.2.89a5.08,5.08,0,0,1,.39,2.85,4.75,4.75,0,0,0,.28-4.74c-1.31-3.18-4.72-1.89-6-1.23A2.9,2.9,0,0,1,679.05,95.05Z"/><path class="cls-2" d="M649.81,96.55c.59-1.12,2-2,4.88-1.94,0,0-2-4.21,1.32-5.31a4.49,4.49,0,0,1,5.1,1.32s-.67-6.42,4.65-6.2c2.45.11,3.53,1.15,4,2.24.14-1.12.22-4.64-4.53-4.84-5.64-.23-4.93,6.59-4.93,6.59A4.77,4.77,0,0,0,654.88,87c-3.53,1.17-1.41,5.64-1.41,5.64-3.11-.09-4.56.87-5.18,2.07V100Z"/><path class="cls-2" d="M670,89.3s2.21-3.11,7.08,0c1.82,1.15,2.56,2.25,2.77,3.17.59-1,1.09-3.12-2.6-5.47-4.49-2.85-6.85-.76-7.4-.16A4.84,4.84,0,0,1,670,89.3Z"/><path class="cls-2" d="M770.16,95.6s4.65-2.88,6.2.88a5.1,5.1,0,0,1,.4,2.85A4.74,4.74,0,0,0,777,94.6c-1.32-3.19-4.72-1.9-6-1.24A2.89,2.89,0,0,1,770.16,95.6Z"/><path class="cls-2" d="M740.93,97.1c.59-1.13,2-2,4.87-1.95,0,0-2-4.2,1.33-5.31a4.49,4.49,0,0,1,5.1,1.33s-.67-6.43,4.65-6.2c2.44.1,3.53,1.14,4,2.23.14-1.11.22-4.64-4.53-4.83C750.7,82.13,751.4,89,751.4,89A4.76,4.76,0,0,0,746,87.54c-3.52,1.18-1.41,5.64-1.41,5.64-3.1-.09-4.55.88-5.17,2.07v5.3Z"/><path class="cls-2" d="M761.08,89.84s2.22-3.1,7.09,0C770,91,770.73,92.09,770.94,93c.59-1,1.08-3.12-2.61-5.47-4.48-2.85-6.84-.76-7.39-.15A4.87,4.87,0,0,1,761.08,89.84Z"/></g><g id="bush2"><path class="cls-1" d="M256.35,102.5s5.73-14.29-11.89-18.27c0,0,6.72-7.81-4.07-10.52h0a8,8,0,0,0-6.71-3.26s4.51-9-3-11.41-11.54,2.86-11.54,2.86,1.5-13.79-10.54-13.32S199.06,59,199.06,59s-5-6.65-16.06,0-4.51,12.36-4.51,12.36S168,65.22,164.44,73.31s3,11.88,3,11.88-9-5.23-16,0,2.51,11.89,2.51,11.89-14.55-8.09-19.07,0,2.51,17.11,2.51,17.11h119S264.6,107.75,256.35,102.5Z"/><path class="cls-2" d="M193.91,100.07s5.64-2.84,7.51.87a4.1,4.1,0,0,1,.48,2.81,4,4,0,0,0,.34-4.67c-1.59-3.14-5.71-1.87-7.32-1.22A2.66,2.66,0,0,1,193.91,100.07Z"/><path class="cls-2" d="M158.5,101.54c.7-1.1,2.35-2,5.9-1.91,0,0-2.42-4.15,1.61-5.24a6.14,6.14,0,0,1,6.17,1.31s-.81-6.33,5.63-6.11c3,.1,4.28,1.12,4.84,2.2.17-1.1.26-4.57-5.48-4.77-6.84-.23-6,6.5-6,6.5a6.52,6.52,0,0,0-6.55-1.4c-4.27,1.16-1.71,5.57-1.71,5.57-3.76-.09-5.52.86-6.27,2V105Z"/><path class="cls-2" d="M182.91,94.39s2.68-3.06,8.59,0c2.2,1.14,3.1,2.22,3.35,3.13.71-1,1.32-3.08-3.15-5.4-5.44-2.81-8.3-.75-9-.15A3.92,3.92,0,0,1,182.91,94.39Z"/><path class="cls-2" d="M226,76.92s4.2-2.12,5.59.65a3.11,3.11,0,0,1,.36,2.09,3,3,0,0,0,.25-3.48c-1.18-2.34-4.25-1.39-5.45-.9A2,2,0,0,1,226,76.92Z"/><path class="cls-2" d="M199.56,78c.53-.83,1.76-1.49,4.4-1.43,0,0-1.8-3.09,1.2-3.9a4.58,4.58,0,0,1,4.6,1s-.6-4.71,4.2-4.55c2.2.08,3.18.84,3.6,1.64.13-.82.2-3.4-4.09-3.55C208.38,67,209,72,209,72a4.87,4.87,0,0,0-4.89-1c-3.18.86-1.27,4.15-1.27,4.15-2.8-.07-4.11.64-4.67,1.51v3.9Z"/><path class="cls-2" d="M217.75,72.69s2-2.28,6.4,0c1.64.85,2.31,1.65,2.5,2.33.53-.75,1-2.29-2.35-4-4.05-2.09-6.18-.56-6.68-.11A2.93,2.93,0,0,1,217.75,72.69Z"/></g><g id="bush1"><path class="cls-1" d="M150.73,70.22c-6.19-11.7-26.15,0-26.15,0S137.65,60.59,128,53s-22,0-22,0,9-5.5,4.13-17.2-19.27-2.76-19.27-2.76,9-8.25-6.19-17.89-22,0-22,0S66.07.71,49.55,0,35.1,19.29,35.1,19.29s-5.51-7.57-15.83-4.13-4.13,16.52-4.13,16.52C6.05,31.4,1.81,34.23,0,37.72V53.25H0L0,95H147.29S156.93,81.92,150.73,70.22Z"/><path class="cls-2" d="M55.76,48.42s6.94-4.3,9.26,1.32A7.67,7.67,0,0,1,65.61,54c1-1.43,1.77-3.77.41-7.07-2-4.76-7-2.83-9-1.85A4.33,4.33,0,0,1,55.76,48.42Z"/><path class="cls-2" d="M12.1,50.66c.87-1.68,2.9-3,7.27-2.9,0,0-3-6.29,2-7.94a6.69,6.69,0,0,1,7.6,2s-1-9.59,6.95-9.26c3.66.16,5.28,1.71,6,3.34.22-1.66.33-6.92-6.76-7.22-8.43-.35-7.37,9.84-7.37,9.84a7.11,7.11,0,0,0-8.08-2.11c-5.27,1.75-2.11,8.43-2.11,8.43-4.64-.14-6.8,1.3-7.73,3.08v7.93Z"/><path class="cls-2" d="M42.2,39.82s3.3-4.63,10.58,0c2.72,1.73,3.82,3.37,4.14,4.74.87-1.52,1.61-4.67-3.9-8.17-6.69-4.26-10.22-1.14-11-.23A7.24,7.24,0,0,1,42.2,39.82Z"/><path class="cls-2" d="M105.24,82.62s5.82-2.93,7.76.91a4.3,4.3,0,0,1,.49,2.9,4.09,4.09,0,0,0,.35-4.83c-1.64-3.24-5.9-1.92-7.56-1.25A2.71,2.71,0,0,1,105.24,82.62Z"/><path class="cls-2" d="M68.65,84.15c.73-1.14,2.44-2.07,6.1-2,0,0-2.5-4.28,1.66-5.41a6.34,6.34,0,0,1,6.38,1.35S82,71.57,88.61,71.8c3.06.1,4.42,1.16,5,2.28.18-1.14.28-4.73-5.66-4.93-7.07-.24-6.18,6.71-6.18,6.71S79.4,73.22,75,74.42s-1.77,5.75-1.77,5.75c-3.89-.1-5.7.89-6.47,2.1v5.4Z"/><path class="cls-2" d="M93.87,76.76s2.78-3.16,8.87,0c2.28,1.18,3.21,2.3,3.47,3.23.74-1,1.36-3.18-3.26-5.57-5.61-2.9-8.57-.78-9.26-.16A4,4,0,0,1,93.87,76.76Z"/></g></g></g></g></svg>