<svg xmlns="http://www.w3.org/2000/svg" viewBox="0 0 36.99 31.4"><defs><style>.cls-1{fill:#fff;}.cls-2{fill:#e8e8e8;}.cls-3{fill:#f7e597;}.cls-4{fill:#efda81;}.cls-5{fill:#f4ebc9;}.cls-6{fill:#604937;}.cls-7{fill:#846e5f;}.cls-8{fill:#f29cf2;}.cls-9{fill:#baf1f7;}.cls-10{fill:#f2f78b;}.cls-11{fill:#cc3b50;}.cls-12{fill:#d6516b;}.cls-13{fill:#ea9daf;}.cls-14{fill:#7a1b2d;}.cls-15{fill:#6b4539;}</style></defs><title>cherryic</title><g id="Layer_2" data-name="Layer 2"><g id="cherryic"><g id="cherryic-2" data-name="cherryic"><g id="chocoic"><g id="bowl"><path id="Bowl-2" data-name="Bowl" class="cls-1" d="M18.49,18.28C10.94,18.06,0,15.65,0,15.65s2.44,7.15,6.39,8.77A54.27,54.27,0,0,0,14.71,27l0,1.67a27,27,0,0,0-5.07,1.78,58.91,58.91,0,0,0,8.72,1h.17c5-.36,8.72-1,8.72-1a27,27,0,0,0-5.08-1.78L22.27,27a53.92,53.92,0,0,0,8.32-2.54c4-1.62,6.4-8.77,6.4-8.77S26.05,18.06,18.49,18.28Z"/><path class="cls-2" d="M0,15.65S6.2,16.85,7.17,17s-1.59,3.87,4.66,6.21,4.28,3.16,4.28,3.16l0,2.94-3.83,1.52-2.62-.43a11.68,11.68,0,0,1,4.42-1.84V26.82S6.89,25.12,5.49,24,2.67,22.5,0,15.65Z"/></g><g id="plainic"><path class="cls-3" d="M18.94,2.8s-.16-.9-.73-.93-1.9,1.73.46,3,3.63.11,5,2.35c0,0,.64,1.08-.06,1.5,2.76,0,4.09,2.61,3.09,3.58,2.22-.86,2.83,3,.38,3.33,2.55,0,3,3.06-.28,3.8S15.69,22.25,7.67,17.53c0,0-1.06-3.11,1.57-3-1.42-.77-.17-3.51,1.87-3.31-1.85-1.1.65-3.47,1.72-3.29,0,0,.69-.28-.38-1.06S14.59-.84,17.73.75A1.89,1.89,0,0,1,18.94,2.8Z"/><path class="cls-4" d="M22.28,5.52s3.87,1,2.12,3c2.94.22,4,2.17,3.07,3.43,1.83-.26,2.73,2.44.3,3.35,2.48-.36,2.42,3.36-.75,4,2.11-1.91,3.09-3.62-2-2.85s-9.9.71-13.17-.58c0,0,6,1.72,15.34-.49.83-.93,1.68-2.58-.78-2.24s-8.62.84-14.1-1.59c0,0,4.74,2,14.19.67.76-.87.63-2.86-2.22-3s-4-.07-6.13-1.15c0,0,4.17.65,5-.59s-1.95-1.41-3.48-2.11C17.25,4.3,17.4,3.6,17.4,3.6S20.31,5.38,22.28,5.52Z"/><path class="cls-5" d="M19.86,6.32c-.05-1.05-4.4.61-5.57-.92s2.35-3.93,2.35-3.93S13.7,1,12.72,6C13.39,7.78,19.91,7.71,19.86,6.32Z"/><path class="cls-5" d="M24.07,10.55c.53.77-8.19,2.42-12.51-.84-1-.88.55-2,1.46-1.22s1.14,1.16,4.5,1.49S23.29,9.4,24.07,10.55Z"/><path class="cls-5" d="M26,14.57c.63.83-11.31,2.4-16.32-1.27-1.21-1,.48-2,1.54-1.17S12.58,13.4,16.32,14,25.07,13.33,26,14.57Z"/><path class="cls-5" d="M26.26,18.08c.29.57-10.8,2.69-16.26.11-.23-.93,4.58-.14,7.82-.24S25.61,16.8,26.26,18.08Z"/></g><path class="cls-6" d="M19.38,3.6S19.07.33,16.82.52c0,0-1.22-.75-2.85,1.5s-2.26,4.72-1.5,5.33c0,0-2.64,2.34-2.08,3.42s-.73,2.62-.08,3.37,2-1.81,3.16-2.22S13,15.8,14.86,15.63s.61-4.55,1.83-5.43.42,1.42,1.44,1.62S18.92,8.24,20,8.26s.12,4.63,2.46,4.88-.36-3.41.61-3.94,1.08,1.81,2.39,1.31,1.31-1.73.38-2.27c0,0,.51-2.26-3.94-3.41-4-1-4.14-.83-4.32-1.23S17.73.75,19.38,3.6Z"/><path class="cls-7" d="M11.22,10.51s-1.09,3-.65,3.21,1.25-.83,1.25-.83-.66.7-1,.53S11.22,10.51,11.22,10.51Z"/><path class="cls-7" d="M13.72,11.47a2,2,0,0,1,.57,1.36c0,.78-.35,2.34.31,2.44s1-.82,1-.82-.53.54-1,.5S15.41,11.65,13.72,11.47Z"/><path class="cls-7" d="M17.19.89a3,3,0,0,0-3,2.16A6.14,6.14,0,0,1,17.19.89Z"/><path class="cls-7" d="M17,9.11a6.39,6.39,0,0,1,.81,1.4c.06.38,0,1,.28,1s.59-1,.59-1-.37,1-.59.79S18,9.17,17,9.11Z"/><path class="cls-7" d="M21,9.7s.43,3,1.38,3.1.91-.53.91-.53a.92.92,0,0,1-.88.28C21.87,12.42,21,9.7,21,9.7Z"/><path class="cls-7" d="M23.66,5.92S25.5,6.73,25.47,8A6.75,6.75,0,0,0,23.66,5.92Z"/></g><path class="cls-8" d="M14.18,4.58a1.75,1.75,0,0,1,1-.58c.47-.09.27-.81-.2-.72a2.31,2.31,0,0,0-1.41.92c-.22.43.43.81.64.38Z"/><path class="cls-8" d="M19.22,5.66a4.49,4.49,0,0,0,1.51.68c.44.19.82-.46.38-.65s-1-.23-1.36-.56-.88.19-.53.53Z"/><path class="cls-8" d="M12.5,9.12c.12.56.5.63.92.91s.78-.39.38-.65c-.22-.14-.52-.18-.58-.46-.1-.48-.82-.28-.72.2Z"/><path class="cls-9" d="M16.49,7.45h.69a2.29,2.29,0,0,1,.52.11.37.37,0,0,0,.2-.72,2.92,2.92,0,0,0-.6-.14h-.81a.38.38,0,0,0,0,.75Z"/><path class="cls-9" d="M23.55,8.83a2.35,2.35,0,0,0,1.31-.24c.41-.26,0-.91-.38-.65a1.64,1.64,0,0,1-.93.14.38.38,0,0,0,0,.75Z"/><path class="cls-9" d="M12.37,6.62c.18.44.53.35.85.6s.91-.24.53-.53a1.17,1.17,0,0,0-.34-.2c-.09,0-.35-.16-.31-.07-.18-.45-.9-.26-.73.2Z"/><path class="cls-10" d="M16.36,2.64c.34,0,.66-.1,1-.12s.48-.78,0-.75-.66.1-1,.12-.48.78,0,.75Z"/><path class="cls-10" d="M21.3,8.86a1.81,1.81,0,0,0,.55,1.26c.36.33.89-.2.53-.53a1,1,0,0,1-.33-.73c0-.48-.77-.48-.75,0Z"/><path class="cls-10" d="M22.61,6.34a4.69,4.69,0,0,0,1.56.55c.48,0,.48-.71,0-.75A3.94,3.94,0,0,1,23,5.69c-.44-.21-.82.44-.38.65Z"/><path class="cls-10" d="M15.45,8.94c.13,0,.19.32.24.43.18.44.9.24.72-.2s-.3-.83-.76-.95a.37.37,0,0,0-.2.72Z"/><path class="cls-10" d="M16.33,5.69c.24-.1.52-.35.78-.36.48,0,.48-.78,0-.75a2.83,2.83,0,0,0-1,.39c-.44.18-.25.91.19.72Z"/><path class="cls-11" d="M20.4,2.55a2.12,2.12,0,0,0-1.67,1.72,2.57,2.57,0,1,0,5.11-.08,2,2,0,0,0-1.16-1.52c-.56-.12-1.23.52-1.23.52S21.31,2.54,20.4,2.55Z"/><path class="cls-12" d="M20.68,3s-1.29.49-1.31,1.33a2.43,2.43,0,0,0,1.05,2.34c.85.44-.05-1.49,0-1.95S21.76,3.39,20.68,3Z"/><path class="cls-13" d="M20,3.64s-.64.24-.65.67a1.2,1.2,0,0,0,.52,1.16"/><path class="cls-13" d="M22.74,3c.36.13-.35.49-1,.47"/><path class="cls-14" d="M21,3.12s0,.37.64.31C21.6,3.43,20.5,3.87,21,3.12Z"/><path class="cls-15" d="M21.11,3.56A2.8,2.8,0,0,1,23.43,0l.15.17s-2.85.69-2.22,3.27Z"/></g></g></g></svg>