<svg xmlns="http://www.w3.org/2000/svg" viewBox="0 0 10.56 18.68"><defs><style>.cls-1{fill:#cc3b50;}.cls-2{fill:#d6516b;}.cls-3{fill:#ea9daf;}.cls-4{fill:#7a1b2d;}.cls-5{fill:#6b4539;}</style></defs><title>cherries</title><g id="Layer_2" data-name="Layer 2"><g id="cherries"><g id="cherries-2" data-name="cherries"><path class="cls-1" d="M3.8,1a1.44,1.44,0,0,0-1.44.73A1.68,1.68,0,0,0,3.38,4,1.66,1.66,0,0,0,5.63,2.77a1.28,1.28,0,0,0-.41-1.22c-.33-.2-.89.06-.89.06S4.38,1.17,3.8,1Z"/><path class="cls-2" d="M3.89,1.3s-.92,0-1.12.57a1.65,1.65,0,0,0,.16,1.71c.45.46.29-1,.46-1.23S4.48,1.81,3.89,1.3Z"/><path class="cls-3" d="M3.32,1.59s-.46,0-.56.29a.8.8,0,0,0,.09.85"/><path class="cls-3" d="M5.2,1.74c.2.16-.33.24-.73.09"/><path class="cls-4" d="M4,1.46s-.08.24.34.34C4.37,1.8,3.58,1.84,4,1.46Z"/><path class="cls-5" d="M4,1.78A1.88,1.88,0,0,1,6.27,0l.06.14S4.37,0,4.21,1.76Z"/><path class="cls-1" d="M9.84,9.28a1.44,1.44,0,0,1,.69,1.45A1.66,1.66,0,0,1,8.31,12a1.67,1.67,0,0,1-1-2.39,1.31,1.31,0,0,1,1.07-.71c.38,0,.67.59.67.59A.65.65,0,0,1,9.84,9.28Z"/><path class="cls-2" d="M9.57,9.48s.72.59.55,1.13A1.64,1.64,0,0,1,9,11.87c-.64.1.35-.93.38-1.25S8.79,9.53,9.57,9.48Z"/><path class="cls-3" d="M9.84,10.05s.36.3.28.57a.84.84,0,0,1-.59.63"/><path class="cls-3" d="M8.26,9c-.25,0,.12.39.52.51"/><path class="cls-4" d="M9.36,9.52s-.08.24-.48.06C8.88,9.58,9.49,10.1,9.36,9.52Z"/><path class="cls-5" d="M9.17,9.77A1.87,1.87,0,0,0,8.46,7l-.14.07S10,8.14,9,9.64Z"/><path class="cls-1" d="M2.41,17.39a1.48,1.48,0,0,0,1.35-.93,1.74,1.74,0,0,0-1.14-2.32C1.1,13.69.56,15.3.51,15.73A1.35,1.35,0,0,0,1,17c.33.18.86-.16.86-.16A.63.63,0,0,0,2.41,17.39Z"/><path class="cls-2" d="M2.3,17.06s.89-.13,1.05-.71a1.82,1.82,0,0,0-.27-1.78c-.46-.43-.22,1-.36,1.34S1.69,16.6,2.3,17.06Z"/><path class="cls-3" d="M2.83,16.7s.45-.07.53-.36a.91.91,0,0,0-.14-.89"/><path class="cls-3" d="M1,16.75c-.2-.15.3-.29.7-.18"/><path class="cls-4" d="M2.15,16.91s.06-.25-.35-.32C1.8,16.59,2.57,16.46,2.15,16.91Z"/><path class="cls-5" d="M2.13,16.58a2,2,0,0,1-2.06,2.1L0,18.54a2,2,0,0,0,2-1.92Z"/></g></g></g></svg>