<svg xmlns="http://www.w3.org/2000/svg" viewBox="0 0 21.77 18.3"><defs><style>.cls-1{fill:#528c93;}.cls-2{fill:#6a9fa9;}.cls-3{fill:#65c8d0;}.cls-4{fill:#fff;}.cls-5{fill:#e8eced;}.cls-6{fill:#cc3b50;}.cls-7{fill:#d6516b;}.cls-8{fill:#ea9daf;}.cls-9{fill:#7a1b2d;}.cls-10{fill:#542d1f;}.cls-11{fill:#50843d;}.cls-12{fill:#6a9956;}</style></defs><title>cherrybutton</title><g id="Layer_2" data-name="Layer 2"><g id="Cherry_button" data-name="Cherry button"><g id="cherrybutton"><polygon class="cls-1" points="11.56 0 1.34 0 0 0.66 1.73 0.66 6.59 8.87 11.78 17.64 16.66 8.93 21.77 0 11.56 0"/><polygon class="cls-1" points="10.38 18.3 11.78 17.64 11.25 16.75 10.38 18.3"/><g id="cherry"><polygon class="cls-2" points="10.43 18.3 15.32 9.59 20.42 0.66 10.21 0.66 0 0.66 5.24 9.52 10.43 18.3"/><polygon class="cls-3" points="0 0.66 10.49 0.66 10.43 18.3 0 0.66"/><circle class="cls-4" cx="10.49" cy="7.06" r="5.13"/><path class="cls-5" d="M10.49,1.93a5.13,5.13,0,1,0,0,10.25Z"/></g><path class="cls-6" d="M8,8.27a1.16,1.16,0,0,0-.91.93,1.36,1.36,0,0,0,1.39,1.53A1.35,1.35,0,0,0,9.83,9.16a1,1,0,0,0-.63-.82c-.3-.07-.67.28-.67.28S8.46,8.26,8,8.27Z"/><path class="cls-7" d="M8.11,8.49s-.7.27-.71.73A1.34,1.34,0,0,0,8,10.49c.47.24,0-.81,0-1.06S8.7,8.73,8.11,8.49Z"/><path class="cls-8" d="M7.76,8.86s-.35.13-.36.36a.67.67,0,0,0,.29.64c.23.12,0-.41,0-.53S8.05,9,7.76,8.86Z"/><path class="cls-8" d="M8.7,8.75s.34-.33.53-.26S9.05,8.76,8.7,8.75Z"/><path class="cls-9" d="M8.27,8.58s0,.2.35.17C8.62,8.75,8,9,8.27,8.58Z"/><path class="cls-6" d="M11.58,8.26a1.14,1.14,0,0,0-.89.92,1.37,1.37,0,1,0,2.72,0,1,1,0,0,0-.62-.81c-.3-.07-.65.27-.65.27A.52.52,0,0,0,11.58,8.26Z"/><path class="cls-7" d="M11.73,8.48s-.69.26-.7.71a1.29,1.29,0,0,0,.56,1.24c.45.24,0-.79,0-1S12.3,8.71,11.73,8.48Z"/><path class="cls-8" d="M11.38,8.84S11,9,11,9.2a.64.64,0,0,0,.28.62c.22.11,0-.4,0-.52S11.66,9,11.38,8.84Z"/><path class="cls-8" d="M12.3,8.73s.33-.32.52-.25S12.64,8.74,12.3,8.73Z"/><path class="cls-9" d="M11.88,8.57s0,.19.34.16C12.22,8.73,11.63,9,11.88,8.57Z"/><path class="cls-10" d="M8.36,8.68s2-2.12,1.61-3.94l.25-.1s2.41,2.1,2,4.09c0,0-.23,0-.25-.15a3.83,3.83,0,0,0-1.66-3.45A6.22,6.22,0,0,1,8.62,8.68S8.45,8.79,8.36,8.68Z"/><path class="cls-11" d="M10,4.78s1.07-2.06,2.22-1.14A1.39,1.39,0,0,1,10,4.78Z"/><path class="cls-12" d="M10,4.74l2.25-1.1S10.91,2.52,10,4.74Z"/></g></g></g></svg>