<svg xmlns="http://www.w3.org/2000/svg" viewBox="0 0 8.68 14.26"><defs><style>.cls-1{fill:#604937;}.cls-2{fill:#846e5f;}</style></defs><title>chocosquirt</title><g id="Layer_2" data-name="Layer 2"><g id="chocosquirt"><g id="chocosquirt-2" data-name="chocosquirt"><path class="cls-1" d="M3.52,3.25S-1.83,6.46.66,8.79,3.52,3.25,3.52,3.25Z"/><path class="cls-1" d="M6.13,8.29s-2.45,5.71.16,6S9.11,10.3,6.13,8.29Z"/><path class="cls-1" d="M6.82,0s-1.55,4.69.95,4.49S6.82,0,6.82,0Z"/><path class="cls-2" d="M2.77,4.5S-.27,6.7,1,8.29C1,8.29,1.73,5.46,2.77,4.5Z"/><path class="cls-2" d="M6.35,9.42s-1.41,3.41.15,4.2-.25-.7-.15-1.74A20.14,20.14,0,0,0,6.35,9.42Z"/><path class="cls-2" d="M7.14,1.08S6.58,3.46,7.51,4A8.9,8.9,0,0,1,7.14,1.08Z"/></g></g></g></svg>