<svg xmlns="http://www.w3.org/2000/svg" viewBox="0 0 21.78 18.3"><defs><style>.cls-1{fill:#528c93;}.cls-2{fill:#6a9fa9;}.cls-3{fill:#65c8d0;}.cls-4{fill:#fff;}.cls-5{fill:#e8eced;}.cls-6{fill:#5e4411;}.cls-7{fill:#6b5122;}.cls-8{fill:#775c31;}</style></defs><title>chocobutton</title><g id="Layer_2" data-name="Layer 2"><g id="Choco_button" data-name="Choco button"><g id="chocobutton"><polygon class="cls-1" points="11.57 0 1.36 0 0.01 0.66 1.75 0.66 6.6 8.87 11.79 17.64 16.68 8.93 21.78 0 11.57 0"/><polygon class="cls-1" points="10.39 18.3 11.79 17.64 11.26 16.75 10.39 18.3"/><g id="Chocolate_Icon" data-name="Chocolate Icon"><polygon class="cls-2" points="10.43 18.23 15.32 9.53 20.42 0.6 10.21 0.6 0 0.6 5.24 9.46 10.43 18.23"/><polygon class="cls-3" points="0 0.6 10.49 0.6 10.43 18.23 0 0.6"/><circle class="cls-4" cx="10.49" cy="6.99" r="5.13"/><path class="cls-5" d="M10.49,1.87a5.13,5.13,0,1,0,0,10.25Z"/><polygon class="cls-6" points="9.19 10.17 9.34 10.52 9.67 10.25 9.47 10.12 9.19 10.17"/><polygon class="cls-6" points="10 10.12 10.17 10.32 10.32 10.22 10.16 9.86 10 10.12"/><polygon class="cls-6" points="9.9 10.85 9.79 11.01 9.9 11.08 10.24 11.01 9.9 10.85"/><polygon class="cls-7" points="6.69 7.7 6.69 8.05 9.08 10.05 9.1 9.81 9.1 9.32 9.69 9.52 10.13 9.31 10.59 10.02 13.69 4.99 13.73 4.54 6.69 7.7"/><polygon class="cls-6" points="9.96 2.91 13.73 4.54 10.57 9.71 10.17 9.13 9.71 9.4 9.03 9.16 9.1 9.66 6.69 7.7 9.96 2.91"/><polygon class="cls-7" points="10.16 3.36 9.37 4.56 10.1 4.95 10.9 3.67 10.16 3.36"/><polygon class="cls-7" points="11.23 3.83 10.43 5.04 11.16 5.43 11.96 4.15 11.23 3.83"/><polygon class="cls-7" points="12.33 4.34 11.54 5.54 12.27 5.93 13.06 4.66 12.33 4.34"/><polygon class="cls-7" points="9.15 4.88 8.29 6.04 9 6.47 9.86 5.24 9.15 4.88"/><polygon class="cls-7" points="10.18 5.42 9.33 6.57 10.04 7 10.9 5.77 10.18 5.42"/><polygon class="cls-7" points="11.26 5.98 10.4 7.14 11.11 7.57 11.98 6.33 11.26 5.98"/><polygon class="cls-7" points="8.07 6.39 7.17 7.52 7.86 7.97 8.77 6.77 8.07 6.39"/><polygon class="cls-7" points="9.09 6.96 8.19 8.09 8.88 8.54 9.79 7.34 9.09 6.96"/><polygon class="cls-7" points="10.14 7.57 9.24 8.69 9.93 9.15 10.84 7.95 10.14 7.57"/><polygon class="cls-6" points="10.19 3.46 9.52 4.47 10.13 4.8 10.8 3.72 10.19 3.46"/><polygon class="cls-6" points="11.22 3.96 10.55 4.97 11.16 5.3 11.83 4.22 11.22 3.96"/><polygon class="cls-6" points="12.33 4.45 11.64 5.49 12.27 5.83 12.96 4.72 12.33 4.45"/><polygon class="cls-6" points="9.13 5.02 8.43 5.98 9.01 6.33 9.72 5.31 9.13 5.02"/><polygon class="cls-6" points="10.16 5.56 9.45 6.52 10.04 6.88 10.75 5.86 10.16 5.56"/><polygon class="cls-6" points="11.26 6.12 10.55 7.08 11.13 7.43 11.85 6.41 11.26 6.12"/><polygon class="cls-6" points="8.03 6.56 7.31 7.46 7.87 7.82 8.59 6.86 8.03 6.56"/><polygon class="cls-6" points="9.07 7.11 8.35 8.02 8.91 8.39 9.64 7.41 9.07 7.11"/><polygon class="cls-6" points="10.13 7.73 9.41 8.63 9.97 8.99 10.7 8.03 10.13 7.73"/><polygon class="cls-8" points="9.52 4.47 10.8 3.72 10.13 4.8 9.52 4.47"/><polygon class="cls-8" points="10.55 4.97 11.83 4.22 11.16 5.3 10.55 4.97"/><polygon class="cls-8" points="11.64 5.49 12.96 4.72 12.27 5.83 11.64 5.49"/><polygon class="cls-8" points="10.55 7.08 11.85 6.41 11.13 7.43 10.55 7.08"/><polygon class="cls-8" points="9.45 6.52 10.75 5.86 10.04 6.88 9.45 6.52"/><polygon class="cls-8" points="8.43 5.98 9.72 5.31 9.01 6.33 8.43 5.98"/><polygon class="cls-8" points="7.31 7.46 8.59 6.86 7.87 7.82 7.31 7.46"/><polygon class="cls-8" points="8.35 8.02 9.64 7.41 8.91 8.39 8.35 8.02"/><polygon class="cls-8" points="9.41 8.63 10.7 8.03 9.97 8.99 9.41 8.63"/></g></g></g></g></svg>