<?xml version="1.0" encoding="utf-8"?>
<!-- Generator: Adobe Illustrator 22.1.0, SVG Export Plug-In . SVG Version: 6.00 Build 0)  -->
<svg version="1.1" id="Layer_1" xmlns="http://www.w3.org/2000/svg" xmlns:xlink="http://www.w3.org/1999/xlink" x="0px" y="0px"
	 viewBox="0 0 736.2 241.7" style="enable-background:new 0 0 736.2 241.7;" xml:space="preserve">
<style type="text/css">
	.st0{opacity:0.88;}
	.st1{fill:#FCFAFA;}
	.st2{fill:#E4E9EF;}
</style>
<title>clouds</title>
<g>
	<g id="Layer_2_1_">
		<g id="Clouds">
			<g id="clouds-2" class="st0">
				<path id="cloud1" class="st1" d="M220.2,69.1c0-11.9-9.6-21.4-21.4-21.4c-2.1,0-4.2,0.3-6.2,0.9c-0.5-11.9-10.6-21-22.3-20.4
					c-2.9,0.1-5.7,0.8-8.3,2.1c-5.2-12.9-19.8-19.1-32.6-13.9c-8.2,3.3-14,10.7-15.4,19.4c-13.3,1.9-23.2,13.3-23.2,26.8
					c0,15,17.1,27.1,32.1,27.1c1.1,0,2.2-0.1,3.3-0.2l72.8,1h0.9C211.1,90,220.2,80.5,220.2,69.1z"/>
				<path class="st2" d="M108.8,62.5c0-12.8,9.4-23.5,22-25.3c1.4-8.8,7.5-16,15.9-18.9c-12.4-4.2-25.9,2.5-30,14.9
					c-0.5,1.3-0.7,2.6-1,3.9c-12.6,1.9-22,12.7-22,25.4c0,14.1,16.2,25.6,30.4,25.6c1,0,2-0.1,3.1-0.2l10.3,0.2
					C123.8,87.2,108.8,76.1,108.8,62.5z"/>
			</g>
		</g>
	</g>
	<g id="Layer_2_2_">
		<g id="Clouds_1_">
			<g id="clouds-2_1_" class="st0">
				<path id="cloud1_1_" class="st1" d="M142.1,212c0-13-10.5-23.5-23.5-23.5c-2.3,0-4.6,0.3-6.8,1c-0.6-13-11.6-23-24.5-22.4
					c-3.2,0.1-6.3,0.9-9.1,2.3c-5.7-14.1-21.7-20.9-35.8-15.2c-9,3.6-15.4,11.7-16.9,21.3C10.9,177.6,0.1,190.1,0,204.9
					c0,16.4,18.8,29.7,35.2,29.7c1.2,0,2.4-0.1,3.6-0.2l79.8,1.1h1C132.2,234.9,142.2,224.5,142.1,212z"/>
				<path class="st2" d="M20,204.7c0-14,10.3-25.8,24.1-27.8c1.5-9.6,8.2-17.6,17.4-20.7c-13.6-4.6-28.4,2.7-32.9,16.3
					c-0.5,1.4-0.8,2.9-1.1,4.3c-13.8,2.1-24.1,13.9-24.1,27.9c0,15.5,17.8,28.1,33.3,28.1c1.1,0,2.2-0.1,3.4-0.2l11.3,0.2
					C36.4,231.8,20,219.6,20,204.7z"/>
			</g>
		</g>
	</g>
	<g id="Layer_2_4_">
		<g id="Clouds_3_">
			<g id="clouds-2_3_" class="st0">
				<path id="cloud1_3_" class="st1" d="M731.8,209.4c0-13-10.5-23.5-23.5-23.5c-2.3,0-4.6,0.3-6.8,1c-0.6-13-11.6-23-24.5-22.4
					c-3.2,0.1-6.3,0.9-9.1,2.3c-5.7-14.1-21.7-20.9-35.8-15.2c-9,3.6-15.4,11.7-16.9,21.3c-14.6,2.1-25.4,14.6-25.5,29.4
					c0,16.4,18.8,29.7,35.2,29.7c1.2,0,2.4-0.1,3.6-0.2l79.8,1.1h1C722,232.3,732,221.9,731.8,209.4z"/>
				<path class="st2" d="M609.8,202.1c0-14,10.3-25.8,24.1-27.8c1.5-9.6,8.2-17.6,17.4-20.7c-13.6-4.6-28.4,2.7-32.9,16.3
					c-0.5,1.4-0.8,2.9-1.1,4.3c-13.8,2.1-24.1,13.9-24.1,27.9c0,15.5,17.8,28.1,33.3,28.1c1.1,0,2.2-0.1,3.4-0.2l11.3,0.2
					C626.2,229.2,609.8,217,609.8,202.1z"/>
			</g>
		</g>
	</g>
	<g id="Layer_2_3_">
		<g id="Clouds_2_">
			<g id="clouds-2_2_" class="st0">
				<path id="cloud1_2_" class="st1" d="M575.8,74.4c0-13-10.5-23.5-23.5-23.5c-2.3,0-4.6,0.3-6.8,1c-0.6-13-11.6-23-24.5-22.4
					c-3.2,0.1-6.3,0.9-9.1,2.3c-5.7-14.1-21.7-20.9-35.8-15.2c-9,3.6-15.4,11.7-16.9,21.3c-14.6,2.1-25.4,14.6-25.4,29.4
					c0,16.4,18.8,29.7,35.2,29.7c1.2,0,2.4-0.1,3.5-0.2l79.8,1.1h1C565.8,97.4,575.8,87,575.8,74.4z"/>
				<path class="st2" d="M453.5,67.2c0-14,10.3-25.8,24.1-27.8c1.5-9.6,8.2-17.6,17.4-20.7c-13.6-4.6-28.4,2.7-32.9,16.3
					c-0.5,1.4-0.8,2.9-1.1,4.3c-13.8,2-24.1,13.8-24.1,27.8c0,15.5,17.8,28.1,33.3,28.1c1.1,0,2.2-0.1,3.4-0.2l11.3,0.2
					C470,94.2,453.5,82.1,453.5,67.2z"/>
			</g>
		</g>
	</g>
	<g id="Layer_2_5_">
		<g id="Clouds_4_">
			<g id="clouds-2_4_" class="st0">
				<path id="cloud1_4_" class="st1" d="M421,195.4c0-11.3-9.2-20.5-20.5-20.5c-2,0-4,0.3-5.9,0.9c-0.5-11.3-10.1-20.1-21.4-19.5
					c-2.8,0.1-5.5,0.8-7.9,2c-5-12.3-18.9-18.2-31.2-13.3c-7.9,3.1-13.4,10.2-14.7,18.6c-12.7,1.8-22.2,12.7-22.2,25.7
					c0,14.3,16.4,25.9,30.7,25.9c1,0,2.1-0.1,3.1-0.2l69.6,1h0.9C412.3,215.5,421,206.4,421,195.4z"/>
				<path class="st2" d="M314.3,189.1c0-12.2,9-22.5,21-24.3c1.3-8.4,7.2-15.4,15.2-18.1c-11.9-4-24.8,2.4-28.7,14.2
					c-0.4,1.2-0.7,2.5-1,3.8c-12,1.7-21,12-21,24.3c0,13.5,15.5,24.5,29.1,24.5c1,0,1.9-0.1,3-0.2l9.9,0.2
					C328.7,212.7,314.3,202.1,314.3,189.1z"/>
			</g>
		</g>
	</g>
</g>
</svg>
