<svg xmlns="http://www.w3.org/2000/svg" viewBox="0 0 32.96 21.26"><defs><style>.cls-1{fill:#fff;}</style></defs><title>Asset 1</title><g id="Layer_2" data-name="Layer 2"><g id="Enjoy"><path class="cls-1" d="M8.5,9.06a.3.3,0,0,1,.22.23.64.64,0,0,1,0,.38,1,1,0,0,1-.37.52,1.41,1.41,0,0,1-.71.23,6.85,6.85,0,0,1-1.91-.1,12.64,12.64,0,0,1-2.16-.54A7.86,7.86,0,0,1,1.27,8.62,3.24,3.24,0,0,1,.14,7.23a2,2,0,0,1,0-1.44A2.51,2.51,0,0,1,1.33,4.35,3.87,3.87,0,0,1,3.53,4a1.94,1.94,0,0,1-.79-1,1.86,1.86,0,0,1,0-1.21,2.35,2.35,0,0,1,1-1.26A3.57,3.57,0,0,1,5.51,0a5.64,5.64,0,0,1,2,.33,3.4,3.4,0,0,1,1.9,1.34,2.15,2.15,0,0,1,.15,1.82,2.23,2.23,0,0,1-.62,1,.82.82,0,0,1-.84.17.87.87,0,0,1-.45-.32.52.52,0,0,1,0-.49,1.66,1.66,0,0,1,.2-.4A4.22,4.22,0,0,0,8.08,3,.87.87,0,0,0,8,2.19a1.72,1.72,0,0,0-.93-.61A2.78,2.78,0,0,0,5.4,1.45a1.39,1.39,0,0,0-1,.9,1.15,1.15,0,0,0,.13,1,2.58,2.58,0,0,0,1.29.87.54.54,0,0,1,.31.24.5.5,0,0,1,0,.38c-.18.49-.49.67-1,.52A5,5,0,0,0,3.55,5.1a2.14,2.14,0,0,0-1.1.3,1.32,1.32,0,0,0-.55.69,1.2,1.2,0,0,0,.28,1.29,4.88,4.88,0,0,0,2,1.08,10.47,10.47,0,0,0,2.07.48,10.64,10.64,0,0,0,2,.08A.9.9,0,0,1,8.5,9.06Z"/><path class="cls-1" d="M7.57,10.68A4.72,4.72,0,0,1,7.9,9.16,9.72,9.72,0,0,1,9.3,6.51a.91.91,0,0,1,.5-.36,1.19,1.19,0,0,1,.7.07.71.71,0,0,1,.3.17.26.26,0,0,1,0,.25,5.52,5.52,0,0,1-.46.75l-.46.73a8.46,8.46,0,0,0-.4.8,6.77,6.77,0,0,1,1.39-1.29,3.5,3.5,0,0,1,1.22-.56,1.71,1.71,0,0,1,.91,0,.69.69,0,0,1,.48,1,9.59,9.59,0,0,1-.81,1.51A8.45,8.45,0,0,0,12,10.83c-.1.3,0,.49.17.57a1,1,0,0,0,.64-.09A8.52,8.52,0,0,0,14,10.7a.43.43,0,0,1,.36,0,.29.29,0,0,1,.19.22.75.75,0,0,1,0,.4,1.11,1.11,0,0,1-.46.63,5.66,5.66,0,0,1-1.39.62,2.43,2.43,0,0,1-1.41-.06,1.17,1.17,0,0,1-.75-.64,1.48,1.48,0,0,1,0-1.07,7.76,7.76,0,0,1,.55-1.08,6.08,6.08,0,0,0,.5-.94c0-.12,0-.19-.07-.22s-.28,0-.54.24a6.16,6.16,0,0,0-.9.81,7.88,7.88,0,0,0-.9,1.15,1.84,1.84,0,0,1-.54.62.68.68,0,0,1-.58,0A.65.65,0,0,1,7.57,10.68Z"/><path class="cls-1" d="M17.16,11.82a.79.79,0,0,1,0,.39.91.91,0,0,1-.22.38.84.84,0,0,1-.34.17c-.65.16-1.53.4-2.62.7a14.22,14.22,0,0,1-2.44,3.3,2.19,2.19,0,0,1-2.26.73,1.36,1.36,0,0,1-.82-.69,1.3,1.3,0,0,1,0-1.06,3.22,3.22,0,0,1,1.22-1.5,12.14,12.14,0,0,1,3.13-1.43l.28-.55c.36-.69.69-1.37,1-2,.19-.39.47-1,.85-1.75a.72.72,0,0,1,.42-.39,1,1,0,0,1,.67.06c.23.08.37.16.42.26a.39.39,0,0,1,0,.32c-.12.35-.58,1.26-1.37,2.75l-.39.74c.76-.24,1.45-.45,2.07-.6a.48.48,0,0,1,.29,0A.26.26,0,0,1,17.16,11.82ZM10.63,16A9.06,9.06,0,0,0,12,14.07a7.1,7.1,0,0,0-1.7.89,2.24,2.24,0,0,0-.75.92c-.1.29,0,.48.17.55S10.24,16.35,10.63,16Zm4.9-9.1a.88.88,0,0,1,0-.7.87.87,0,0,1,.54-.55,1.32,1.32,0,0,1,1.48.44.72.72,0,0,1,.06.67,1,1,0,0,1-.55.62,1.14,1.14,0,0,1-.87,0A1.09,1.09,0,0,1,15.53,6.89Z"/><path class="cls-1" d="M22.9,12.74a.85.85,0,0,1,0,.4c-.13.36-.32.54-.56.53a5.36,5.36,0,0,1-1.59-.25,3.06,3.06,0,0,1-1.38,1.23,2.27,2.27,0,0,1-1.64.07A2.21,2.21,0,0,1,16.63,14a2.25,2.25,0,0,1-.42-1.13,2.89,2.89,0,0,1,.16-1.26,3.56,3.56,0,0,1,.87-1.42,2.7,2.7,0,0,1,1.27-.74,2.43,2.43,0,0,1,1.41.07,1.85,1.85,0,0,1,1.18,1.08,2.66,2.66,0,0,1,.11,1.68,7.91,7.91,0,0,0,1.35.22.65.65,0,0,1,.16,0A.27.27,0,0,1,22.9,12.74Zm-4,.73a1.67,1.67,0,0,0,.66-.72,1.6,1.6,0,0,1-.32-.81,1.93,1.93,0,0,1,.09-.89c0-.12.1-.23.16-.35l-.05,0a1,1,0,0,0-.91.18A2.3,2.3,0,0,0,17.82,12a1.77,1.77,0,0,0-.09,1,.78.78,0,0,0,.46.53A.86.86,0,0,0,18.92,13.47Z"/><path class="cls-1" d="M27,12.06a.28.28,0,0,1,0,.26c-.06.18-.39.79-1,1.83l-1,1.79a20,20,0,0,1-2.76,4.2c-.89,1-1.74,1.3-2.56,1a1.37,1.37,0,0,1-.81-.69,1.34,1.34,0,0,1,0-1.06,3,3,0,0,1,.62-1,5.76,5.76,0,0,1,1.35-1,16.77,16.77,0,0,1,2.46-1l.12-.25q.23-.39.6-1.14a3,3,0,0,1-1.07,1,1.23,1.23,0,0,1-1,.12,1,1,0,0,1-.66-.76,2.12,2.12,0,0,1,.08-1.28,10.83,10.83,0,0,1,.66-1.52,10.68,10.68,0,0,1,.9-1.37,1.06,1.06,0,0,1,.49-.38,1.19,1.19,0,0,1,.69.08.6.6,0,0,1,.32.2.28.28,0,0,1,0,.27,4.94,4.94,0,0,1-.33.57c-.18.26-.33.49-.45.7s-.33.56-.47.83a5.15,5.15,0,0,0-.31.67c-.1.29-.07.46.09.52s.29,0,.54-.19a5.37,5.37,0,0,0,.9-.84,15,15,0,0,0,1.16-1.51,1,1,0,0,1,.44-.39,1,1,0,0,1,.62,0A.79.79,0,0,1,27,12.06Zm-5.87,7.61a10.39,10.39,0,0,0,1.47-1.94,6.69,6.69,0,0,0-1.73.9,2.12,2.12,0,0,0-.76.92.6.6,0,0,0,0,.34.28.28,0,0,0,.2.21C20.45,20.17,20.74,20,21.12,19.67Z"/><path class="cls-1" d="M26.31,17.43a1,1,0,0,1,0-.81,1.19,1.19,0,0,1,.57-.71,1.12,1.12,0,0,1,.92,0,1.17,1.17,0,0,1,.67.51,1,1,0,0,1,0,.81,1.22,1.22,0,0,1-.59.73,1.26,1.26,0,0,1-1.57-.5ZM28,15.17a.37.37,0,0,1,0-.37l.05-.08c.42-.81.93-1.71,1.52-2.71s1.13-1.87,1.59-2.59A1,1,0,0,1,32.37,9c.49.17.67.41.57.72a1.64,1.64,0,0,1-.12.22c-.47.73-1.07,1.6-1.79,2.63s-1.38,1.9-2,2.64a.58.58,0,0,1-.71.15A.66.66,0,0,1,28,15.17Z"/></g></g></svg>