<svg xmlns="http://www.w3.org/2000/svg" viewBox="0 0 60.12 32.5"><defs><style>.cls-1{fill:#65c8d0;}.cls-2{fill:#90dbe9;}.cls-3{fill:none;stroke:#b6ebf2;stroke-miterlimit:10;}.cls-4{fill:#b6ebf2;}</style></defs><title>Handle</title><g id="Layer_2" data-name="Layer 2"><g id="handle"><g id="Handle-2" data-name="Handle"><path class="cls-1" d="M58.08,1.79a2.3,2.3,0,0,0-.77-.13H2C-.41,1.66,0,6.57,0,7V30.09c0,3.22,5,3.22,5,0V7a3,3,0,0,0,0-.31H55.13V30c0,3.22,5,3.22,5,0V4.16A2.3,2.3,0,0,0,58.08,1.79Z"/><path class="cls-2" d="M11.59,0H48.14A1.87,1.87,0,0,1,50,1.88V6.56a1.87,1.87,0,0,1-1.87,1.87H11.59A1.88,1.88,0,0,1,9.72,6.56V1.88A1.88,1.88,0,0,1,11.59,0Z"/><line class="cls-3" x1="12.89" x2="12.89" y2="8.43"/><rect class="cls-4" x="14.19" y="0.62" width="28.64" height="0.73" rx="0.21" ry="0.21"/><line class="cls-3" x1="46.84" x2="46.84" y2="8.43"/></g></g></g></svg>