<svg xmlns="http://www.w3.org/2000/svg" viewBox="0 0 259.33 131.59"><defs><style>.cls-1{fill:#f7e597;}.cls-2{fill:#f9f9f7;}.cls-3{fill:#edaede;}</style></defs><title>handletxt</title><g id="Layer_2" data-name="Layer 2"><g id="Layer_9" data-name="Layer 9"><g id="handletxt"><rect class="cls-1" x="63.87" y="-63.87" width="131.59" height="259.33" rx="26.67" ry="26.67" transform="translate(195.46 -63.87) rotate(90)"/><rect class="cls-2" x="10" y="7.61" width="239.33" height="116.37" rx="16.67" ry="16.67"/><path class="cls-3" d="M45.48,52.51v4.41a7.86,7.86,0,0,1-2.4.44,7.34,7.34,0,0,1-5.93-2.75,11,11,0,0,1-2.28-7.23,10.24,10.24,0,0,1,2.3-6.87A7.26,7.26,0,0,1,43,37.8a8.32,8.32,0,0,1,2.51.36v4.43a7.25,7.25,0,0,0-2.29-.41,3.23,3.23,0,0,0-2.72,1.51,6.3,6.3,0,0,0-1.09,3.82,6.51,6.51,0,0,0,1.09,4,3.47,3.47,0,0,0,2.92,1.46A6.49,6.49,0,0,0,45.48,52.51Z"/><path class="cls-3" d="M47.87,37.28h4.05V56.9H47.87Z"/><path class="cls-3" d="M55.11,40.25a2.08,2.08,0,0,1,.63-1.52,2,2,0,0,1,1.5-.62,2,2,0,0,1,1.51.62,2.14,2.14,0,0,1,0,3,2,2,0,0,1-1.51.63,2.15,2.15,0,0,1-2.13-2.14Zm.11,3.84h4.05V56.9H55.22Z"/><path class="cls-3" d="M69.4,53v3.34a5.15,5.15,0,0,1-2.9,1A4,4,0,0,1,63,55.43a8.66,8.66,0,0,1-1.3-5,8.25,8.25,0,0,1,1.33-4.88,4.07,4.07,0,0,1,3.45-1.88,4.86,4.86,0,0,1,2.91,1V48A3.21,3.21,0,0,0,68,47.57a1.89,1.89,0,0,0-1.58.79,3.41,3.41,0,0,0-.59,2.09,3.58,3.58,0,0,0,.58,2.17,1.87,1.87,0,0,0,1.59.8A3.24,3.24,0,0,0,69.4,53Z"/><path class="cls-3" d="M71.78,37.28h4V48.66h.07l2.76-4.57h4.84l-4.11,5.73,4.19,7.08H78.91l-3-6.25h-.07V56.9h-4Z"/><path class="cls-3" d="M97.24,43.64a5,5,0,0,1,4.22,1.85,8.15,8.15,0,0,1,1.45,5.13,7.38,7.38,0,0,1-1.51,5,5.16,5.16,0,0,1-4.16,1.77,5,5,0,0,1-4-1.8,7.47,7.47,0,0,1-1.5-4.94,8.21,8.21,0,0,1,1.43-5.13A4.89,4.89,0,0,1,97.24,43.64Zm0,10.1A1.28,1.28,0,0,0,98.46,53a5.63,5.63,0,0,0,.4-2.52A5.57,5.57,0,0,0,98.47,48a1.26,1.26,0,0,0-1.17-.71,1.28,1.28,0,0,0-1.17.69,5.48,5.48,0,0,0-.4,2.53C95.73,52.66,96.24,53.74,97.27,53.74Z"/><path class="cls-3" d="M109.32,44.09v1.74h.07a4.12,4.12,0,0,1,3.47-2.16,2.69,2.69,0,0,1,2.12.89,3.55,3.55,0,0,1,.79,2.41V56.9h-4V49a1.81,1.81,0,0,0-.31-1.07.94.94,0,0,0-.79-.42c-.87,0-1.3.55-1.3,1.63V56.9h-4V44.09Z"/><path class="cls-3" d="M125.73,37.28h4v8.47h.07a4.22,4.22,0,0,1,3.44-2.08,2.69,2.69,0,0,1,2.16.91,3.85,3.85,0,0,1,.78,2.57V56.9h-4.05V49.09a2,2,0,0,0-.3-1.18,1,1,0,0,0-.83-.42c-.85,0-1.27.57-1.27,1.71v7.7h-4Z"/><path class="cls-3" d="M145.57,56.9V55.21h-.06a6.42,6.42,0,0,1-1.42,1.6,2.6,2.6,0,0,1-1.62.52,3.26,3.26,0,0,1-2.91-1.87,10,10,0,0,1-1.09-5.06,9.44,9.44,0,0,1,1.1-4.9,3.29,3.29,0,0,1,2.9-1.83,2.7,2.7,0,0,1,1.62.48,6.35,6.35,0,0,1,1.4,1.54h0v-1.6h4.05V56.9Zm0-6.48q0-3.18-1.56-3.18c-1,0-1.57,1.06-1.57,3.18s.54,3.32,1.63,3.32S145.57,52.63,145.57,50.42Z"/><path class="cls-3" d="M156.72,44.09v1.74h.07a4.09,4.09,0,0,1,3.46-2.16,2.73,2.73,0,0,1,2.13.89,3.55,3.55,0,0,1,.78,2.41V56.9h-4V49a1.8,1.8,0,0,0-.3-1.07,1,1,0,0,0-.8-.42c-.86,0-1.29.55-1.29,1.63V56.9h-4V44.09Z"/><path class="cls-3" d="M172.51,37.28h4V56.9h-4V55.21h-.06c-.9,1.41-1.92,2.12-3.05,2.12a3.26,3.26,0,0,1-2.87-1.87,9.78,9.78,0,0,1-1.09-5,9.62,9.62,0,0,1,1.11-5,3.34,3.34,0,0,1,2.94-1.85,3.85,3.85,0,0,1,3,1.91Zm0,13.12c0-2.11-.51-3.16-1.53-3.16s-1.57,1.11-1.57,3.35a5.1,5.1,0,0,0,.42,2.3,1.31,1.31,0,0,0,1.18.82,1.23,1.23,0,0,0,1.1-.86A6,6,0,0,0,172.51,50.4Z"/><path class="cls-3" d="M179.74,37.28h4V56.9h-4Z"/><path class="cls-3" d="M193,53h3.41q-1,4.32-4.87,4.32a4.63,4.63,0,0,1-3.86-1.85,8.27,8.27,0,0,1-1.42-5.11,7.76,7.76,0,0,1,1.42-4.86,4.56,4.56,0,0,1,3.77-1.84,4.8,4.8,0,0,1,2.73.89,5.08,5.08,0,0,1,1.91,2.34,13.94,13.94,0,0,1,.67,4.61H190c.05,1.9.58,2.85,1.58,2.85a1.3,1.3,0,0,0,.92-.37A1.62,1.62,0,0,0,193,53Zm-2.94-3.7H193a4.83,4.83,0,0,0-.38-2,1.1,1.1,0,0,0-1.05-.64,1.23,1.23,0,0,0-1.16.62A4.4,4.4,0,0,0,190.05,49.28Z"/><path class="cls-3" d="M206.6,40.68h4.05v3.41h1.58v3.37h-1.6V56.9h-4V47.43h-1.53V44.09h1.53Z"/><path class="cls-3" d="M219.1,43.64a5,5,0,0,1,4.22,1.85,8.15,8.15,0,0,1,1.45,5.13,7.43,7.43,0,0,1-1.51,5,5.16,5.16,0,0,1-4.16,1.77,5,5,0,0,1-4-1.8,7.47,7.47,0,0,1-1.5-4.94A8.21,8.21,0,0,1,215,45.49,4.89,4.89,0,0,1,219.1,43.64Zm0,10.1a1.28,1.28,0,0,0,1.19-.74,5.78,5.78,0,0,0,.4-2.52,5.57,5.57,0,0,0-.39-2.48,1.26,1.26,0,0,0-1.17-.71A1.28,1.28,0,0,0,218,48a5.45,5.45,0,0,0-.41,2.53C217.58,52.66,218.1,53.74,219.13,53.74Z"/><path class="cls-3" d="M36.88,71.49h4V91.1h-4V89.42h-.06c-.9,1.41-1.91,2.11-3,2.11a3.27,3.27,0,0,1-2.88-1.86,9.78,9.78,0,0,1-1.09-5,9.62,9.62,0,0,1,1.11-5,3.34,3.34,0,0,1,2.94-1.85,3.88,3.88,0,0,1,3.05,1.91Zm0,13.11c0-2.1-.51-3.16-1.54-3.16s-1.57,1.12-1.57,3.36a5,5,0,0,0,.43,2.3,1.3,1.3,0,0,0,1.17.82c.47,0,.83-.29,1.1-.87A5.89,5.89,0,0,0,36.88,84.6Z"/><path class="cls-3" d="M44,74.46a2.09,2.09,0,0,1,.62-1.52,2.05,2.05,0,0,1,1.51-.63,2.13,2.13,0,0,1,2.14,2.15A2.12,2.12,0,0,1,47.64,76a2.08,2.08,0,0,1-1.52.63,2,2,0,0,1-1.5-.63A2.09,2.09,0,0,1,44,74.46Zm.11,3.84h4V91.1h-4Z"/><path class="cls-3" d="M51.81,87a7.1,7.1,0,0,0,3,1.22,1.33,1.33,0,0,0,.84-.25.77.77,0,0,0,.33-.62.62.62,0,0,0-.28-.57c-.18-.12-.88-.45-2.08-1a5,5,0,0,1-2.09-1.51,3.52,3.52,0,0,1-.64-2.16,4,4,0,0,1,1.27-3,4.55,4.55,0,0,1,3.25-1.2,10.31,10.31,0,0,1,4.71,1.53l-1.56,2.88a6.17,6.17,0,0,0-3-1.11c-.66,0-1,.27-1,.81a.82.82,0,0,0,.37.67,5.59,5.59,0,0,0,1.34.64,6.36,6.36,0,0,1,2.65,1.53,3.13,3.13,0,0,1,.83,2.25,4.23,4.23,0,0,1-1.3,3.2,4.65,4.65,0,0,1-3.35,1.26A9.07,9.07,0,0,1,50.42,90Z"/><path class="cls-3" d="M66.29,78.3v1.63h.07a3.75,3.75,0,0,1,3-2,3.29,3.29,0,0,1,2.92,1.85,9.74,9.74,0,0,1,1.11,5,9.43,9.43,0,0,1-1.13,4.9,3.35,3.35,0,0,1-2.9,1.86,3.47,3.47,0,0,1-3-2.14h-.07v7h-4V78.3Zm3.12,6.36c0-2.11-.54-3.16-1.61-3.16s-1.51,1.06-1.51,3.19S66.79,88,67.8,88,69.41,86.87,69.41,84.66Z"/><path class="cls-3" d="M81.83,87.19h3.42c-.66,2.88-2.28,4.32-4.88,4.32a4.6,4.6,0,0,1-3.85-1.85,8.21,8.21,0,0,1-1.42-5.11,7.71,7.71,0,0,1,1.42-4.87,4.52,4.52,0,0,1,3.77-1.83,4.8,4.8,0,0,1,2.73.89,5.06,5.06,0,0,1,1.9,2.34,13.68,13.68,0,0,1,.67,4.61H78.84q.09,2.85,1.59,2.85a1.32,1.32,0,0,0,.92-.37A1.55,1.55,0,0,0,81.83,87.19Zm-2.93-3.7h2.93a4.82,4.82,0,0,0-.37-2,1.12,1.12,0,0,0-1.06-.65,1.2,1.2,0,0,0-1.15.63A4.27,4.27,0,0,0,78.9,83.49Z"/><path class="cls-3" d="M92,78.3V80h.07a4.09,4.09,0,0,1,3.46-2.16,2.69,2.69,0,0,1,2.12.89,3.48,3.48,0,0,1,.79,2.41V91.1h-4V83.21a1.74,1.74,0,0,0-.31-1.07.94.94,0,0,0-.79-.42c-.86,0-1.29.54-1.29,1.63V91.1H88V78.3Z"/><path class="cls-3" d="M101.89,87a7.1,7.1,0,0,0,3,1.22,1.33,1.33,0,0,0,.84-.25.77.77,0,0,0,.33-.62.62.62,0,0,0-.28-.57c-.18-.12-.88-.45-2.08-1a5,5,0,0,1-2.09-1.51A3.52,3.52,0,0,1,101,82.1a4,4,0,0,1,1.27-3,4.56,4.56,0,0,1,3.25-1.2,10.31,10.31,0,0,1,4.71,1.53l-1.56,2.88a6.17,6.17,0,0,0-3-1.11c-.66,0-1,.27-1,.81a.82.82,0,0,0,.37.67,5.59,5.59,0,0,0,1.34.64A6.36,6.36,0,0,1,109,84.8a3.13,3.13,0,0,1,.83,2.25,4.23,4.23,0,0,1-1.3,3.2,4.65,4.65,0,0,1-3.35,1.26A9.07,9.07,0,0,1,100.5,90Z"/><path class="cls-3" d="M118.34,87.19h3.41q-1,4.32-4.87,4.32A4.6,4.6,0,0,1,113,89.66a8.21,8.21,0,0,1-1.42-5.11A7.71,7.71,0,0,1,113,79.68a4.52,4.52,0,0,1,3.77-1.83,4.8,4.8,0,0,1,2.73.89,5.12,5.12,0,0,1,1.9,2.34,13.68,13.68,0,0,1,.67,4.61h-6.75q.09,2.85,1.59,2.85a1.32,1.32,0,0,0,.92-.37A1.55,1.55,0,0,0,118.34,87.19Zm-2.93-3.7h2.93a4.82,4.82,0,0,0-.37-2,1.12,1.12,0,0,0-1.06-.65,1.23,1.23,0,0,0-1.16.63A4.42,4.42,0,0,0,115.41,83.49Z"/><path class="cls-3" d="M131.46,74.46a2.09,2.09,0,0,1,.62-1.52,2.14,2.14,0,0,1,3.65,1.52A2.09,2.09,0,0,1,135.1,76a2.11,2.11,0,0,1-3,0A2.09,2.09,0,0,1,131.46,74.46Zm.11,3.84h4.05V91.1h-4.05Z"/><path class="cls-3" d="M145.75,87.19v3.34a5.18,5.18,0,0,1-2.91,1,4,4,0,0,1-3.46-1.88,8.62,8.62,0,0,1-1.3-5,8.22,8.22,0,0,1,1.34-4.87,4.07,4.07,0,0,1,3.45-1.88,4.91,4.91,0,0,1,2.91,1.05v3.31a3.22,3.22,0,0,0-1.48-.43,1.88,1.88,0,0,0-1.57.78,3.4,3.4,0,0,0-.6,2.1,3.58,3.58,0,0,0,.59,2.17,1.84,1.84,0,0,0,1.58.79A3.24,3.24,0,0,0,145.75,87.19Z"/><path class="cls-3" d="M154.14,87.19h3.41q-1,4.32-4.87,4.32a4.6,4.6,0,0,1-3.85-1.85,8.21,8.21,0,0,1-1.42-5.11,7.71,7.71,0,0,1,1.42-4.87,4.52,4.52,0,0,1,3.77-1.83,4.85,4.85,0,0,1,2.73.89,5.12,5.12,0,0,1,1.9,2.34,13.94,13.94,0,0,1,.67,4.61h-6.75q.09,2.85,1.59,2.85a1.32,1.32,0,0,0,.92-.37A1.61,1.61,0,0,0,154.14,87.19Zm-2.93-3.7h2.93a4.82,4.82,0,0,0-.37-2,1.13,1.13,0,0,0-1.06-.65,1.23,1.23,0,0,0-1.16.63A4.42,4.42,0,0,0,151.21,83.49Z"/><path class="cls-3" d="M174.2,87.19v3.34a5.18,5.18,0,0,1-2.91,1,4,4,0,0,1-3.46-1.88,8.62,8.62,0,0,1-1.3-5,8.22,8.22,0,0,1,1.34-4.87,4.07,4.07,0,0,1,3.45-1.88,4.91,4.91,0,0,1,2.91,1.05v3.31a3.22,3.22,0,0,0-1.48-.43,1.88,1.88,0,0,0-1.57.78,3.4,3.4,0,0,0-.6,2.1,3.58,3.58,0,0,0,.59,2.17,1.85,1.85,0,0,0,1.58.79A3.24,3.24,0,0,0,174.2,87.19Z"/><path class="cls-3" d="M180.45,78.3v2.14h.05c1-1.67,2-2.5,3.05-2.5a3.21,3.21,0,0,1,.66.08v4a7.61,7.61,0,0,0-1.37-.13q-2.22,0-2.22,2.88V91.1h-4V78.3Z"/><path class="cls-3" d="M192.41,87.19h3.41q-1,4.32-4.88,4.32a4.61,4.61,0,0,1-3.85-1.85,8.21,8.21,0,0,1-1.42-5.11,7.71,7.71,0,0,1,1.42-4.87,4.53,4.53,0,0,1,3.77-1.83,4.8,4.8,0,0,1,2.73.89,5.15,5.15,0,0,1,1.91,2.34,13.94,13.94,0,0,1,.67,4.61h-6.76q.09,2.85,1.59,2.85a1.32,1.32,0,0,0,.92-.37A1.62,1.62,0,0,0,192.41,87.19Zm-2.94-3.7h2.94a5,5,0,0,0-.38-2,1.12,1.12,0,0,0-1.06-.65,1.2,1.2,0,0,0-1.15.63A4.27,4.27,0,0,0,189.47,83.49Z"/><path class="cls-3" d="M204.91,91.1V89.42h-.06a6.62,6.62,0,0,1-1.43,1.6,2.65,2.65,0,0,1-1.62.51,3.29,3.29,0,0,1-2.91-1.86,10.1,10.1,0,0,1-1.08-5.07,9.39,9.39,0,0,1,1.1-4.9,3.28,3.28,0,0,1,2.89-1.82,2.71,2.71,0,0,1,1.63.48,6,6,0,0,1,1.39,1.54h.06V78.3h4.05V91.1Zm0-6.47c0-2.12-.52-3.19-1.56-3.19s-1.58,1.07-1.58,3.19.55,3.31,1.63,3.31S204.91,86.84,204.91,84.63Z"/><path class="cls-3" d="M216.05,78.3v1.57a4.78,4.78,0,0,1,3.51-2,2.68,2.68,0,0,1,2.77,2.22,8.29,8.29,0,0,1,1.82-1.69,3.65,3.65,0,0,1,2-.53q2.82,0,2.82,4v9.3h-4.05V83.54c0-1.23-.4-1.85-1.19-1.85s-1.23.61-1.23,1.83V91.1h-4.05V83.32a2,2,0,0,0-.33-1.17,1,1,0,0,0-.84-.46,1,1,0,0,0-.87.45,2,2,0,0,0-.33,1.21V91.1h-4V78.3Z"/></g></g></g></svg>