<svg xmlns="http://www.w3.org/2000/svg" viewBox="0 0 28.56 99.33"><defs><style>.cls-1{fill:#c180b8;}.cls-2{fill:#fff;}</style></defs><title>hanger</title><g id="Layer_2" data-name="Layer 2"><g id="hanger"><g id="hanger-2" data-name="hanger"><path class="cls-1" d="M2.81,99.17H4.14a.9.9,0,0,0,.9-.9L5,3.65a.89.89,0,0,1,.89-.9H20.1a.9.9,0,0,1,.9.9v6.2a.89.89,0,0,0,.89.9h5.78a.89.89,0,0,0,.89-.9h0A.89.89,0,0,0,27.67,9h-2.9a.9.9,0,0,1-.9-.9V.9A.89.89,0,0,0,23,0H2.65a.9.9,0,0,0-.9.9l.16,97.37A.9.9,0,0,0,2.81,99.17Z"/><path class="cls-2" d="M1.08,99.33H2.42a.89.89,0,0,0,.89-.89l-.06-93a.89.89,0,0,1,.89-.9H18.35a.9.9,0,0,1,.9.9v6.21a.89.89,0,0,0,.89.89h5.78a.89.89,0,0,0,.89-.89h0a.89.89,0,0,0-.89-.9H23a.9.9,0,0,1-.9-.9V2.68a.89.89,0,0,0-.89-.9H.9a.9.9,0,0,0-.9.9L.19,98.44A.89.89,0,0,0,1.08,99.33Z"/></g></g></g></svg>