<svg xmlns="http://www.w3.org/2000/svg" viewBox="0 0 3.61 8.17"><defs><style>.cls-1{fill:#f7e597;}.cls-2{fill:#f4ebc9;}</style></defs><title>icdrip</title><g id="Layer_2" data-name="Layer 2"><g id="icdribble"><g id="icdrip"><path class="cls-1" d="M1.45,0S2.86.81,3.6,0a5.74,5.74,0,0,1-1,3.38c-1.15,1.74,0,4.12,0,4.12S2,8.81.55,7.75,1,2.94,1,2.94A12.58,12.58,0,0,0,1.45,0Z"/><path class="cls-2" d="M1.8.34l.66.19a28.54,28.54,0,0,0-1,3.06c-.1.72-.26,4.07-.26,4.07A1.58,1.58,0,0,1,.43,5.84,30.56,30.56,0,0,0,1.8.34Z"/></g></g></g></svg>