<svg xmlns="http://www.w3.org/2000/svg" viewBox="0 0 136.39 209.71"><defs><style>.cls-1{fill:#efedef;}.cls-2{fill:#c180b8;}.cls-3{fill:#ebf5f7;}.cls-4{fill:#848484;}.cls-5{fill:#6a9fa9;}.cls-6{fill:#c9c9c9;}.cls-7{fill:#a0648f;}.cls-11,.cls-8{fill:#fff;}.cls-9{fill:#65c8d0;}.cls-10{fill:#aeedf4;}.cls-11{stroke:gray;stroke-miterlimit:10;stroke-width:0.25px;}.cls-12{fill:#999595;}.cls-13{fill:#e8eced;}</style></defs><title>icmachine</title><g id="Layer_2" data-name="Layer 2"><g id="Layer_2-2" data-name="Layer 2"><g id="icmachine"><g id="icmachine-2" data-name="icmachine"><path class="cls-1" d="M11.4,199.81,1.16,205.54s-3,3.53.72,4,126.82,0,126.82,0,10.05,1,7.18-3.13a24.83,24.83,0,0,0-7-6.57Z"/><rect class="cls-2" x="18.17" width="118.22" height="200.6" rx="3.58" ry="3.58"/><path class="cls-3" d="M127.14,2.69h-114A1.73,1.73,0,0,0,11.4,4.41V195.12H128.86V4.41A1.72,1.72,0,0,0,127.14,2.69Z"/><rect class="cls-4" x="11.4" y="11.44" width="117.46" height="2.81"/><polygon class="cls-5" points="70.13 30.79 76 40.96 81.88 51.13 70.13 51.13 58.39 51.13 64.26 40.96 70.13 30.79"/><rect class="cls-6" x="18.17" y="77.52" width="103.92" height="111.04"/><rect class="cls-7" x="59.35" y="104.06" width="23.59" height="0.78" rx="0.22" ry="0.22"/><rect class="cls-6" x="15.15" y="5.03" width="108.71" height="0.94" rx="0.27" ry="0.27"/><rect class="cls-4" x="11.25" y="76.82" width="117.46" height="0.7"/><path class="cls-8" d="M109,58.35V101.4H31.24V57.78c0-4.83-7.5-4.84-7.5,0v47.37a3.41,3.41,0,0,0,2.46,3.42,3.81,3.81,0,0,0,1.6.33h84.35a4.23,4.23,0,0,0,1.1-.16,3.49,3.49,0,0,0,3.27-3.59V58.35C116.52,53.52,109,53.51,109,58.35Z"/><rect class="cls-9" x="11.4" y="16.75" width="36.24" height="41.6"/><rect class="cls-10" x="15.15" y="23.46" width="28.11" height="34.89"/><polygon class="cls-8" points="34.47 43.85 33.2 43.85 34.46 42.3 33.82 41.88 32.36 43.85 28.68 43.85 31.34 41.18 33.77 41.41 33.74 40.59 31.95 40.57 32.77 39.75 32.22 39.19 31.43 39.98 31.23 38.16 30.48 38.32 30.83 40.58 28.12 43.29 28.12 39.53 29.79 38.25 29.2 37.69 28.12 38.67 28.12 37.5 27.34 37.5 27.34 38.71 26.12 37.68 25.7 38.31 27.34 39.56 27.34 43.29 25.04 41 25.07 38.54 24.27 38.63 24.37 40.33 23.24 39.19 22.68 39.75 23.91 40.97 22.03 41.33 22.25 42.06 24.47 41.53 26.78 43.85 23.53 43.85 21.84 41.99 21.32 42.61 22.63 43.85 20.99 43.85 20.99 44.63 22.6 44.63 21.53 46.1 22.19 46.49 23.42 44.63 26.78 44.63 24.11 47.31 21.68 47.23 21.76 48.04 23.45 47.97 22.68 48.73 23.24 49.28 24.09 48.43 24.42 50.32 25.16 50.11 24.66 47.86 27.34 45.19 27.34 48.59 25.47 50.1 26.06 50.65 27.34 49.45 27.34 50.98 28.12 50.98 28.12 49.47 29.56 50.65 29.99 50.02 28.12 48.62 28.12 45.19 30.42 47.49 29.91 49.69 30.72 49.76 30.98 48.05 32.22 49.28 32.77 48.73 31.6 47.56 33.48 47.61 33.42 46.84 30.93 46.89 28.68 44.63 32.48 44.63 33.92 46.4 34.47 45.81 33.36 44.63 34.47 44.63 34.47 43.85"/><rect class="cls-9" x="92.62" y="16.75" width="36.24" height="41.6"/><rect class="cls-10" x="96.68" y="23.46" width="28.11" height="34.89"/><rect class="cls-9" x="43.38" y="92.13" width="52.92" height="3.84"/><polygon class="cls-8" points="117.77 43.85 116.5 43.85 117.76 42.3 117.12 41.88 115.66 43.85 111.98 43.85 114.64 41.18 117.08 41.41 117.04 40.59 115.26 40.57 116.07 39.75 115.52 39.19 114.73 39.98 114.53 38.16 113.78 38.32 114.13 40.58 111.42 43.29 111.42 39.53 113.09 38.25 112.5 37.69 111.42 38.67 111.42 37.5 110.64 37.5 110.64 38.71 109.42 37.68 109 38.31 110.64 39.56 110.64 43.29 108.34 41 108.37 38.54 107.57 38.63 107.67 40.33 106.54 39.19 105.98 39.75 107.21 40.97 105.33 41.33 105.55 42.06 107.77 41.53 110.08 43.85 106.83 43.85 105.14 41.99 104.62 42.61 105.93 43.85 104.29 43.85 104.29 44.63 105.9 44.63 104.83 46.1 105.49 46.49 106.72 44.63 110.08 44.63 107.41 47.31 104.98 47.23 105.06 48.04 106.75 47.97 105.98 48.73 106.54 49.28 107.39 48.43 107.72 50.32 108.46 50.11 107.96 47.86 110.64 45.19 110.64 48.59 108.77 50.1 109.36 50.65 110.64 49.45 110.64 50.98 111.42 50.98 111.42 49.47 112.86 50.65 113.29 50.02 111.42 48.62 111.42 45.19 113.72 47.49 113.21 49.69 114.02 49.76 114.28 48.05 115.52 49.28 116.07 48.73 114.9 47.56 116.78 47.61 116.72 46.84 114.24 46.89 111.98 44.63 115.78 44.63 117.22 46.4 117.77 45.81 116.66 44.63 117.77 44.63 117.77 43.85"/><rect class="cls-3" x="49.83" y="77.58" width="40.3" height="20.78" rx="2.63" ry="2.63"/><polygon class="cls-11" points="69.87 84.47 67.93 81.01 65.98 77.55 69.95 77.59 73.92 77.64 71.9 81.05 69.87 84.47"/><rect class="cls-4" x="56.01" y="99.44" width="27.92" height="11.34" rx="1.5" ry="1.5"/><path class="cls-12" d="M60,101.13a1.79,1.79,0,0,0-1.79,1.79v7.76s0,.06,0,.1h-.41A1.8,1.8,0,0,1,56,109v-7.76a1.8,1.8,0,0,1,1.79-1.79H82.15a1.79,1.79,0,0,1,1.78,1.69Z"/><path class="cls-4" d="M82.12,90.58a.49.49,0,0,0-.47-.64h-23c-.7,0-.84.37-.84.67v4.7a.51.51,0,0,0,1,0V90.94H81.15v4.54a.51.51,0,0,0,1,0v-4.7A.59.59,0,0,0,82.12,90.58Z"/><rect class="cls-8" x="68.08" y="110.78" width="3.8" height="6.04"/><rect class="cls-13" x="68.62" y="111.25" width="0.81" height="5.15"/><path class="cls-9" d="M11.4,195.12H128.86a0,0,0,0,1,0,0v4.29a3,3,0,0,1-3,3H14.4a3,3,0,0,1-3-3v-4.29a0,0,0,0,1,0,0Z"/><rect class="cls-10" x="11.4" y="198.56" width="117.46" height="1.25"/></g><polygon class="cls-9" points="70.13 30.79 70.13 51.13 58.39 51.13 70.13 30.79"/></g></g></g></svg>