<svg xmlns="http://www.w3.org/2000/svg" viewBox="0 0 427.94 430.29"><defs><style>.cls-1{fill:#edaede;}.cls-2{fill:#d895cb;}.cls-3{fill:#aeedf4;}.cls-12,.cls-4{fill:#f7e597;}.cls-5{fill:#f9f9f7;}.cls-6,.cls-9{fill:#fff;}.cls-6{opacity:0.33;}.cls-7{fill:#e2cba3;}.cls-8{fill:#af9472;}.cls-10{fill:#efedef;}.cls-11{fill:#addd9b;}.cls-12{stroke:#a9ebed;stroke-miterlimit:10;stroke-width:3px;}.cls-13{fill:#848484;}.cls-14{fill:#c9c9c9;}</style></defs><title>icstand</title><g id="Layer_2" data-name="Layer 2"><g id="Stand"><g id="icstand"><rect class="cls-1" x="15.8" y="73.54" width="399.72" height="345.64"/><rect class="cls-2" x="24.46" y="88.91" width="383.4" height="165.52"/><rect class="cls-1" x="6.98" y="10.97" width="420.36" height="70.94"/><rect class="cls-3" x="6.98" y="10.97" width="420.36" height="12.54"/><path class="cls-4" d="M7,81.9v44.75H7c.36,5.9,8,10.61,17.46,10.61s17.09-4.71,17.46-10.61h0V81.9Z"/><path class="cls-5" d="M41.93,81.9v44.75h0c.37,5.9,8,10.61,17.46,10.61s17.1-4.71,17.46-10.61h0V81.9Z"/><path class="cls-3" d="M76.89,81.9v44.75h0c.36,5.9,8,10.61,17.46,10.61s17.09-4.71,17.46-10.61h0V81.9Z"/><path class="cls-4" d="M111.54,81.9v44.75h0c.36,5.9,9,10.61,18.46,10.61s17.09-4.71,17.46-10.61h0V81.9Z"/><path class="cls-5" d="M147.49,81.9v44.75h0c.37,5.9,8,10.61,17.46,10.61s17.1-4.71,17.46-10.61h0V81.9Z"/><path class="cls-3" d="M182.2,82.18v44.74h0c.37,5.91,8,10.62,17.46,10.62s17.09-4.71,17.46-10.62h0V82.18Z"/><path class="cls-4" d="M217.16,81.76v44.75h0c.36,5.9,8,10.61,17.46,10.61s17.09-4.71,17.46-10.61h0V81.76Z"/><path class="cls-5" d="M252.11,81.76v44.75h0c.37,5.9,8,10.61,17.46,10.61s17.1-4.71,17.46-10.61h0V81.76Z"/><path class="cls-3" d="M287.07,81.76v44.75h0c.36,5.9,8,10.61,17.46,10.61s17.09-4.71,17.46-10.61h0V81.76Z"/><path class="cls-4" d="M321.72,81.76v44.75h0c.36,5.9,9,10.61,18.46,10.61s17.09-4.71,17.46-10.61h0V81.76Z"/><path class="cls-5" d="M357.67,81.76v44.75h0c.37,5.9,8,10.61,17.46,10.61s17.1-4.71,17.46-10.61h0V81.76Z"/><path class="cls-3" d="M392.38,82v44.75h0c.37,5.9,8,10.61,17.46,10.61s17.09-4.71,17.46-10.61h0V82Z"/><rect class="cls-6" x="6.98" y="80.75" width="420.36" height="23.9"/><path class="cls-7" d="M12.64,22.69S77,35.15,112.19,0l-1,80.55-71.25.2Z"/><path class="cls-8" d="M100.53,15.54,111.88,23l0-1.35-10.6-6.92L111.78,3.27l.06-1.77L100.34,14,97.07,11.9l-1.22.58,3.7,2.42-17.46,19L63.89,23.29l-1.77.3L81.29,34.81,65.06,52.51,38.39,36.67l11-11.84-2,.51-10,10.73L15.91,23.34l-2.08.1L36.57,36.93l-11.18,12L26,50,37.58,37.54,64.27,53.37,49.11,69.9,30.94,60.54l-.53,1L48.3,70.78l-7.82,8.53.85.78,8-8.76,18.46,9.52L69,80.16,50.17,70.45,65.28,54,93,70.42l-7.5,10.2h1.3L94,71l16.07,9.54,1.42-.5-16.8-10,14.1-19.17,2.76,1.61.11-1.27L109.47,50l2.35-3.2-.46-1.32-2.89,3.93L83.1,34.54Zm7.25,34.78L93.68,69.49,66.07,53.11l16.24-17.7Z"/><path class="cls-8" d="M15.8,29.42s47,5.71,97.22-25.2l-.93,3.65S67.42,38.11,17.39,32.79Z"/><rect class="cls-2" x="8.19" y="409.97" width="414.95" height="16.13"/><polygon class="cls-9" points="24.46 254.43 1.54 261.73 427.34 261.73 407.85 254.43 24.46 254.43"/><rect class="cls-10" y="261.73" width="427.94" height="7.3"/><rect class="cls-3" x="24.46" y="277.69" width="383.4" height="124.59"/><rect class="cls-4" x="24.46" y="277.69" width="25.95" height="124.59"/><rect class="cls-5" x="50.41" y="277.69" width="25.95" height="124.59"/><rect class="cls-4" x="103.45" y="277.69" width="25.95" height="124.59"/><rect class="cls-5" x="129.4" y="277.69" width="25.95" height="124.59"/><rect class="cls-4" x="180.66" y="277.69" width="25.95" height="124.59"/><rect class="cls-5" x="206.62" y="277.69" width="25.95" height="124.59"/><rect class="cls-4" x="256.99" y="277.69" width="25.95" height="124.59"/><rect class="cls-5" x="282.94" y="277.69" width="25.95" height="124.59"/><rect class="cls-4" x="333.9" y="277.69" width="25.95" height="124.59"/><rect class="cls-5" x="359.85" y="277.69" width="25.95" height="124.59"/><path class="cls-9" d="M128.33,63.94a2.35,2.35,0,0,1-.41-1.6,16.3,16.3,0,0,1,.17-2c.11-.82.29-2,.55-3.41q.66-4,1.05-7a26.3,26.3,0,0,0,.23-3.07c0-.77-.28-1.15-.85-1.15a3,3,0,0,0-1.6.68,10.56,10.56,0,0,0-2.06,2.16,1,1,0,0,1-.79.49.79.79,0,0,1-.63-.35,1.23,1.23,0,0,1-.27-.78,2.28,2.28,0,0,1,.17-.83,4.49,4.49,0,0,1,.55-1,9.65,9.65,0,0,1,2.74-2.65,5.73,5.73,0,0,1,3-.94,2.65,2.65,0,0,1,2.16.9,3.93,3.93,0,0,1,.76,2.61,11.63,11.63,0,0,1-.13,1.63c-.08.62-.16,1.13-.23,1.52s-.12.67-.15.82a14.27,14.27,0,0,1,3.27-5.82,5.82,5.82,0,0,1,4-1.66,3.21,3.21,0,0,1,2.62,1.18,5.16,5.16,0,0,1,1,3.33,12.43,12.43,0,0,1-.23,2.1,12.28,12.28,0,0,1,3-5.07,5.74,5.74,0,0,1,3.94-1.54,3.38,3.38,0,0,1,2.75,1.16,4.87,4.87,0,0,1,1,3.22,14,14,0,0,1-.33,2.74L152,57a10.89,10.89,0,0,0-.26,2.2,2.33,2.33,0,0,0,.5,1.62,1.79,1.79,0,0,0,1.39.53,2.83,2.83,0,0,0,1.66-.56,10.8,10.8,0,0,0,1.9-1.87.91.91,0,0,1,.69-.36.6.6,0,0,1,.53.31,1.6,1.6,0,0,1,.19.85,2.37,2.37,0,0,1-.49,1.58,9.81,9.81,0,0,1-2.63,2.36,5.53,5.53,0,0,1-2.74.74,4.49,4.49,0,0,1-3.41-1.29,4.83,4.83,0,0,1-1.23-3.47,22.76,22.76,0,0,1,.62-4.38l1-4.68c0-.16.1-.43.18-.82s.16-.77.21-1.12a7.23,7.23,0,0,0,.07-1,2.2,2.2,0,0,0-.34-1.35,1.19,1.19,0,0,0-1-.44,3.55,3.55,0,0,0-2.52,1.54,16.16,16.16,0,0,0-2.51,5.14,51.08,51.08,0,0,0-1.93,9.32,4.1,4.1,0,0,1-.63,2.06,1.8,1.8,0,0,1-1.44.52,1.71,1.71,0,0,1-1.27-.41,2.18,2.18,0,0,1-.4-1.53,18.79,18.79,0,0,1,.28-2.76c.19-1.13.43-2.47.72-4a57,57,0,0,0,1.18-8,2.29,2.29,0,0,0-.37-1.43,1.35,1.35,0,0,0-1.12-.46,3.68,3.68,0,0,0-2.58,1.42,14.54,14.54,0,0,0-2.6,5A51.48,51.48,0,0,0,131.56,62a4.6,4.6,0,0,1-.53,1.82,1.52,1.52,0,0,1-1.34.51A1.85,1.85,0,0,1,128.33,63.94Z"/><path class="cls-9" d="M157.13,63.21a4.63,4.63,0,0,1-.95-3,8.33,8.33,0,0,1,.95-3.88,8,8,0,0,1,2.52-2.94A5.66,5.66,0,0,1,163,52.25a1,1,0,0,1,.76.22,1.93,1.93,0,0,1,.32.78,5.87,5.87,0,0,1,1.13-.1c.83,0,1.25.3,1.25.89a19.78,19.78,0,0,1-.38,2.56,24.18,24.18,0,0,0-.59,4.1.89.89,0,0,0,.19.61.6.6,0,0,0,.5.23,2,2,0,0,0,1.18-.62,21.74,21.74,0,0,0,1.86-2,.92.92,0,0,1,.7-.36.6.6,0,0,1,.52.31,1.6,1.6,0,0,1,.19.85,2.35,2.35,0,0,1-.48,1.58,12.84,12.84,0,0,1-2.23,2.2,3.81,3.81,0,0,1-2.28.9,2.37,2.37,0,0,1-1.55-.58A3.45,3.45,0,0,1,163,62.21a3.91,3.91,0,0,1-3.35,2.15A3.11,3.11,0,0,1,157.13,63.21Zm4.53-2.1a4.24,4.24,0,0,0,.74-1.77l.95-4.71a3.12,3.12,0,0,0-2,.81,5.43,5.43,0,0,0-1.45,2.06,6.9,6.9,0,0,0-.54,2.71,1.83,1.83,0,0,0,.32,1.18,1.1,1.1,0,0,0,.89.39A1.42,1.42,0,0,0,161.66,61.11Z"/><path class="cls-9" d="M183.87,58.83a1.6,1.6,0,0,1,.19.85,2.35,2.35,0,0,1-.48,1.58,12.89,12.89,0,0,1-2.33,2.26,4.7,4.7,0,0,1-2.79.84,4.42,4.42,0,0,1-3.18-1.13,3.89,3.89,0,0,1-1.2-3,1.47,1.47,0,0,1,1-1.43,4.56,4.56,0,0,0,1.61-1,2,2,0,0,0,.49-1.35,1.07,1.07,0,0,0-.19-.69.61.61,0,0,0-.47-.23c-.47,0-1,.34-1.53,1a11.71,11.71,0,0,0-1.55,2.57,18.82,18.82,0,0,0-1.12,3.24,3.94,3.94,0,0,1-.66,1.63,1.45,1.45,0,0,1-1.16.42,1.29,1.29,0,0,1-1.17-.58,4.18,4.18,0,0,1-.49-1.77,34.74,34.74,0,0,1-.13-3.54,44.88,44.88,0,0,1,.8-8.21,24.85,24.85,0,0,1,2.38-7.19q1.58-2.9,3.78-2.9a2.26,2.26,0,0,1,1.91,1,4.41,4.41,0,0,1,.73,2.62,11.3,11.3,0,0,1-1.51,5.37,35.1,35.1,0,0,1-4.92,6.49c-.05.88-.08,1.8-.08,2.74a12,12,0,0,1,2.82-4.65,4.63,4.63,0,0,1,3-1.45,2.64,2.64,0,0,1,2.06.87,3.11,3.11,0,0,1,.78,2.15,5,5,0,0,1-.71,2.59,6.24,6.24,0,0,1-2.46,2.1,1.68,1.68,0,0,0,.62,1.11,2,2,0,0,0,1.27.42,2.4,2.4,0,0,0,1.54-.61,16.94,16.94,0,0,0,1.94-2,.91.91,0,0,1,.69-.36A.6.6,0,0,1,183.87,58.83ZM174.13,44A22,22,0,0,0,173,47.58a46.77,46.77,0,0,0-.86,4.88,18.51,18.51,0,0,0,2.63-4.07,9.52,9.52,0,0,0,1-4,3.67,3.67,0,0,0-.17-1.25c-.12-.29-.3-.44-.52-.44S174.5,43.14,174.13,44Z"/><path class="cls-9" d="M191.68,59.6a1.56,1.56,0,0,1,.19.84,2.83,2.83,0,0,1-.44,1.59,4.94,4.94,0,0,1-1.88,1.72,5.84,5.84,0,0,1-2.77.61A5,5,0,0,1,183,62.89a5.67,5.67,0,0,1-1.36-4,7.32,7.32,0,0,1,.75-3.29,6,6,0,0,1,2.06-2.42,5.16,5.16,0,0,1,3-.9,3.25,3.25,0,0,1,2.38.89,3.19,3.19,0,0,1,.9,2.39,4.14,4.14,0,0,1-1.27,3,9.11,9.11,0,0,1-4.31,2,2.14,2.14,0,0,0,2.07,1.18,2.88,2.88,0,0,0,1.73-.49,8.53,8.53,0,0,0,1.57-1.63.89.89,0,0,1,.69-.39A.6.6,0,0,1,191.68,59.6Zm-6.33-3.69a5.19,5.19,0,0,0-.65,2.66v.06a5.78,5.78,0,0,0,2.38-1.08,2.11,2.11,0,0,0,.87-1.66,1.09,1.09,0,0,0-.27-.78.93.93,0,0,0-.73-.3A1.89,1.89,0,0,0,185.35,55.91Z"/><path class="cls-9" d="M221.77,58.45c.58,0,.87.37.87,1.12a1.89,1.89,0,0,1-.27,1,1.21,1.21,0,0,1-.83.53c-1.55.29-3.08.61-4.58,1l-.08.61q-.72,5-2.85,7.46a6.82,6.82,0,0,1-5.34,2.42,4.79,4.79,0,0,1-3.29-1,3.39,3.39,0,0,1-1.17-2.65,6.26,6.26,0,0,1,2.41-4.79,21.25,21.25,0,0,1,7.3-3.71l.51-3.61c.07-.41.15-1,.25-1.64a11.12,11.12,0,0,1-3.07,4.74,6.32,6.32,0,0,1-4.17,1.56,4.14,4.14,0,0,1-3.35-1.35A5.11,5.11,0,0,1,203,56.66a11.55,11.55,0,0,1,.21-2.09c.14-.76.35-1.79.64-3.09s.45-2.11.58-2.81a11.27,11.27,0,0,0,.19-1.87c0-.82-.32-1.23-.95-1.23a3.12,3.12,0,0,0-1.75.73,10.32,10.32,0,0,0-2.14,2.24,1,1,0,0,1-.79.49.79.79,0,0,1-.63-.35,1.23,1.23,0,0,1-.27-.78,3.16,3.16,0,0,1,.72-1.79q2.61-3.59,6.11-3.59a3.2,3.2,0,0,1,2.45.95,3.94,3.94,0,0,1,.88,2.79A16.09,16.09,0,0,1,208,49c-.16.93-.41,2.11-.73,3.54-.21.86-.36,1.54-.46,2.06a7.44,7.44,0,0,0-.16,1.3,3,3,0,0,0,.47,1.87,2,2,0,0,0,1.61.56,4.08,4.08,0,0,0,2.83-1.52,14,14,0,0,0,2.61-4.62,33,33,0,0,0,1.68-7.58,2.72,2.72,0,0,1,.58-1.6,1.77,1.77,0,0,1,1.34-.48,1.59,1.59,0,0,1,1.79,1.8,3,3,0,0,1,0,.48c-.36,2.55-.69,4.84-1,6.89-.17,1.23-.35,2.49-.55,3.79s-.39,2.61-.57,3.94c1.24-.34,2.56-.65,3.94-.92A1.35,1.35,0,0,1,221.77,58.45Zm-8.22,4.66q-6.2,2.15-6.19,5.22A1.58,1.58,0,0,0,209.07,70q3.56,0,4.46-6.7Z"/><path class="cls-9" d="M234.65,56.71a1.74,1.74,0,0,1,.18.84c0,.82-.25,1.31-.75,1.46a11.54,11.54,0,0,1-3.38.61,6.33,6.33,0,0,1-1.92,3.45,4.72,4.72,0,0,1-3.25,1.29,4.56,4.56,0,0,1-2.62-.74,4.66,4.66,0,0,1-1.65-2,6.27,6.27,0,0,1-.57-2.67,7.72,7.72,0,0,1,.75-3.46,5.74,5.74,0,0,1,2-2.38,5.14,5.14,0,0,1,2.9-.86,4,4,0,0,1,3.13,1.34,5.75,5.75,0,0,1,1.4,3.32,14.57,14.57,0,0,0,2.86-.52,1.81,1.81,0,0,1,.36-.05A.56.56,0,0,1,234.65,56.71ZM227.16,61a3.62,3.62,0,0,0,.8-1.92,3.6,3.6,0,0,1-1.21-1.41,4.17,4.17,0,0,1-.42-1.84,4.54,4.54,0,0,1,.07-.82h-.13a2,2,0,0,0-1.7,1,4.84,4.84,0,0,0-.68,2.77,3.61,3.61,0,0,0,.55,2.15,1.59,1.59,0,0,0,1.3.75A1.85,1.85,0,0,0,227.16,61Z"/><path class="cls-9" d="M233.35,63.3a4.62,4.62,0,0,1-.73-2.65,22.44,22.44,0,0,1,.26-3.52,22,22,0,0,1,.84-3.39,2.14,2.14,0,0,1,.72-1.1,2.46,2.46,0,0,1,1.46-.34,1.24,1.24,0,0,1,.78.18.65.65,0,0,1,.22.54,9.82,9.82,0,0,1-.28,1.38c-.17.63-.31,1.21-.41,1.72a24.19,24.19,0,0,0-.51,3.58,1.72,1.72,0,0,0,.12.76.46.46,0,0,0,.41.21c.26,0,.58-.25,1-.76a11,11,0,0,0,1.23-2.33,30.25,30.25,0,0,0,1.27-3.84,1.68,1.68,0,0,1,1.89-1.44,1.71,1.71,0,0,1,.82.14.56.56,0,0,1,.23.53,24.41,24.41,0,0,1-.64,3.51,29.09,29.09,0,0,0-.71,4,1.23,1.23,0,0,0,.2.76.65.65,0,0,0,.54.26,1.94,1.94,0,0,0,1.21-.62,21.18,21.18,0,0,0,1.89-2,.88.88,0,0,1,.69-.36.6.6,0,0,1,.52.31,1.6,1.6,0,0,1,.19.85,2.35,2.35,0,0,1-.48,1.58,11.23,11.23,0,0,1-2.37,2.23,5,5,0,0,1-2.88.87,2,2,0,0,1-1.81-1,5.18,5.18,0,0,1-.57-2.66,6.06,6.06,0,0,1-1.31,2.68,2.54,2.54,0,0,1-1.87.93A2.21,2.21,0,0,1,233.35,63.3Z"/><path class="cls-9" d="M255.75,56.21a1.3,1.3,0,0,1,.4,1,2,2,0,0,1-.15.72,4.42,4.42,0,0,1-1.16,1.59,2.48,2.48,0,0,1-1.64.64,1.6,1.6,0,0,1-1.21-.52,1.9,1.9,0,0,1-.5-1.38c0-.32,0-.67,0-1.05s.05-.46.05-.56a.46.46,0,0,0-.09-.31.27.27,0,0,0-.22-.1c-.23,0-.56.29-1,.86a12.4,12.4,0,0,0-1.23,2.26,17.84,17.84,0,0,0-1,3,4,4,0,0,1-.65,1.64,1.48,1.48,0,0,1-1.17.41,1.39,1.39,0,0,1-1.37-1,9.71,9.71,0,0,1-.4-3.28,20.84,20.84,0,0,1,.95-6.32,1.89,1.89,0,0,1,.75-1.09,2.68,2.68,0,0,1,1.48-.35,1.45,1.45,0,0,1,.71.13.53.53,0,0,1,.21.49,9.57,9.57,0,0,1-.39,1.84c-.17.68-.3,1.28-.41,1.79s-.18,1.15-.25,1.9a14.42,14.42,0,0,1,1.89-3.59,7.45,7.45,0,0,1,2.05-2,3.69,3.69,0,0,1,1.82-.59,1.48,1.48,0,0,1,1.14.43,1.76,1.76,0,0,1,.39,1.24,10.83,10.83,0,0,1-.28,1.84h.23A1.28,1.28,0,0,1,255.75,56.21Z"/><path class="cls-9" d="M268.3,63.34a7.47,7.47,0,0,1-2.91-3,9.8,9.8,0,0,1-1.07-4.75,15.69,15.69,0,0,1,1.42-6.86,10.93,10.93,0,0,1,3.86-4.58A9.61,9.61,0,0,1,275,42.52a8.29,8.29,0,0,1,4.1,1,7.29,7.29,0,0,1,2.91,3,9.76,9.76,0,0,1,1.08,4.74,15.85,15.85,0,0,1-1.42,6.87,11.09,11.09,0,0,1-3.87,4.58,9.68,9.68,0,0,1-5.42,1.61A8.29,8.29,0,0,1,268.3,63.34Zm7.88-3.23a7.68,7.68,0,0,0,2.34-3.42,14,14,0,0,0,.82-4.95,7.15,7.15,0,0,0-1.28-4.62,4,4,0,0,0-3.3-1.57,5.4,5.4,0,0,0-3.48,1.21,8,8,0,0,0-2.36,3.41,13.74,13.74,0,0,0-.84,5,7.22,7.22,0,0,0,1.28,4.63,4,4,0,0,0,3.3,1.57A5.43,5.43,0,0,0,276.18,60.11Z"/><path class="cls-9" d="M304.15,56.42a.73.73,0,0,1,.59.26,1.11,1.11,0,0,1,.2.69,2.11,2.11,0,0,1-.31,1.24,1.74,1.74,0,0,1-.92.66,8.19,8.19,0,0,1-2.51.38,7,7,0,0,1-2.12-.31c-.5.81-1,1.63-1.64,2.49a9.06,9.06,0,0,1-1.75,2,2.72,2.72,0,0,1-1.65.54,1.73,1.73,0,0,1-1.55-.79,5.69,5.69,0,0,1-.66-2.61l-.12-1.87a25.85,25.85,0,0,1-1.42,3.27A4.56,4.56,0,0,1,289,63.93a2.52,2.52,0,0,1-1.47.43,1.92,1.92,0,0,1-1.65-.82,5.26,5.26,0,0,1-.76-2.58q-.3-3.59-.3-6.28v-.89a1.43,1.43,0,0,1,.46-1.18,2.13,2.13,0,0,1,1.3-.33,1.46,1.46,0,0,1,1,.29,1.32,1.32,0,0,1,.32,1q0,2.94.36,7.65c1.16-2.44,2.22-5,3.2-7.63a2,2,0,0,1,.67-1,1.69,1.69,0,0,1,1-.27,1.27,1.27,0,0,1,1,.28,1.44,1.44,0,0,1,.27,1q0,2.94.36,7.65c1-1.52,1.79-2.73,2.31-3.63a3.79,3.79,0,0,1-.39-1.77,3.9,3.9,0,0,1,.39-1.69,3.39,3.39,0,0,1,1.05-1.33,2.4,2.4,0,0,1,1.51-.51,1.53,1.53,0,0,1,1.2.52,2.24,2.24,0,0,1,.46,1.53,7.2,7.2,0,0,1-.61,2.63,17.81,17.81,0,0,0,2.58-.38l.69-.13A.79.79,0,0,1,304.15,56.42Z"/><path class="cls-9" d="M303.16,63.34a10,10,0,0,1-.39-3.28,20.83,20.83,0,0,1,.94-6.32,2,2,0,0,1,.76-1.09,2.66,2.66,0,0,1,1.47-.35,1.53,1.53,0,0,1,.72.13.55.55,0,0,1,.2.49,10.09,10.09,0,0,1-.38,1.84c-.17.68-.31,1.28-.41,1.79s-.19,1.15-.26,1.9a14.76,14.76,0,0,1,1.9-3.59,7.33,7.33,0,0,1,2.06-2,3.75,3.75,0,0,1,1.85-.59A1.5,1.5,0,0,1,313.29,54a22,22,0,0,1-.28,2.51c-.18,1-.31,2-.41,3a26.75,26.75,0,0,0-.16,3.11,2,2,0,0,1-.39,1.4,1.74,1.74,0,0,1-1.3.42,1.57,1.57,0,0,1-1.23-.43,2,2,0,0,1-.38-1.31,25.63,25.63,0,0,1,.36-3.38,25.51,25.51,0,0,0,.31-2.61c0-.27-.1-.41-.29-.41s-.53.29-.93.86a13.75,13.75,0,0,0-1.23,2.26,17.89,17.89,0,0,0-1,3,4.1,4.1,0,0,1-.65,1.63,1.49,1.49,0,0,1-1.17.42A1.4,1.4,0,0,1,303.16,63.34Z"/><path class="cls-9" d="M323.58,63.14a4.34,4.34,0,0,1-2.05-4A3.87,3.87,0,0,1,322,57a1.58,1.58,0,0,1,1.43-.74,1.72,1.72,0,0,1,1.13.36,1.11,1.11,0,0,1,.43.92,4.66,4.66,0,0,1-.07.89c0,.07,0,.19,0,.36a3.12,3.12,0,0,0,0,.54A1.81,1.81,0,0,0,326,61.08a7.61,7.61,0,0,0,3.27.57,6.31,6.31,0,0,0,3.4-.78,2.46,2.46,0,0,0,1.23-2.19,2.2,2.2,0,0,0-.56-1.5,4.73,4.73,0,0,0-1.41-1c-.56-.28-1.36-.63-2.38-1a24.09,24.09,0,0,1-3.21-1.46,6.58,6.58,0,0,1-2.13-1.88,4.8,4.8,0,0,1-.88-3,5.71,5.71,0,0,1,1-3.28,6.42,6.42,0,0,1,2.84-2.23,11.07,11.07,0,0,1,4.37-.79,10.2,10.2,0,0,1,3.43.55,5.57,5.57,0,0,1,2.5,1.68,4.19,4.19,0,0,1,.93,2.76,4.75,4.75,0,0,1-.49,2.43,1.68,1.68,0,0,1-2.54.41,1.26,1.26,0,0,1-.45-1,4.31,4.31,0,0,1,.08-.9c.05-.51.07-.83.07-1A1.78,1.78,0,0,0,334,45.85a5.54,5.54,0,0,0-2.61-.56,5.83,5.83,0,0,0-3.36.81,2.58,2.58,0,0,0-1.17,2.26,2.44,2.44,0,0,0,.6,1.66,4.86,4.86,0,0,0,1.5,1.16c.6.3,1.43.67,2.51,1.1a31.92,31.92,0,0,1,3.12,1.43,6.21,6.21,0,0,1,2,1.74,4.36,4.36,0,0,1,.83,2.72,5.34,5.34,0,0,1-2.29,4.64A10.35,10.35,0,0,1,329,64.44,10,10,0,0,1,323.58,63.14Z"/><path class="cls-9" d="M340.23,63.3a4.55,4.55,0,0,1-.73-2.65,22.44,22.44,0,0,1,.26-3.52,22,22,0,0,1,.84-3.39,2.08,2.08,0,0,1,.72-1.1,2.46,2.46,0,0,1,1.46-.34,1.28,1.28,0,0,1,.78.18.68.68,0,0,1,.22.54,10.69,10.69,0,0,1-.29,1.38c-.17.63-.3,1.21-.41,1.72a24.19,24.19,0,0,0-.51,3.58,1.57,1.57,0,0,0,.13.76.45.45,0,0,0,.41.21c.26,0,.58-.25,1-.76a12,12,0,0,0,1.23-2.33,31.94,31.94,0,0,0,1.27-3.84,1.94,1.94,0,0,1,.62-1.1,2,2,0,0,1,1.27-.34,1.74,1.74,0,0,1,.82.14.58.58,0,0,1,.23.53,24.41,24.41,0,0,1-.64,3.51,28.19,28.19,0,0,0-.72,4,1.23,1.23,0,0,0,.21.76.62.62,0,0,0,.54.26,2,2,0,0,0,1.21-.62,20.11,20.11,0,0,0,1.88-2,.91.91,0,0,1,.69-.36.6.6,0,0,1,.53.31,1.6,1.6,0,0,1,.19.85,2.3,2.3,0,0,1-.49,1.58,11.19,11.19,0,0,1-2.36,2.23,5,5,0,0,1-2.88.87,2,2,0,0,1-1.81-1,5.18,5.18,0,0,1-.57-2.66A6.06,6.06,0,0,1,344,63.43a2.54,2.54,0,0,1-1.87.93A2.19,2.19,0,0,1,340.23,63.3Z"/><path class="cls-9" d="M351.78,63.34a9.71,9.71,0,0,1-.4-3.28,20.53,20.53,0,0,1,.95-6.32,1.89,1.89,0,0,1,.75-1.09,2.66,2.66,0,0,1,1.47-.35,1.5,1.5,0,0,1,.72.13.53.53,0,0,1,.21.49,9.57,9.57,0,0,1-.39,1.84c-.17.68-.31,1.28-.41,1.79a17.12,17.12,0,0,0-.25,1.9,14.42,14.42,0,0,1,1.89-3.59,7.47,7.47,0,0,1,2.06-2,3.76,3.76,0,0,1,1.86-.59A1.47,1.47,0,0,1,361.9,54a21.09,21.09,0,0,1-.56,3.61,17.15,17.15,0,0,0-.49,2.94c0,.68.25,1,.74,1a2,2,0,0,0,1.22-.62,20.11,20.11,0,0,0,1.88-2,.91.91,0,0,1,.69-.36.62.62,0,0,1,.53.31,1.7,1.7,0,0,1,.19.85,2.3,2.3,0,0,1-.49,1.58,11,11,0,0,1-2.37,2.23,5,5,0,0,1-2.88.87,2.5,2.5,0,0,1-2-.75,3.26,3.26,0,0,1-.66-2.19,15.9,15.9,0,0,1,.36-2.56,13.44,13.44,0,0,0,.33-2.23c0-.27-.1-.41-.28-.41s-.54.29-.94.86A13.75,13.75,0,0,0,356,59.34a18.86,18.86,0,0,0-1,3,4,4,0,0,1-.65,1.63,1.48,1.48,0,0,1-1.16.42A1.39,1.39,0,0,1,351.78,63.34Z"/><path class="cls-9" d="M379.09,58.83a1.6,1.6,0,0,1,.19.85,2.35,2.35,0,0,1-.48,1.58,11.9,11.9,0,0,1-2.31,2.19,4.18,4.18,0,0,1-2.48.91q-2,0-3-2.28a7.34,7.34,0,0,1-1.88,1.82,3.72,3.72,0,0,1-1.88.46,3.28,3.28,0,0,1-2.58-1.16,4.5,4.5,0,0,1-1-3,8.45,8.45,0,0,1,.87-3.8,7.8,7.8,0,0,1,2.4-2.87,6.87,6.87,0,0,1,3.41-1.31,32.51,32.51,0,0,1,1.86-8.49q1.36-3.52,3.6-3.52a2.19,2.19,0,0,1,1.83,1,5.15,5.15,0,0,1,.73,3A19.92,19.92,0,0,1,377,50.9a50,50,0,0,1-3.76,7.88,5.41,5.41,0,0,0,.44,2.12,1,1,0,0,0,.89.64,2.15,2.15,0,0,0,1.4-.61,18,18,0,0,0,1.92-2,.92.92,0,0,1,.7-.36A.6.6,0,0,1,379.09,58.83Zm-9.94,2.55a7.88,7.88,0,0,0,1.22-1.47,17.3,17.3,0,0,1-.25-3.1c0-.41,0-1.08.05-2a4.28,4.28,0,0,0-2.34,1.88,5.78,5.78,0,0,0-.94,3.22c0,1.24.43,1.87,1.28,1.87A1.59,1.59,0,0,0,369.15,61.38Zm5.42-17a31.94,31.94,0,0,0-.83,4.51q-.35,2.79-.5,5.84,2.86-6.24,2.87-10a5.31,5.31,0,0,0-.17-1.51q-.17-.54-.39-.54C375.22,42.68,374.9,43.25,374.57,44.41Z"/><path class="cls-9" d="M377.57,63.21a4.63,4.63,0,0,1-.95-3,8.33,8.33,0,0,1,.95-3.88,8,8,0,0,1,2.52-2.94,5.64,5.64,0,0,1,3.34-1.12,1,1,0,0,1,.76.22,2,2,0,0,1,.31.78,5.94,5.94,0,0,1,1.13-.1c.84,0,1.26.3,1.26.89a18.71,18.71,0,0,1-.39,2.56,25.29,25.29,0,0,0-.59,4.1.9.9,0,0,0,.2.61.58.58,0,0,0,.49.23,1.91,1.91,0,0,0,1.18-.62,23,23,0,0,0,1.87-2,.91.91,0,0,1,.69-.36.62.62,0,0,1,.53.31,1.7,1.7,0,0,1,.19.85,2.3,2.3,0,0,1-.49,1.58,12.79,12.79,0,0,1-2.22,2.2,3.81,3.81,0,0,1-2.28.9,2.35,2.35,0,0,1-1.55-.58,3.37,3.37,0,0,1-1.06-1.57,3.91,3.91,0,0,1-3.36,2.15A3.09,3.09,0,0,1,377.57,63.21Zm4.53-2.1a4.24,4.24,0,0,0,.74-1.77l1-4.71a3.14,3.14,0,0,0-2,.81,5.52,5.52,0,0,0-1.44,2.06,6.9,6.9,0,0,0-.54,2.71,1.83,1.83,0,0,0,.32,1.18,1.08,1.08,0,0,0,.88.39A1.42,1.42,0,0,0,382.1,61.11Z"/><path class="cls-9" d="M398.67,59.6a1.56,1.56,0,0,1,.2.84,2.83,2.83,0,0,1-.44,1.59,5,5,0,0,1-1.88,1.72,5.88,5.88,0,0,1-2.78.61A4.91,4.91,0,0,1,390,62.89a5.62,5.62,0,0,1-1.36-4,7.45,7.45,0,0,1,.74-3.29,6.1,6.1,0,0,1,2.06-2.42,5.19,5.19,0,0,1,3-.9,3.07,3.07,0,0,1,3.27,3.28,4.13,4.13,0,0,1-1.26,3,9.15,9.15,0,0,1-4.32,2,2.14,2.14,0,0,0,2.07,1.18,2.84,2.84,0,0,0,1.73-.49,8.23,8.23,0,0,0,1.58-1.63.86.86,0,0,1,.69-.39A.57.57,0,0,1,398.67,59.6Zm-6.32-3.69a5.19,5.19,0,0,0-.65,2.66v.06a5.84,5.84,0,0,0,2.38-1.08,2.11,2.11,0,0,0,.87-1.66,1.09,1.09,0,0,0-.27-.78.93.93,0,0,0-.73-.3A1.89,1.89,0,0,0,392.35,55.91Z"/><path class="cls-9" d="M400.85,63.75a2.29,2.29,0,0,1-.58-1.62,2.56,2.56,0,0,1,.66-1.84,2.38,2.38,0,0,1,1.83-.69,2.35,2.35,0,0,1,1.7.55,2.17,2.17,0,0,1,.58,1.63,2.65,2.65,0,0,1-.67,1.88,2.37,2.37,0,0,1-1.82.7A2.21,2.21,0,0,1,400.85,63.75ZM402.68,58a.8.8,0,0,1-.33-.71l0-.21c.29-1.91.69-4.09,1.18-6.53s1-4.55,1.38-6.32a2.05,2.05,0,0,1,2.23-1.64c1.09,0,1.64.35,1.64,1a2.05,2.05,0,0,1-.08.51q-.66,2.72-1.76,6.57t-2.1,6.69a1.24,1.24,0,0,1-1.34.82A1.39,1.39,0,0,1,402.68,58Z"/><path class="cls-11" d="M11.72,430.27s-.25-16.67-10.18-17c0,0,9.12-1.67,14.26,8.5,0,0-1.56-14.85,3.55-17.17,0,0-3.41,20.67,3.59,23.33,0,0-.33-14,5.33-16,0,0-4.66,17.67,0,18.34s2.3-11.09,2.3-11.09,6.81,8.48,4.59,11.11Z"/><path class="cls-11" d="M415.89,427.07s.25-16.67,10.13-17c0,0-9.08-1.67-14.2,8.5,0,0,1.56-14.85-3.53-17.17,0,0,3.39,20.67-3.58,23.33,0,0,.34-14-5.31-16,0,0,4.65,17.67,0,18.34S397.12,416,397.12,416s-6.78,8.48-4.57,11.12Z"/><g id="Converyer_belt" data-name="Converyer belt"><rect class="cls-12" x="22.94" y="248.04" width="385.65" height="8.5" rx="4.25" ry="4.25"/><circle class="cls-13" cx="28.04" cy="252.29" r="2.53"/><circle class="cls-13" cx="49.29" cy="252.29" r="2.53"/><circle class="cls-13" cx="94.35" cy="252.29" r="2.53"/><circle class="cls-13" cx="71.29" cy="252.29" r="2.53"/><circle class="cls-13" cx="116.34" cy="252.29" r="2.53"/><circle class="cls-13" cx="137.59" cy="252.29" r="2.53"/><circle class="cls-13" cx="182.65" cy="252.29" r="2.53"/><circle class="cls-13" cx="159.59" cy="252.29" r="2.53"/><circle class="cls-13" cx="204.63" cy="252.29" r="2.53"/><circle class="cls-13" cx="226.71" cy="252.29" r="2.53"/><circle class="cls-13" cx="270.65" cy="252.29" r="2.53"/><circle class="cls-13" cx="248.71" cy="252.29" r="2.53"/><circle class="cls-13" cx="291.59" cy="252.29" r="2.53"/><circle class="cls-13" cx="313.63" cy="252.29" r="2.53"/><circle class="cls-13" cx="356.84" cy="252.29" r="2.53"/><circle class="cls-13" cx="334.84" cy="252.29" r="2.53"/><circle class="cls-13" cx="403.02" cy="252.35" r="2.53"/><circle class="cls-13" cx="380.96" cy="252.29" r="2.53"/><circle class="cls-14" cx="28.04" cy="252.29" r="0.65"/><circle class="cls-14" cx="49.29" cy="252.29" r="0.65"/><circle class="cls-14" cx="71.29" cy="252.29" r="0.65"/><circle class="cls-14" cx="94.35" cy="252.29" r="0.65"/><circle class="cls-14" cx="116.34" cy="252.29" r="0.65"/><circle class="cls-14" cx="182.64" cy="252.29" r="0.65"/><circle class="cls-14" cx="204.63" cy="252.29" r="0.65"/><circle class="cls-14" cx="137.6" cy="252.29" r="0.65"/><circle class="cls-14" cx="159.59" cy="252.29" r="0.65"/><circle class="cls-14" cx="226.67" cy="252.29" r="0.65"/><circle class="cls-14" cx="248.61" cy="252.29" r="0.65"/><circle class="cls-14" cx="270.65" cy="252.29" r="0.65"/><circle class="cls-14" cx="291.59" cy="252.29" r="0.65"/><circle class="cls-14" cx="313.63" cy="252.29" r="0.65"/><circle class="cls-14" cx="334.8" cy="252.29" r="0.65"/><path class="cls-14" d="M356.84,251.64a.65.65,0,1,1-.65.65A.65.65,0,0,1,356.84,251.64Z"/><circle class="cls-14" cx="380.92" cy="252.29" r="0.65"/><path class="cls-14" d="M403,251.64a.65.65,0,1,1-.65.65A.65.65,0,0,1,403,251.64Z"/></g></g></g></g></svg>