<svg xmlns="http://www.w3.org/2000/svg" viewBox="0 0 298.83 51.89"><defs><style>.cls-1{fill:#fff;}.cls-2{fill:#c180b8;}</style></defs><title>instruct</title><g id="Layer_2" data-name="Layer 2"><g id="Layer_9" data-name="Layer 9"><g id="instruct"><rect class="cls-1" width="298.83" height="51.89" rx="8.86" ry="8.86"/><path class="cls-2" d="M25.83,17.41V20a4.67,4.67,0,0,1-1.41.25,4.34,4.34,0,0,1-3.49-1.61,6.45,6.45,0,0,1-1.33-4.25,6,6,0,0,1,1.35-4,4.25,4.25,0,0,1,3.4-1.59A5,5,0,0,1,25.83,9v2.6a4.28,4.28,0,0,0-1.35-.24,1.92,1.92,0,0,0-1.6.89,3.74,3.74,0,0,0-.64,2.24,3.79,3.79,0,0,0,.65,2.33,2,2,0,0,0,1.71.85A3.9,3.9,0,0,0,25.83,17.41Z"/><path class="cls-2" d="M27.23,8.47h2.38V20H27.23Z"/><path class="cls-2" d="M31.48,10.21a1.24,1.24,0,1,1,1.25,1.26,1.2,1.2,0,0,1-.88-.38A1.18,1.18,0,0,1,31.48,10.21Zm.07,2.25h2.37V20H31.55Z"/><path class="cls-2" d="M39.87,17.68v2a3,3,0,0,1-1.71.57,2.37,2.37,0,0,1-2-1.1,5.09,5.09,0,0,1-.76-3,4.86,4.86,0,0,1,.78-2.86,2.41,2.41,0,0,1,2-1.1,2.93,2.93,0,0,1,1.71.61v1.95a1.87,1.87,0,0,0-.87-.25,1.09,1.09,0,0,0-.92.46,2,2,0,0,0-.35,1.23,2.08,2.08,0,0,0,.34,1.27,1.1,1.1,0,0,0,.93.47A1.9,1.9,0,0,0,39.87,17.68Z"/><path class="cls-2" d="M41.27,8.47h2.37v6.67h0l1.62-2.68h2.84l-2.41,3.37L48.19,20H45.45l-1.77-3.67h0V20H41.27Z"/><path class="cls-2" d="M56.22,12.2a3,3,0,0,1,2.47,1.08,4.78,4.78,0,0,1,.85,3,4.37,4.37,0,0,1-.88,2.92,3,3,0,0,1-2.44,1,3,3,0,0,1-2.38-1.05A4.44,4.44,0,0,1,53,16.3a4.84,4.84,0,0,1,.84-3A2.87,2.87,0,0,1,56.22,12.2Zm0,5.93a.75.75,0,0,0,.7-.44,3.3,3.3,0,0,0,.23-1.48,3.33,3.33,0,0,0-.22-1.45.76.76,0,0,0-.69-.42.76.76,0,0,0-.69.41,3.19,3.19,0,0,0-.23,1.48C55.33,17.49,55.63,18.13,56.23,18.13Z"/><path class="cls-2" d="M63.31,12.46v1h0a2.41,2.41,0,0,1,2-1.26,1.57,1.57,0,0,1,1.25.52,2,2,0,0,1,.46,1.41V20H64.71V15.35a1,1,0,0,0-.18-.63.53.53,0,0,0-.46-.25c-.51,0-.76.32-.76,1V20H60.94V12.46Z"/><path class="cls-2" d="M72.2,12.46h2.35l.59,2q.31,1,.54,2h0c.13-.62.23-1.07.31-1.34l.8-2.63H79.2L76,23.08H73.63l1-3.2Z"/><path class="cls-2" d="M83.08,12.2a3,3,0,0,1,2.48,1.08,4.78,4.78,0,0,1,.85,3,4.37,4.37,0,0,1-.88,2.92,3,3,0,0,1-2.45,1,2.94,2.94,0,0,1-2.37-1.05,4.44,4.44,0,0,1-.88-2.9,4.84,4.84,0,0,1,.84-3A2.87,2.87,0,0,1,83.08,12.2Zm0,5.93a.76.76,0,0,0,.7-.44A3.45,3.45,0,0,0,84,16.21a3.16,3.16,0,0,0-.23-1.45.73.73,0,0,0-.68-.42.76.76,0,0,0-.69.41,3.16,3.16,0,0,0-.24,1.48C82.19,17.49,82.5,18.13,83.1,18.13Z"/><path class="cls-2" d="M87.75,12.46h2.38V17.3a1.07,1.07,0,0,0,.18.63.55.55,0,0,0,.47.25c.46,0,.69-.34.69-1V12.46h2.38v4.36a3.73,3.73,0,0,1-.78,2.54,3.43,3.43,0,0,1-4.59,0,3.44,3.44,0,0,1-.73-2.25Z"/><path class="cls-2" d="M97.88,12.46v1.26h0c.57-1,1.16-1.47,1.79-1.47a2.33,2.33,0,0,1,.38.05v2.33a4.71,4.71,0,0,0-.8-.08c-.87,0-1.3.57-1.3,1.7V20H95.61V12.46Z"/><path class="cls-2" d="M105.75,17.55a4.19,4.19,0,0,0,1.75.72.77.77,0,0,0,.49-.15.45.45,0,0,0,.2-.36.38.38,0,0,0-.16-.34q-.16-.11-1.23-.57a2.93,2.93,0,0,1-1.22-.89,2,2,0,0,1-.38-1.27A2.36,2.36,0,0,1,106,12.9a2.7,2.7,0,0,1,1.9-.7,6,6,0,0,1,2.77.9l-.92,1.69a3.66,3.66,0,0,0-1.74-.65c-.39,0-.59.16-.59.47a.49.49,0,0,0,.22.4,3.28,3.28,0,0,0,.79.37,3.79,3.79,0,0,1,1.55.9,1.84,1.84,0,0,1,.49,1.32,2.49,2.49,0,0,1-.77,1.88,2.71,2.71,0,0,1-2,.74,5.27,5.27,0,0,1-2.76-.91Z"/><path class="cls-2" d="M111.82,12.46h2.38V17.3a1.06,1.06,0,0,0,.17.63.58.58,0,0,0,.48.25c.46,0,.69-.34.69-1V12.46h2.37v4.36a3.73,3.73,0,0,1-.77,2.54,3.44,3.44,0,0,1-4.6,0,3.49,3.49,0,0,1-.72-2.25Z"/><path class="cls-2" d="M122,12.46v1h0a2.43,2.43,0,0,1,2-1.26,1.55,1.55,0,0,1,1.24.52,2.05,2.05,0,0,1,.47,1.41V20h-2.38V15.35a1,1,0,0,0-.18-.63.55.55,0,0,0-.47-.25c-.51,0-.76.32-.76,1V20h-2.37V12.46Z"/><path class="cls-2" d="M131.32,8.47h2.36V20H131.3V19h0a2.2,2.2,0,0,1-1.79,1.24,1.91,1.91,0,0,1-1.69-1.09,5.76,5.76,0,0,1-.64-2.93,5.7,5.7,0,0,1,.65-2.91,2,2,0,0,1,1.73-1.08,2.26,2.26,0,0,1,1.79,1.12Zm0,7.69c0-1.23-.3-1.85-.9-1.85s-.93.66-.93,2a3.06,3.06,0,0,0,.25,1.35.77.77,0,0,0,.69.48c.28,0,.49-.17.65-.51A3.44,3.44,0,0,0,131.32,16.16Z"/><path class="cls-2" d="M139.23,20V19h0a3.81,3.81,0,0,1-.84.94,1.54,1.54,0,0,1-1,.3,1.93,1.93,0,0,1-1.71-1.09,6,6,0,0,1-.63-3,5.52,5.52,0,0,1,.64-2.87,1.92,1.92,0,0,1,1.7-1.07,1.58,1.58,0,0,1,1,.28,3.9,3.9,0,0,1,.82.9h0v-.94h2.38V20Zm0-3.8c0-1.25-.3-1.87-.91-1.87s-.92.62-.92,1.87.31,1.95.95,1.95S139.23,17.48,139.23,16.18Z"/><path class="cls-2" d="M146.94,17.68h2c-.38,1.69-1.33,2.54-2.86,2.54a2.68,2.68,0,0,1-2.26-1.09,4.78,4.78,0,0,1-.83-3,4.47,4.47,0,0,1,.83-2.85A2.64,2.64,0,0,1,146,12.2a2.83,2.83,0,0,1,1.61.52,3,3,0,0,1,1.12,1.38,8.29,8.29,0,0,1,.39,2.7h-4c0,1.12.35,1.68.94,1.68a.81.81,0,0,0,.54-.22A1,1,0,0,0,146.94,17.68Zm-1.72-2.17h1.72a2.91,2.91,0,0,0-.22-1.17.64.64,0,0,0-.62-.38.71.71,0,0,0-.68.37A2.5,2.5,0,0,0,145.22,15.51Z"/><path class="cls-2" d="M158.17,17.68h2c-.38,1.69-1.33,2.54-2.86,2.54a2.68,2.68,0,0,1-2.26-1.09,4.78,4.78,0,0,1-.84-3,4.48,4.48,0,0,1,.84-2.85,2.64,2.64,0,0,1,2.21-1.08,2.77,2.77,0,0,1,1.6.52A2.91,2.91,0,0,1,160,14.1a8,8,0,0,1,.4,2.7h-4q.06,1.68.93,1.68a.77.77,0,0,0,.54-.22A.92.92,0,0,0,158.17,17.68Zm-1.72-2.17h1.72a2.91,2.91,0,0,0-.22-1.17.64.64,0,0,0-.62-.38.71.71,0,0,0-.68.37A2.5,2.5,0,0,0,156.45,15.51Z"/><path class="cls-2" d="M165.51,20V19h0a3.81,3.81,0,0,1-.84.94,1.56,1.56,0,0,1-.95.3A1.91,1.91,0,0,1,162,19.14a5.86,5.86,0,0,1-.64-3,5.52,5.52,0,0,1,.65-2.87,1.91,1.91,0,0,1,1.7-1.07,1.57,1.57,0,0,1,.95.28,3.69,3.69,0,0,1,.82.9h0v-.94h2.38V20Zm0-3.8c0-1.25-.31-1.87-.92-1.87s-.92.62-.92,1.87.32,1.95,1,1.95S165.51,17.48,165.51,16.18Z"/><path class="cls-2" d="M173.76,17.68v2a3.06,3.06,0,0,1-1.71.57,2.37,2.37,0,0,1-2-1.1,5.09,5.09,0,0,1-.76-3A4.86,4.86,0,0,1,170,13.3a2.41,2.41,0,0,1,2-1.1,2.93,2.93,0,0,1,1.71.61v1.95a1.87,1.87,0,0,0-.87-.25A1.09,1.09,0,0,0,172,15a1.91,1.91,0,0,0-.35,1.23,2.08,2.08,0,0,0,.34,1.27,1.1,1.1,0,0,0,.93.47A1.93,1.93,0,0,0,173.76,17.68Z"/><path class="cls-2" d="M175.16,8.47h2.37v5h0a2.48,2.48,0,0,1,2-1.21,1.59,1.59,0,0,1,1.27.53,2.29,2.29,0,0,1,.45,1.51V20h-2.38V15.4a1.14,1.14,0,0,0-.17-.69.56.56,0,0,0-.49-.25c-.49,0-.74.33-.74,1V20h-2.37Z"/><path class="cls-2" d="M187.46,10.46h2.38v2h.92v2h-.94V20h-2.36V14.42h-.9v-2h.9Z"/><path class="cls-2" d="M192,10.21A1.26,1.26,0,0,1,193.22,9a1.2,1.2,0,0,1,.89.37,1.24,1.24,0,0,1,0,1.77,1.22,1.22,0,0,1-1.77,0A1.18,1.18,0,0,1,192,10.21Zm.06,2.25h2.38V20H192Z"/><path class="cls-2" d="M198.65,12.46v.93a2.81,2.81,0,0,1,2.06-1.19,1.58,1.58,0,0,1,1.63,1.3,5,5,0,0,1,1.07-1,2.06,2.06,0,0,1,1.15-.31c1.11,0,1.66.77,1.66,2.32V20h-2.38V15.54c0-.72-.23-1.08-.7-1.08s-.72.35-.72,1.07V20H200V15.41a1.14,1.14,0,0,0-.19-.68.58.58,0,0,0-.49-.27.6.6,0,0,0-.52.26,1.22,1.22,0,0,0-.19.71V20h-2.37V12.46Z"/><path class="cls-2" d="M211.5,17.68h2c-.38,1.69-1.33,2.54-2.86,2.54a2.68,2.68,0,0,1-2.26-1.09,4.78,4.78,0,0,1-.84-3,4.48,4.48,0,0,1,.84-2.85,2.64,2.64,0,0,1,2.21-1.08,2.77,2.77,0,0,1,1.6.52,2.91,2.91,0,0,1,1.12,1.38,8,8,0,0,1,.4,2.7h-4q.06,1.68.93,1.68a.77.77,0,0,0,.54-.22A.92.92,0,0,0,211.5,17.68Zm-1.72-2.17h1.72a2.91,2.91,0,0,0-.22-1.17.64.64,0,0,0-.62-.38.71.71,0,0,0-.68.37A2.5,2.5,0,0,0,209.78,15.51Z"/><path class="cls-2" d="M218.45,12.46h2.35l.6,2c.2.68.38,1.35.53,2h0a12.25,12.25,0,0,1,.31-1.34l.79-2.63h2.38l-3.21,10.62h-2.37l1-3.2Z"/><path class="cls-2" d="M229.34,12.2a3,3,0,0,1,2.48,1.08,4.84,4.84,0,0,1,.84,3,4.37,4.37,0,0,1-.88,2.92,3,3,0,0,1-2.44,1A3,3,0,0,1,227,19.2a4.44,4.44,0,0,1-.87-2.9,4.9,4.9,0,0,1,.83-3A2.89,2.89,0,0,1,229.34,12.2Zm0,5.93a.74.74,0,0,0,.69-.44,3.28,3.28,0,0,0,.24-1.48,3.3,3.3,0,0,0-.23-1.45.77.77,0,0,0-1.37,0,3.16,3.16,0,0,0-.24,1.48C228.45,17.49,228.75,18.13,229.36,18.13Z"/><path class="cls-2" d="M234,12.46h2.38V17.3a1.07,1.07,0,0,0,.18.63.57.57,0,0,0,.48.25c.45,0,.68-.34.68-1V12.46h2.38v4.36a3.78,3.78,0,0,1-.77,2.54,3.44,3.44,0,0,1-4.6,0,3.49,3.49,0,0,1-.73-2.25Z"/><path class="cls-2" d="M242.28,8.75h2V9.82a4.26,4.26,0,0,1-1.22,3.33l-.69-.77a3,3,0,0,0,.74-1.62h-.83Z"/><path class="cls-2" d="M249.21,8.47h2.37V20H249.2V19h0a2.18,2.18,0,0,1-1.79,1.24,1.9,1.9,0,0,1-1.68-1.09,5.76,5.76,0,0,1-.64-2.93,5.6,5.6,0,0,1,.65-2.91,2,2,0,0,1,1.72-1.08,2.25,2.25,0,0,1,1.79,1.12Zm0,7.69c0-1.23-.3-1.85-.9-1.85s-.92.66-.92,2a2.93,2.93,0,0,0,.25,1.35.77.77,0,0,0,.69.48.73.73,0,0,0,.65-.51A3.63,3.63,0,0,0,249.21,16.16Z"/><path class="cls-2" d="M257.56,8.47h2.37V20h-2.37Z"/><path class="cls-2" d="M261.81,10.21a1.21,1.21,0,0,1,.36-.89,1.26,1.26,0,0,1,1.78,0,1.24,1.24,0,0,1,0,1.77,1.22,1.22,0,0,1-1.77,0A1.18,1.18,0,0,1,261.81,10.21Zm.06,2.25h2.38V20h-2.38Z"/><path class="cls-2" d="M266.12,8.47h2.37v6.67h0l1.62-2.68H273l-2.41,3.37L273,20H270.3l-1.77-3.67h0V20h-2.37Z"/><path class="cls-2" d="M277.22,17.68h2c-.38,1.69-1.33,2.54-2.86,2.54a2.68,2.68,0,0,1-2.26-1.09,4.78,4.78,0,0,1-.84-3,4.48,4.48,0,0,1,.84-2.85,2.64,2.64,0,0,1,2.21-1.08,2.77,2.77,0,0,1,1.6.52A3,3,0,0,1,279,14.1a7.78,7.78,0,0,1,.39,2.7h-4q0,1.68.93,1.68a.81.81,0,0,0,.54-.22A.92.92,0,0,0,277.22,17.68Zm-1.73-2.17h1.73a2.91,2.91,0,0,0-.22-1.17.64.64,0,0,0-.62-.38.7.7,0,0,0-.68.37A2.48,2.48,0,0,0,275.49,15.51Z"/><path class="cls-2" d="M74.66,30.54H77v2H78v2H77v5.54H74.66V34.51h-.89v-2h.89Z"/><path class="cls-2" d="M82,32.28a3,3,0,0,1,2.48,1.09,4.79,4.79,0,0,1,.85,3,4.41,4.41,0,0,1-.88,2.92,3.05,3.05,0,0,1-2.45,1,2.91,2.91,0,0,1-2.37-1,4.37,4.37,0,0,1-.88-2.9,4.79,4.79,0,0,1,.84-3A2.85,2.85,0,0,1,82,32.28Zm0,5.93a.77.77,0,0,0,.7-.43A3.49,3.49,0,0,0,83,36.3a3.32,3.32,0,0,0-.23-1.46.73.73,0,0,0-.69-.41.75.75,0,0,0-.68.4,3.16,3.16,0,0,0-.24,1.48C81.11,37.58,81.41,38.21,82,38.21Z"/><path class="cls-2" d="M93.2,32.55v.92a2.8,2.8,0,0,1,2.06-1.19,1.57,1.57,0,0,1,1.62,1.3,4.64,4.64,0,0,1,1.07-1,2.1,2.1,0,0,1,1.16-.32c1.1,0,1.65.78,1.65,2.32v5.46H98.39V35.63c0-.73-.24-1.09-.71-1.09S97,34.9,97,35.61v4.45H94.59V35.5a1.22,1.22,0,0,0-.19-.69.6.6,0,0,0-.5-.27.62.62,0,0,0-.51.26,1.17,1.17,0,0,0-.19.71v4.55H90.83V32.55Z"/><path class="cls-2" d="M105.34,32.28a3,3,0,0,1,2.48,1.09,4.79,4.79,0,0,1,.85,3,4.36,4.36,0,0,1-.89,2.92,3,3,0,0,1-2.44,1,2.91,2.91,0,0,1-2.37-1,4.37,4.37,0,0,1-.88-2.9,4.79,4.79,0,0,1,.84-3A2.85,2.85,0,0,1,105.34,32.28Zm0,5.93a.77.77,0,0,0,.7-.43,3.49,3.49,0,0,0,.23-1.48,3.32,3.32,0,0,0-.23-1.46.73.73,0,0,0-.69-.41.75.75,0,0,0-.68.4,3.16,3.16,0,0,0-.24,1.48C104.45,37.58,104.75,38.21,105.36,38.21Z"/><path class="cls-2" d="M109.2,32.55h2.32l.94,4.07h0l.94-4.07h2.35l-2.33,7.51h-1.93Z"/><path class="cls-2" d="M120.09,37.77h2c-.38,1.69-1.33,2.53-2.86,2.53A2.69,2.69,0,0,1,117,39.21a4.77,4.77,0,0,1-.83-3,4.52,4.52,0,0,1,.83-2.86,2.66,2.66,0,0,1,2.21-1.08,2.9,2.9,0,0,1,1.61.52,3.09,3.09,0,0,1,1.12,1.38,8.32,8.32,0,0,1,.39,2.71h-4c0,1.11.35,1.67.94,1.67a.76.76,0,0,0,.54-.22A1,1,0,0,0,120.09,37.77Zm-1.72-2.18h1.72a2.78,2.78,0,0,0-.22-1.17.66.66,0,0,0-.62-.38.71.71,0,0,0-.68.37A2.63,2.63,0,0,0,118.37,35.59Z"/><path class="cls-2" d="M128.08,30.54h2.38v2h.93v2h-.94v5.54h-2.37V34.51h-.89v-2h.89Z"/><path class="cls-2" d="M135.42,32.28a3,3,0,0,1,2.48,1.09,4.79,4.79,0,0,1,.85,3,4.41,4.41,0,0,1-.88,2.92,3.05,3.05,0,0,1-2.45,1,2.91,2.91,0,0,1-2.37-1,4.37,4.37,0,0,1-.88-2.9,4.79,4.79,0,0,1,.84-3A2.85,2.85,0,0,1,135.42,32.28Zm0,5.93a.77.77,0,0,0,.7-.43,3.49,3.49,0,0,0,.23-1.48,3.32,3.32,0,0,0-.23-1.46.73.73,0,0,0-.69-.41.75.75,0,0,0-.68.4,3.16,3.16,0,0,0-.24,1.48C134.53,37.58,134.83,38.21,135.44,38.21Z"/><path class="cls-2" d="M144.54,30.54h2.38v2h.92v2h-.94v5.54h-2.36V34.51h-.9v-2h.9Z"/><path class="cls-2" d="M149.05,28.55h2.37v5h0a2.51,2.51,0,0,1,2-1.22,1.56,1.56,0,0,1,1.27.54,2.21,2.21,0,0,1,.46,1.5v5.72h-2.38V35.48a1.16,1.16,0,0,0-.18-.69.54.54,0,0,0-.48-.25c-.5,0-.75.33-.75,1v4.52h-2.37Z"/><path class="cls-2" d="M160.49,37.77h2a2.78,2.78,0,0,1-2.86,2.53,2.7,2.7,0,0,1-2.27-1.09,4.83,4.83,0,0,1-.83-3,4.58,4.58,0,0,1,.83-2.86,2.67,2.67,0,0,1,2.22-1.08,2.87,2.87,0,0,1,1.6.52,3,3,0,0,1,1.12,1.38,8.32,8.32,0,0,1,.39,2.71h-4c0,1.11.34,1.67.93,1.67a.76.76,0,0,0,.54-.22A1,1,0,0,0,160.49,37.77Zm-1.73-2.18h1.73a3,3,0,0,0-.22-1.17.67.67,0,0,0-.63-.38.7.7,0,0,0-.67.37A2.48,2.48,0,0,0,158.76,35.59Z"/><path class="cls-2" d="M170.55,32.55v1h0a2.42,2.42,0,0,1,2-1.27,1.55,1.55,0,0,1,1.24.52,2.06,2.06,0,0,1,.47,1.42v5.82H172V35.43a1,1,0,0,0-.18-.63.57.57,0,0,0-.47-.24c-.5,0-.76.31-.76.95v4.55h-2.37V32.55Z"/><path class="cls-2" d="M179.62,37.77h2a2.78,2.78,0,0,1-2.86,2.53,2.7,2.7,0,0,1-2.27-1.09,4.83,4.83,0,0,1-.83-3,4.58,4.58,0,0,1,.83-2.86,2.67,2.67,0,0,1,2.22-1.08,2.87,2.87,0,0,1,1.6.52,3,3,0,0,1,1.12,1.38,8.32,8.32,0,0,1,.39,2.71h-4c0,1.11.34,1.67.93,1.67a.76.76,0,0,0,.54-.22A1,1,0,0,0,179.62,37.77Zm-1.73-2.18h1.73a3,3,0,0,0-.22-1.17.67.67,0,0,0-.63-.38.7.7,0,0,0-.67.37A2.48,2.48,0,0,0,177.89,35.59Z"/><path class="cls-2" d="M182.47,32.55h2.71a16.39,16.39,0,0,1,1,2.41h0a13,13,0,0,1,1-2.41H190l-2.41,3.78L190,40.06h-2.67c-.53-1.12-.89-2-1.1-2.51h0a5.64,5.64,0,0,1-.48,1.24l-.59,1.27h-2.63l2.37-3.7Z"/><path class="cls-2" d="M191.36,30.54h2.38v2h.92v2h-.94v5.54h-2.36V34.51h-.9v-2h.9Z"/><path class="cls-2" d="M200.25,37.64a4.21,4.21,0,0,0,1.76.72.74.74,0,0,0,.49-.16.44.44,0,0,0,.19-.36.36.36,0,0,0-.16-.33,11.28,11.28,0,0,0-1.23-.58,3,3,0,0,1-1.22-.88,2.1,2.1,0,0,1-.38-1.27,2.34,2.34,0,0,1,.75-1.79,2.67,2.67,0,0,1,1.91-.71,6,6,0,0,1,2.76.9l-.91,1.69a3.65,3.65,0,0,0-1.75-.65c-.39,0-.58.16-.58.47a.49.49,0,0,0,.21.4,3.1,3.1,0,0,0,.79.37,3.84,3.84,0,0,1,1.56.9,1.89,1.89,0,0,1,.48,1.33,2.51,2.51,0,0,1-.76,1.88,2.74,2.74,0,0,1-2,.73,5.27,5.27,0,0,1-2.77-.91Z"/><path class="cls-2" d="M206.67,30.54h2.38v2H210v2H209v5.54h-2.36V34.51h-.89v-2h.89Z"/><path class="cls-2" d="M214.71,37.77h2c-.39,1.69-1.34,2.53-2.86,2.53a2.7,2.7,0,0,1-2.27-1.09,4.83,4.83,0,0,1-.83-3,4.58,4.58,0,0,1,.83-2.86,2.67,2.67,0,0,1,2.22-1.08,2.87,2.87,0,0,1,1.6.52,3.09,3.09,0,0,1,1.12,1.38,8.32,8.32,0,0,1,.39,2.71h-4c0,1.11.34,1.67.93,1.67a.76.76,0,0,0,.54-.22A.91.91,0,0,0,214.71,37.77ZM213,35.59h1.72a2.78,2.78,0,0,0-.22-1.17.65.65,0,0,0-.62-.38.72.72,0,0,0-.68.37A2.63,2.63,0,0,0,213,35.59Z"/><path class="cls-2" d="M220.68,32.55v1h0a2.22,2.22,0,0,1,1.79-1.17,2,2,0,0,1,1.72,1.09,5.77,5.77,0,0,1,.65,2.94,5.43,5.43,0,0,1-.67,2.88,2,2,0,0,1-1.7,1.09,2,2,0,0,1-1.79-1.26h0v4.09h-2.37V32.55Zm1.83,3.73c0-1.24-.31-1.85-.94-1.85s-.89.62-.89,1.87.3,1.92.89,1.92S222.51,37.58,222.51,36.28Z"/></g></g></g></svg>