<?xml version="1.0" encoding="utf-8"?>
<!-- Generator: Adobe Illustrator 22.1.0, SVG Export Plug-In . SVG Version: 6.00 Build 0)  -->
<svg version="1.1" id="Layer_1" xmlns="http://www.w3.org/2000/svg" xmlns:xlink="http://www.w3.org/1999/xlink" x="0px" y="0px"
	 viewBox="0 0 178.4 32.9" style="enable-background:new 0 0 178.4 32.9;" xml:space="preserve">
<style type="text/css">
	.st0{fill:#FCFAFC;}
	.st1{fill:#C180B8;}
</style>
<path class="st0" d="M172.4,32.9H6.7c-3.5,0-6.3-2.9-6.3-6.3V6.3C0.3,2.8,3.2,0,6.7,0h165.7c3.5,0,6.3,2.8,6.3,6.3v20.2
	C178.7,30,175.9,32.9,172.4,32.9z"/>
<title>inst2</title>
<g id="Layer_2_1_">
	<g id="Layer_9">
		<g id="inst2">
			<path class="st1" d="M26.3,10.4v1.9c-0.3,0.1-0.7,0.2-1,0.2c-1,0-1.9-0.4-2.5-1.2c-0.7-0.9-1-2-1-3.1c0-1.1,0.3-2.1,1-2.9
				c0.6-0.7,1.5-1.2,2.5-1.1c0.4,0,0.7,0,1.1,0.2v1.9c-0.3-0.1-0.6-0.2-1-0.2c-0.5,0-0.9,0.2-1.2,0.6c-0.3,0.5-0.5,1-0.5,1.6
				c0,0.6,0.1,1.2,0.5,1.6c0.3,0.4,0.7,0.6,1.2,0.6C25.7,10.6,26,10.5,26.3,10.4z"/>
			<path class="st1" d="M27.3,4H29v8.3h-1.7V4z"/>
			<path class="st1" d="M30.3,5.2c0-0.2,0.1-0.5,0.3-0.6c0.3-0.4,0.9-0.4,1.3,0c0,0,0,0,0,0C32,4.7,32.1,5,32.1,5.2
				c0,0.2-0.1,0.5-0.3,0.6c-0.2,0.2-0.4,0.3-0.6,0.3c-0.2,0-0.5-0.1-0.6-0.3C30.4,5.7,30.3,5.4,30.3,5.2z M30.4,6.8h1.7v5.4h-1.7
				V6.8z"/>
			<path class="st1" d="M36.4,10.6V12c-0.4,0.3-0.8,0.4-1.2,0.4c-0.6,0-1.1-0.3-1.5-0.8c-0.4-0.7-0.6-1.4-0.5-2.2
				c0-0.7,0.2-1.5,0.6-2.1c0.3-0.5,0.9-0.8,1.5-0.8c0.4,0,0.9,0.2,1.2,0.4v1.4c-0.2-0.1-0.4-0.2-0.6-0.2c-0.3,0-0.5,0.1-0.7,0.3
				c-0.2,0.3-0.3,0.6-0.3,0.9c0,0.3,0.1,0.6,0.3,0.9c0.1,0.2,0.4,0.3,0.7,0.3C36,10.8,36.2,10.7,36.4,10.6z"/>
			<path class="st1" d="M37.4,4h1.7v4.8l0,0l1.2-1.9h2l-1.7,2.4l1.8,3h-2l-1.3-2.7l0,0v2.6h-1.7V4z"/>
			<path class="st1" d="M48.8,12.2v-0.7l0,0c-0.2,0.3-0.4,0.5-0.6,0.7c-0.2,0.1-0.4,0.2-0.7,0.2c-0.5,0-1-0.3-1.2-0.8
				c-0.3-0.7-0.5-1.4-0.5-2.1c0-0.7,0.1-1.4,0.5-2.1C46.5,7,47,6.7,47.5,6.7c0.2,0,0.5,0.1,0.7,0.2c0.2,0.2,0.4,0.4,0.6,0.7l0,0V6.8
				h1.7v5.4H48.8z M48.8,9.5c0-0.9-0.2-1.3-0.7-1.3c-0.4,0-0.7,0.4-0.7,1.3c0,0.9,0.2,1.4,0.7,1.4S48.8,10.4,48.8,9.5z"/>
			<path class="st1" d="M53.5,6.8v0.8l0,0C53.8,7,54.4,6.7,55,6.7c0.3,0,0.7,0.1,0.9,0.4c0.2,0.3,0.3,0.7,0.3,1v4.2h-1.7V8.9
				c0-0.2,0-0.3-0.1-0.5c-0.1-0.1-0.2-0.2-0.3-0.2c-0.4,0-0.5,0.2-0.5,0.7v3.3h-1.7V6.8H53.5z"/>
			<path class="st1" d="M60.2,4h1.7v8.3h-1.7v-0.7l0,0c-0.2,0.5-0.7,0.8-1.3,0.9c-0.5,0-1-0.3-1.2-0.8c-0.3-0.7-0.5-1.4-0.5-2.1
				c0-0.7,0.1-1.5,0.5-2.1c0.2-0.5,0.7-0.8,1.2-0.8c0.5,0,1,0.3,1.3,0.8L60.2,4z M60.2,9.5c0-0.9-0.2-1.3-0.6-1.3
				c-0.4,0-0.7,0.5-0.7,1.4c0,0.3,0,0.7,0.2,1c0.1,0.2,0.3,0.3,0.5,0.3c0.2,0,0.3-0.1,0.5-0.4C60.1,10.2,60.2,9.8,60.2,9.5z"/>
			<path class="st1" d="M68.9,4h1.7v8.3h-1.7v-0.7l0,0c-0.2,0.5-0.7,0.8-1.3,0.9c-0.5,0-1-0.3-1.2-0.8c-0.4-0.7-0.6-1.4-0.5-2.2
				c0-0.7,0.1-1.5,0.5-2.1C66.5,7,67,6.7,67.6,6.7c0.5,0,1,0.3,1.3,0.8V4z M68.9,9.5c0-0.9-0.2-1.3-0.6-1.3s-0.7,0.5-0.7,1.4
				c0,0.3,0,0.7,0.2,1c0.1,0.2,0.3,0.3,0.5,0.3c0.2,0,0.4-0.2,0.5-0.4C68.8,10.2,68.9,9.8,68.9,9.5z"/>
			<path class="st1" d="M73.5,6.8v0.9l0,0c0.4-0.7,0.8-1.1,1.3-1.1c0.1,0,0.2,0,0.3,0v1.7c-0.2,0-0.4-0.1-0.6-0.1
				c-0.6,0-0.9,0.4-0.9,1.2v2.7h-1.7V6.8H73.5z"/>
			<path class="st1" d="M78.7,12.2v-0.7l0,0c-0.2,0.3-0.4,0.5-0.6,0.7c-0.2,0.1-0.4,0.2-0.7,0.2c-0.5,0-1-0.3-1.2-0.8
				c-0.3-0.7-0.5-1.4-0.5-2.2c0-0.7,0.1-1.4,0.5-2.1c0.2-0.5,0.7-0.8,1.2-0.8c0.2,0,0.5,0.1,0.7,0.2c0.2,0.2,0.4,0.4,0.6,0.7l0,0
				V6.8h1.7v5.4H78.7z M78.7,9.5c0-0.9-0.2-1.3-0.7-1.3s-0.7,0.4-0.7,1.3c0,0.9,0.2,1.4,0.7,1.4S78.7,10.4,78.7,9.5z"/>
			<path class="st1" d="M84.4,12.3v-0.8c-0.2,0.4-0.7,0.7-1.2,0.8c-0.6,0-1.1-0.3-1.4-0.8c-0.4-0.6-0.5-1.3-0.5-2.1
				c0-0.7,0.1-1.4,0.5-2c0.4-0.7,1.3-0.9,2-0.6c0.2,0.1,0.4,0.3,0.6,0.6l0,0V6.8h1.7v5c0,0.4-0.1,0.9-0.2,1.3
				c-0.2,0.4-0.5,0.8-0.9,1c-0.4,0.2-0.9,0.4-1.4,0.4c-0.5,0-1-0.1-1.4-0.4c-0.5-0.3-0.8-0.8-0.8-1.3H83c0.1,0.3,0.4,0.4,0.7,0.4
				c0.2,0,0.4-0.1,0.6-0.3C84.3,12.7,84.4,12.5,84.4,12.3z M84.4,9.4c0-0.9-0.2-1.3-0.7-1.3c-0.2,0-0.4,0.1-0.5,0.3
				C83.1,8.7,83,9,83.1,9.3c0,1,0.2,1.5,0.7,1.5C84.2,10.8,84.4,10.3,84.4,9.4z"/>
			<path class="st1" d="M93.1,12.2v-0.7l0,0c-0.2,0.3-0.4,0.5-0.6,0.7c-0.2,0.1-0.4,0.2-0.7,0.2c-0.5,0-1-0.3-1.2-0.8
				c-0.3-0.7-0.5-1.4-0.5-2.1c0-0.7,0.1-1.4,0.5-2.1c0.2-0.5,0.7-0.8,1.2-0.8c0.2,0,0.5,0.1,0.7,0.2c0.2,0.2,0.4,0.4,0.6,0.7l0,0
				V6.8h1.7v5.4H93.1z M93.1,9.5c0-0.9-0.2-1.3-0.7-1.3c-0.4,0-0.7,0.4-0.7,1.3c0,0.9,0.2,1.4,0.7,1.4C92.9,10.9,93.1,10.4,93.1,9.5
				z"/>
			<path class="st1" d="M99.3,10.5c0.4,0.3,0.8,0.4,1.3,0.5c0.1,0,0.2,0,0.3-0.1c0.1-0.1,0.1-0.2,0.1-0.3c0-0.1,0-0.2-0.1-0.2
				c-0.1-0.1-0.4-0.2-0.9-0.4c-0.3-0.1-0.6-0.4-0.9-0.6c-0.2-0.3-0.3-0.6-0.3-0.9c0-0.5,0.2-1,0.5-1.3c0.4-0.4,0.9-0.6,1.4-0.5
				c0.7,0,1.4,0.3,2,0.6l-0.7,1.2c-0.4-0.3-0.8-0.4-1.3-0.5c-0.3,0-0.4,0.1-0.4,0.3c0,0.1,0.1,0.2,0.2,0.3c0.2,0.1,0.4,0.2,0.6,0.3
				c0.4,0.1,0.8,0.3,1.1,0.6c0.2,0.3,0.4,0.6,0.4,1c0,0.5-0.2,1-0.6,1.4c-0.4,0.4-0.9,0.6-1.4,0.5c-0.7,0-1.4-0.3-2-0.7L99.3,10.5z"
				/>
			<path class="st1" d="M105.3,6.8v0.7l0,0c0.3-0.5,0.7-0.8,1.3-0.8c0.5,0,1,0.3,1.2,0.8c0.4,0.7,0.5,1.4,0.5,2.1
				c0,0.7-0.1,1.4-0.5,2.1c-0.2,0.5-0.7,0.7-1.2,0.8c-0.6,0-1.1-0.4-1.3-0.9l0,0v2.9h-1.7V6.8H105.3z M106.7,9.5
				c0-0.9-0.2-1.3-0.7-1.3c-0.5,0-0.6,0.4-0.6,1.3c0,0.9,0.2,1.4,0.6,1.4C106.4,10.9,106.7,10.5,106.7,9.5L106.7,9.5z"/>
			<path class="st1" d="M111.4,6.6c0.7,0,1.3,0.2,1.8,0.8c0.4,0.6,0.7,1.4,0.6,2.2c0,0.8-0.2,1.5-0.6,2.1c-0.4,0.5-1.1,0.8-1.8,0.8
				c-0.7,0-1.3-0.3-1.7-0.8c-0.5-0.6-0.7-1.3-0.6-2.1c0-0.8,0.2-1.5,0.6-2.2C110.1,6.9,110.8,6.6,111.4,6.6z M111.4,10.9
				c0.2,0,0.4-0.1,0.5-0.3c0.1-0.3,0.2-0.7,0.2-1.1c0-0.3,0-0.7-0.1-1c-0.1-0.2-0.3-0.3-0.5-0.3c-0.2,0-0.4,0.1-0.5,0.3
				c-0.1,0.3-0.2,0.7-0.2,1.1C110.8,10.5,111,10.9,111.4,10.9z"/>
			<path class="st1" d="M116.9,6.6c0.7,0,1.3,0.2,1.8,0.8c0.4,0.6,0.7,1.4,0.6,2.2c0.1,0.8-0.2,1.5-0.6,2.1
				c-0.4,0.5-1.1,0.8-1.8,0.8c-0.7,0-1.3-0.3-1.7-0.8c-0.4-0.6-0.7-1.3-0.6-2.1c0-0.8,0.2-1.5,0.6-2.2
				C115.5,6.9,116.2,6.6,116.9,6.6z M116.9,10.9c0.2,0,0.4-0.1,0.5-0.3c0.1-0.3,0.2-0.7,0.2-1.1c0-0.3,0-0.7-0.2-1
				c-0.1-0.2-0.3-0.3-0.5-0.3c-0.2,0-0.4,0.1-0.5,0.3c-0.1,0.3-0.2,0.7-0.2,1.1C116.2,10.5,116.4,10.9,116.9,10.9L116.9,10.9z"/>
			<path class="st1" d="M122,6.8v0.8l0,0c0.3-0.5,0.9-0.9,1.5-0.9c0.3,0,0.7,0.1,0.9,0.4c0.2,0.3,0.4,0.6,0.3,1v4.2H123V8.9
				c0-0.2,0-0.3-0.1-0.5c-0.1-0.1-0.2-0.2-0.3-0.2c-0.4,0-0.5,0.2-0.5,0.7v3.3h-1.7V6.8H122z"/>
			<path class="st1" d="M128.9,4h1.7v3.5l0,0c0.2-0.2,0.4-0.5,0.6-0.6c0.2-0.1,0.5-0.2,0.7-0.2c0.5,0,1,0.3,1.2,0.8
				c0.4,0.7,0.5,1.4,0.5,2.2c0,0.7-0.1,1.4-0.5,2.1c-0.2,0.5-0.7,0.8-1.2,0.8c-0.5,0-1-0.4-1.3-0.9l0,0v0.7h-1.7V4z M131.9,9.5
				c0-0.9-0.2-1.3-0.7-1.3c-0.4,0-0.6,0.4-0.6,1.3c0,0.4,0,0.7,0.2,1.1c0.1,0.2,0.3,0.3,0.5,0.3C131.7,10.9,131.9,10.4,131.9,9.5z"
				/>
			<path class="st1" d="M137.2,10.6h1.4c-0.1,1.1-1,1.9-2.1,1.8c-0.6,0-1.2-0.3-1.6-0.8c-0.4-0.6-0.6-1.4-0.6-2.2
				c0-0.7,0.2-1.5,0.6-2.1c0.4-0.5,1-0.8,1.6-0.8c0.4,0,0.8,0.1,1.2,0.4c0.4,0.2,0.6,0.6,0.8,1c0.2,0.6,0.3,1.3,0.3,1.9h-2.8
				c0,0.8,0.2,1.2,0.7,1.2c0.1,0,0.3-0.1,0.4-0.2C137.1,10.9,137.1,10.7,137.2,10.6z M135.9,9h1.2c0-0.3,0-0.6-0.2-0.8
				c-0.1-0.2-0.3-0.3-0.4-0.3c-0.2,0-0.4,0.1-0.5,0.3C136,8.4,135.9,8.7,135.9,9z"/>
			<path class="st1" d="M139.9,10.5c0.4,0.3,0.8,0.4,1.3,0.5c0.1,0,0.2,0,0.3-0.1c0.1-0.1,0.1-0.2,0.1-0.3c0-0.1,0-0.2-0.1-0.2
				c-0.3-0.1-0.6-0.3-0.9-0.4c-0.3-0.1-0.6-0.4-0.9-0.6c-0.2-0.3-0.3-0.6-0.3-1c0-0.5,0.2-1,0.5-1.3c0.4-0.3,0.9-0.5,1.4-0.5
				c0.7,0,1.4,0.3,2,0.6l-0.6,1.2c-0.4-0.3-0.8-0.4-1.3-0.5c-0.3,0-0.4,0.1-0.4,0.3c0,0.1,0.1,0.2,0.2,0.3c0.2,0.1,0.4,0.2,0.6,0.3
				c0.4,0.1,0.8,0.3,1.1,0.6c0.2,0.3,0.4,0.6,0.4,1c0,0.5-0.2,1-0.5,1.4c-0.4,0.4-0.9,0.6-1.4,0.5c-0.7,0-1.4-0.3-2-0.7L139.9,10.5z
				"/>
			<path class="st1" d="M144.4,5.2c0-0.2,0.1-0.5,0.3-0.6c0.3-0.4,0.9-0.4,1.3,0c0,0,0,0,0,0c0.2,0.2,0.3,0.4,0.3,0.6
				c0,0.2-0.1,0.5-0.3,0.6c-0.2,0.2-0.4,0.3-0.6,0.3c-0.2,0-0.5-0.1-0.6-0.3C144.5,5.7,144.4,5.4,144.4,5.2z M144.4,6.8h1.7v5.4
				h-1.7V6.8z"/>
			<path class="st1" d="M150.2,4h1.7v8.3h-1.7v-0.7l0,0c-0.2,0.5-0.7,0.8-1.3,0.9c-0.5,0-1-0.3-1.2-0.8c-0.3-0.7-0.5-1.4-0.5-2.1
				c0-0.7,0.1-1.5,0.5-2.1c0.2-0.5,0.7-0.8,1.2-0.8c0.5,0,1,0.3,1.3,0.8V4z M150.2,9.5c0-0.9-0.2-1.3-0.6-1.3
				c-0.4,0-0.7,0.5-0.7,1.4c0,0.3,0,0.7,0.2,1c0.1,0.2,0.3,0.3,0.5,0.3c0.2,0,0.3-0.1,0.5-0.4C150.1,10.2,150.2,9.8,150.2,9.5z"/>
			<path class="st1" d="M155.7,10.6h1.4c-0.1,1.1-1,1.9-2.1,1.8c-0.6,0-1.2-0.3-1.6-0.8c-0.4-0.6-0.6-1.4-0.6-2.2
				c0-0.7,0.2-1.5,0.6-2.1c0.4-0.5,1-0.8,1.6-0.8c0.4,0,0.8,0.1,1.2,0.3c0.4,0.3,0.6,0.6,0.8,1c0.2,0.6,0.3,1.3,0.3,1.9h-2.8
				c0,0.8,0.2,1.2,0.7,1.2c0.1,0,0.3-0.1,0.4-0.2C155.6,10.9,155.7,10.7,155.7,10.6z M154.5,9h1.2c0-0.3,0-0.6-0.2-0.8
				c-0.1-0.2-0.3-0.3-0.4-0.3c-0.2,0-0.4,0.1-0.5,0.3C154.5,8.4,154.5,8.7,154.5,9z"/>
			<path class="st1" d="M41.7,21.3h1.7l0.4,1.4c0.2,0.5,0.3,1,0.4,1.5l0,0c0.1-0.5,0.2-0.8,0.2-1l0.6-1.9h1.7l-2.3,7.6h-1.7l0.7-2.3
				L41.7,21.3z"/>
			<path class="st1" d="M49.5,21.1c0.7,0,1.3,0.2,1.8,0.8c0.4,0.6,0.7,1.4,0.6,2.2c0,0.8-0.2,1.5-0.6,2.1c-0.4,0.5-1.1,0.8-1.8,0.8
				c-0.7,0-1.3-0.3-1.7-0.8c-0.5-0.6-0.7-1.3-0.6-2.1c0-0.8,0.2-1.5,0.6-2.2C48.2,21.3,48.9,21.1,49.5,21.1z M49.5,25.4
				c0.2,0,0.4-0.1,0.5-0.3c0.1-0.3,0.2-0.7,0.2-1.1c0-0.4,0-0.7-0.2-1c-0.1-0.2-0.3-0.3-0.5-0.3c-0.2,0-0.4,0.1-0.5,0.3
				c-0.1,0.3-0.2,0.7-0.2,1.1C48.9,24.9,49.1,25.4,49.5,25.4L49.5,25.4z"/>
			<path class="st1" d="M52.9,21.3h1.7v3.5c0,0.2,0,0.3,0.1,0.4c0.1,0.1,0.2,0.2,0.3,0.2c0.3,0,0.5-0.2,0.5-0.8v-3.4h1.7v3.2
				c0,0.7-0.2,1.3-0.6,1.8c-0.4,0.4-1,0.7-1.6,0.6c-0.6,0.1-1.3-0.2-1.7-0.7c-0.4-0.5-0.6-1.1-0.5-1.6V21.3z"/>
			<path class="st1" d="M60.2,21.3v0.9l0,0c0.4-0.7,0.8-1.1,1.3-1.1c0.1,0,0.2,0,0.3,0v1.7c-0.2,0-0.4,0-0.6-0.1
				c-0.6,0-0.9,0.4-0.9,1.2v2.7h-1.7v-5.5H60.2z"/>
			<path class="st1" d="M65.8,25c0.4,0.3,0.8,0.4,1.3,0.5c0.1,0,0.3,0,0.4-0.1c0.1-0.1,0.1-0.2,0.1-0.3c0-0.1,0-0.2-0.1-0.2
				c-0.1,0-0.4-0.2-0.9-0.4c-0.3-0.1-0.7-0.4-0.9-0.6c-0.2-0.3-0.3-0.6-0.3-0.9c0-0.5,0.2-1,0.5-1.3c0.4-0.3,0.9-0.5,1.4-0.5
				c0.7,0.1,1.4,0.3,2,0.7l-0.6,1.2c-0.4-0.3-0.8-0.4-1.3-0.5c-0.3,0-0.4,0.1-0.4,0.3c0,0.1,0.1,0.2,0.2,0.3
				c0.2,0.1,0.4,0.2,0.6,0.3c0.4,0.1,0.8,0.3,1.1,0.6c0.2,0.3,0.4,0.6,0.3,0.9c0,0.5-0.2,1-0.6,1.4c-0.4,0.4-0.9,0.6-1.4,0.5
				c-0.7,0-1.4-0.3-2-0.7L65.8,25z"/>
			<path class="st1" d="M70.2,21.3h1.7v3.5c0,0.2,0,0.3,0.1,0.4c0.1,0.1,0.2,0.2,0.3,0.2c0.3,0,0.5-0.2,0.5-0.8v-3.4h1.7v3.2
				c0,0.7-0.2,1.3-0.6,1.8c-0.4,0.4-1,0.7-1.6,0.6c-0.6,0.1-1.3-0.2-1.7-0.7c-0.4-0.5-0.5-1-0.5-1.6L70.2,21.3z"/>
			<path class="st1" d="M77.6,21.3V22l0,0c0.3-0.5,0.9-0.9,1.5-0.9c0.3,0,0.7,0.1,0.9,0.4c0.2,0.3,0.4,0.6,0.3,1v4.2h-1.7v-3.4
				c0-0.2,0-0.3-0.1-0.5c-0.1-0.1-0.2-0.2-0.3-0.2c-0.4,0-0.5,0.2-0.5,0.7v3.3h-1.7v-5.5H77.6z"/>
			<path class="st1" d="M84.3,18.4H86v8.4h-1.7V26l0,0c-0.2,0.5-0.7,0.8-1.3,0.9c-0.5,0-1-0.3-1.2-0.8c-0.3-0.6-0.5-1.4-0.5-2.1
				c0-0.7,0.1-1.5,0.5-2.1c0.2-0.5,0.7-0.8,1.2-0.8c0.5,0,1,0.3,1.3,0.8L84.3,18.4z M84.3,23.9c0-0.9-0.2-1.3-0.6-1.3
				c-0.4,0-0.7,0.5-0.7,1.4c0,0.3,0,0.7,0.2,1c0.1,0.2,0.3,0.3,0.5,0.3c0.2,0,0.4-0.2,0.5-0.4C84.2,24.6,84.3,24.3,84.3,23.9
				L84.3,23.9z"/>
			<path class="st1" d="M90,26.7V26l0,0c-0.2,0.3-0.4,0.5-0.6,0.7c-0.2,0.1-0.4,0.2-0.7,0.2c-0.5,0-1-0.3-1.2-0.8
				C87.1,25.5,87,24.7,87,24c0-0.7,0.1-1.4,0.5-2.1c0.2-0.5,0.7-0.8,1.2-0.8c0.2,0,0.5,0.1,0.7,0.2c0.2,0.2,0.4,0.4,0.6,0.6l0,0
				v-0.7h1.7v5.4H90z M90,24c0-0.9-0.2-1.4-0.7-1.4c-0.4,0-0.7,0.4-0.7,1.4c0,0.9,0.2,1.4,0.7,1.4C89.8,25.4,90,24.9,90,24L90,24z"
				/>
			<path class="st1" d="M95.5,25H97c-0.1,1.1-1,1.9-2.1,1.8c-0.6,0-1.2-0.3-1.6-0.8c-0.4-0.6-0.6-1.4-0.6-2.2c0-0.7,0.2-1.5,0.6-2.1
				c0.4-0.5,1-0.8,1.6-0.8c0.4,0,0.8,0.1,1.2,0.4c0.4,0.2,0.6,0.6,0.8,1c0.2,0.6,0.3,1.3,0.3,1.9h-2.9c0,0.8,0.3,1.2,0.7,1.2
				c0.1,0,0.3-0.1,0.4-0.2C95.4,25.4,95.5,25.2,95.5,25z M94.3,23.5h1.2c0-0.3-0.1-0.6-0.2-0.8c-0.1-0.2-0.3-0.3-0.4-0.3
				c-0.2,0-0.4,0.1-0.5,0.3C94.3,22.9,94.3,23.2,94.3,23.5z"/>
			<path class="st1" d="M101.3,19.8h1.7v1.4h0.7v1.4H103v4h-1.7v-4h-0.6v-1.4h0.6L101.3,19.8z"/>
			<path class="st1" d="M106.6,21.1c0.7,0,1.3,0.2,1.8,0.8c0.4,0.6,0.7,1.4,0.6,2.2c0,0.8-0.2,1.5-0.6,2.1c-0.4,0.5-1.1,0.8-1.8,0.8
				c-0.7,0-1.3-0.3-1.7-0.8c-0.5-0.6-0.7-1.3-0.6-2.1c0-0.8,0.2-1.5,0.6-2.2C105.2,21.3,105.9,21.1,106.6,21.1z M106.6,25.4
				c0.2,0,0.4-0.1,0.5-0.3c0.1-0.3,0.2-0.7,0.2-1.1c0-0.4,0-0.7-0.2-1c-0.1-0.2-0.3-0.3-0.5-0.3c-0.2,0-0.4,0.1-0.5,0.3
				c-0.1,0.3-0.2,0.7-0.2,1.1C105.9,24.9,106.1,25.4,106.6,25.4L106.6,25.4z"/>
			<path class="st1" d="M115.5,25h1.4c-0.1,1.1-1,1.9-2.1,1.8c-0.6,0-1.2-0.3-1.6-0.8c-0.4-0.6-0.6-1.4-0.6-2.2
				c0-0.7,0.2-1.5,0.6-2.1c0.4-0.5,1-0.8,1.6-0.8c0.4,0,0.8,0.1,1.2,0.4c0.4,0.2,0.6,0.6,0.8,1c0.2,0.6,0.3,1.3,0.3,1.9h-2.9
				c0,0.8,0.3,1.2,0.7,1.2c0.1,0,0.3-0.1,0.4-0.2C115.4,25.4,115.4,25.2,115.5,25z M114.2,23.5h1.2c0-0.3-0.1-0.6-0.2-0.8
				c-0.1-0.2-0.3-0.3-0.4-0.3c-0.2,0-0.4,0.1-0.5,0.3C114.2,22.9,114.2,23.2,114.2,23.5z"/>
			<path class="st1" d="M119.8,21.3V22l0,0c0.3-0.5,0.9-0.9,1.5-0.9c0.3,0,0.7,0.1,0.9,0.4c0.2,0.3,0.4,0.6,0.3,1v4.2h-1.7v-3.4
				c0-0.2,0-0.3-0.1-0.5c-0.1-0.1-0.2-0.2-0.3-0.2c-0.4,0-0.5,0.2-0.5,0.7v3.3H118v-5.5H119.8z"/>
			<path class="st1" d="M123.7,19.7c0-0.2,0.1-0.5,0.3-0.6c0.4-0.4,0.9-0.4,1.3,0c0.4,0.4,0.4,0.9,0,1.3l0,0
				c-0.2,0.2-0.4,0.3-0.6,0.3c-0.2,0-0.5-0.1-0.6-0.3C123.8,20.1,123.7,19.9,123.7,19.7z M123.8,21.3h1.7v7.6h-1.7V21.3z"/>
			<path class="st1" d="M128.9,21.1c0.7,0,1.3,0.2,1.8,0.8c0.4,0.6,0.7,1.4,0.6,2.2c0,0.8-0.2,1.5-0.6,2.1c-0.4,0.5-1.1,0.8-1.8,0.8
				c-0.7,0-1.3-0.3-1.7-0.8c-0.5-0.6-0.7-1.3-0.6-2.1c0-0.8,0.2-1.5,0.6-2.2C127.6,21.3,128.2,21.1,128.9,21.1z M128.9,25.4
				c0.2,0,0.4-0.1,0.5-0.3c0.1-0.3,0.2-0.7,0.2-1.1c0-0.4,0-0.7-0.2-1c-0.1-0.2-0.3-0.3-0.5-0.3c-0.2,0-0.4,0.1-0.5,0.3
				c-0.1,0.3-0.2,0.7-0.2,1.1C128.2,24.9,128.5,25.4,128.9,25.4z"/>
			<path class="st1" d="M131.5,21.3h1.7l0.4,1.4c0.2,0.5,0.3,1,0.4,1.5l0,0c0.1-0.5,0.2-0.8,0.2-1l0.6-1.9h1.7l-2.3,7.6h-1.7
				l0.7-2.3L131.5,21.3z"/>
			<path class="st1" d="M137.5,25.9c0-0.3,0.1-0.5,0.3-0.7c0.4-0.4,1-0.4,1.4,0c0.4,0.4,0.4,1,0,1.4c0,0,0,0,0,0
				c-0.4,0.4-1,0.4-1.4,0c0,0,0,0,0,0C137.6,26.4,137.5,26.2,137.5,25.9z M137.6,18.8h1.7v5.6h-1.7V18.8z"/>
		</g>
	</g>
</g>
</svg>
