<svg xmlns="http://www.w3.org/2000/svg" viewBox="0 0 36.99 30.88"><defs><style>.cls-1{fill:#fff;}.cls-2{fill:#e8e8e8;}.cls-3{fill:#f7e597;}.cls-4{fill:#efda81;}.cls-5{fill:#f4ebc9;}</style></defs><title>Asset 16</title><g id="Layer_2" data-name="Layer 2"><g id="plainic"><g id="bowl"><path id="Bowl-2" data-name="Bowl" class="cls-1" d="M18.49,17.77C10.94,17.55,0,15.13,0,15.13s2.44,7.15,6.39,8.78a54.91,54.91,0,0,0,8.32,2.53l0,1.68a26.74,26.74,0,0,0-5.07,1.77,58.91,58.91,0,0,0,8.72,1h.17c5-.37,8.72-1,8.72-1a26.78,26.78,0,0,0-5.08-1.77l.05-1.68a54.55,54.55,0,0,0,8.32-2.53c4-1.63,6.4-8.78,6.4-8.78S26.05,17.55,18.49,17.77Z"/><path class="cls-2" d="M0,15.13s6.2,1.21,7.17,1.36-1.59,3.87,4.66,6.22,4.28,3.15,4.28,3.15l0,2.94-3.83,1.53-2.62-.44a11.68,11.68,0,0,1,4.42-1.84V26.3s-7.22-1.7-8.62-2.87S2.67,22,0,15.13Z"/></g><g id="plainic-2" data-name="plainic"><path class="cls-3" d="M18.94,2.29s-.16-.9-.73-.93-1.9,1.72.46,3,3.63.11,5,2.35c0,0,.64,1.08-.06,1.49,2.76.05,4.09,2.62,3.09,3.59,2.22-.87,2.83,3,.38,3.33,2.55,0,3,3-.28,3.8S15.69,21.73,7.67,17c0,0-1.06-3.11,1.57-3-1.42-.78-.17-3.52,1.87-3.31-1.85-1.1.65-3.48,1.72-3.29,0,0,.69-.29-.38-1.06S14.59-1.36,17.73.24A1.89,1.89,0,0,1,18.94,2.29Z"/><path class="cls-4" d="M22.28,5s3.87,1,2.12,3c2.94.22,4,2.17,3.07,3.44,1.83-.27,2.73,2.43.3,3.35,2.48-.37,2.42,3.35-.75,4,2.11-1.91,3.09-3.61-2-2.84s-9.9.71-13.17-.58c0,0,6,1.72,15.34-.49.83-.93,1.68-2.59-.78-2.25s-8.62.85-14.1-1.59c0,0,4.74,2,14.19.67.76-.87.63-2.86-2.22-3s-4-.07-6.13-1.16c0,0,4.17.65,5-.59s-1.95-1.4-3.48-2.11C17.25,3.78,17.4,3.08,17.4,3.08S20.31,4.87,22.28,5Z"/><path class="cls-5" d="M19.86,5.8c-.05-1-4.4.62-5.57-.92S16.64,1,16.64,1,13.7.45,12.72,5.51C13.39,7.27,19.91,7.19,19.86,5.8Z"/><path class="cls-5" d="M24.07,10c.53.77-8.19,2.43-12.51-.83-1-.89.55-2,1.46-1.22s1.14,1.15,4.5,1.48S23.29,8.89,24.07,10Z"/><path class="cls-5" d="M26,14.05c.63.84-11.31,2.4-16.32-1.26-1.21-1,.48-2,1.54-1.18s1.35,1.28,5.09,1.84S25.07,12.81,26,14.05Z"/><path class="cls-5" d="M26.26,17.56c.29.57-10.8,2.69-16.26.11-.23-.92,4.58-.14,7.82-.24S25.61,16.28,26.26,17.56Z"/></g></g></g></svg>