<svg xmlns="http://www.w3.org/2000/svg" viewBox="0 0 19.84 29.73"><defs><style>.cls-1{fill:#c180b8;}.cls-2{fill:#b5b5b5;}.cls-3{fill:#e3e1e5;}.cls-4{fill:#fff;}.cls-5{fill:#e5e1e1;}.cls-6{fill:#d398cd;}.cls-7{fill:#f9f9f9;}</style></defs><title>spooncup</title><g id="Layer_2" data-name="Layer 2"><g id="spooncup"><g id="spooncup-2" data-name="spooncup"><path class="cls-1" d="M.84,7.56a24.73,24.73,0,0,0,9.5,1.72,42,42,0,0,0,9.5-1.59V29.55H1.34Z"/><path class="cls-2" d="M11.78,7.33C11.66,5.15,12,.27,14.9,0,18.21-.28,19,5.5,19,7.45S11.91,9.5,11.78,7.33Z"/><path class="cls-3" d="M15.37.79s-3.13.68-2.93,4.63,2.5,4.94,2.5,4.94c1-.32-1.11-4.09-1-4.79C14.21,2.42,17.35,1.61,15.37.79Z"/><path class="cls-2" d="M0,8.67C-.08,6.49.23,1.61,3.16,1.35c3.31-.28,4.13,5.49,4.07,7.44S.17,10.85,0,8.67Z"/><path class="cls-3" d="M3.62,2.14S.5,2.81.7,6.76,3.2,11.7,3.2,11.7c1-.31-1.11-4.09-1-4.78C2.47,3.76,5.61,3,3.62,2.14Z"/><path class="cls-2" d="M1.84,11C1.72,8.77,2,3.89,5,3.63,8.26,3.34,9.09,9.12,9,11.07S2,13.13,1.84,11Z"/><path class="cls-3" d="M5.42,4.42S2.3,5.09,2.5,9,5,14,5,14c1-.31-1.11-4.09-1-4.78C4.27,6,7.41,5.23,5.42,4.42Z"/><path class="cls-2" d="M9.76,10C9.63,7.86,10,3,12.87,2.72,16.18,2.43,17,8.21,17,10.16S9.88,12.21,9.76,10Z"/><path class="cls-3" d="M13.34,3.5s-3.12.68-2.92,4.63,2.5,4.93,2.5,4.93c1-.31-1.11-4.09-1-4.78C12.19,5.13,15.33,4.31,13.34,3.5Z"/><path class="cls-4" d="M0,7.11A24.15,24.15,0,0,0,9.5,8.89,41.12,41.12,0,0,0,19,7.25V29.73H.5Z"/><path class="cls-5" d="M.84,8.18A23.94,23.94,0,0,0,6.41,9.59v20H1.53Z"/><path class="cls-1" d="M.16,14.47A34.8,34.8,0,0,0,8.78,16.2c3.67,0,10.22-1.73,10.22-1.73V25a30.81,30.81,0,0,1-9.84,1.79A33.51,33.51,0,0,1,.4,25.41Z"/><path class="cls-6" d="M1.05,14.7l.36,11s4.12.82,5.33.92L6.41,16S1.94,14.93,1.05,14.7Z"/><path class="cls-7" d="M1.77,21.82a.57.57,0,0,1-.2-.57.48.48,0,0,1,.1-.28.25.25,0,0,1,.21-.09A.26.26,0,0,1,2,21a.15.15,0,0,1,0,.13,1,1,0,0,1,0,.12.11.11,0,0,1,0,.05s0,.05,0,.08a.25.25,0,0,0,.13.25.92.92,0,0,0,.44.13.78.78,0,0,0,.47-.05.41.41,0,0,0,.21-.3.36.36,0,0,0-.06-.23A.69.69,0,0,0,3,21l-.3-.17a4.11,4.11,0,0,1-.41-.24,1,1,0,0,1-.25-.28A.68.68,0,0,1,2,19.86a1,1,0,0,1,.19-.45,1.19,1.19,0,0,1,.42-.3A1.5,1.5,0,0,1,3.2,19a1.19,1.19,0,0,1,.44.08.63.63,0,0,1,.39.66.92.92,0,0,1-.1.36.21.21,0,0,1-.35,0,.19.19,0,0,1,0-.15.59.59,0,0,1,0-.13c0-.07,0-.12,0-.14a.24.24,0,0,0-.12-.24.54.54,0,0,0-.33-.09.78.78,0,0,0-.46.11.41.41,0,0,0-.19.31.33.33,0,0,0,0,.24.59.59,0,0,0,.18.17c.07.05.18.1.31.17a3.8,3.8,0,0,1,.4.24.78.78,0,0,1,.24.27.69.69,0,0,1,.07.41.81.81,0,0,1-.38.66,1.41,1.41,0,0,1-.87.13A1.4,1.4,0,0,1,1.77,21.82Z"/><path class="cls-7" d="M6.62,20.67a1.22,1.22,0,0,1-.47.46,1.54,1.54,0,0,1-.7.18c-.07.31-.15.63-.22,1s-.26.53-.52.5a.64.64,0,0,1-.39-.18,1,1,0,0,1-.25-.46A2,2,0,0,1,4,21.41a3.75,3.75,0,0,1,.35-1.31A2.11,2.11,0,0,1,5,19.29,1.45,1.45,0,0,1,5.87,19a1,1,0,0,1,.53.14.77.77,0,0,1,.31.36A1.14,1.14,0,0,1,6.8,20,1.36,1.36,0,0,1,6.62,20.67Zm-.33-.61a.6.6,0,0,0-.12-.43.52.52,0,0,0-.44-.18.92.92,0,0,0-.63.25,1.94,1.94,0,0,0-.46.7,3.66,3.66,0,0,0-.23,1,2,2,0,0,0,0,.43.89.89,0,0,0,.09.3q.06.12.12.12c.06,0,.11-.08.16-.26s.11-.49.17-.73l-.12,0a.26.26,0,0,1-.13-.08.52.52,0,0,1,0-.14.23.23,0,0,1,.06-.13.17.17,0,0,1,.12-.05h0l.13,0c0-.21.11-.48.19-.83a.32.32,0,0,1,.11-.19.34.34,0,0,1,.17-.05.22.22,0,0,1,.16.05.25.25,0,0,1,0,.16c0,.05,0,.08,0,.11,0,.26-.11.51-.16.77A.78.78,0,0,0,6.29,20.06Z"/><path class="cls-7" d="M7.4,22.37a1.21,1.21,0,0,1-.38-.5,1.84,1.84,0,0,1-.11-.77A3.07,3.07,0,0,1,7.15,20a1.92,1.92,0,0,1,.54-.74A1.15,1.15,0,0,1,8.4,19a.94.94,0,0,1,.54.17,1.17,1.17,0,0,1,.38.5,1.8,1.8,0,0,1,.13.77,3,3,0,0,1-.19,1.13,1.68,1.68,0,0,1-.54.74,1.17,1.17,0,0,1-.75.25A1.05,1.05,0,0,1,7.4,22.37Zm1.1-.49a1.32,1.32,0,0,0,.33-.56A2.55,2.55,0,0,0,9,20.51a1.39,1.39,0,0,0-.16-.75.48.48,0,0,0-.43-.26.67.67,0,0,0-.47.19,1.61,1.61,0,0,0-.33.55,2.78,2.78,0,0,0-.14.8,1.37,1.37,0,0,0,.15.76.55.55,0,0,0,.44.27A.69.69,0,0,0,8.5,21.88Z"/><path class="cls-7" d="M10.29,22.41a1.12,1.12,0,0,1-.41-.49,1.8,1.8,0,0,1-.14-.77A3.27,3.27,0,0,1,9.92,20a1.78,1.78,0,0,1,.51-.75,1,1,0,0,1,.7-.27.94.94,0,0,1,.54.17,1.13,1.13,0,0,1,.4.48,1.82,1.82,0,0,1,.18.77,3,3,0,0,1-.15,1.11,1.74,1.74,0,0,1-.5.76,1.16,1.16,0,0,1-.74.28A.91.91,0,0,1,10.29,22.41Zm1.07-.54a1.29,1.29,0,0,0,.3-.57,2.48,2.48,0,0,0,.09-.8,1.37,1.37,0,0,0-.2-.75.5.5,0,0,0-.44-.25.62.62,0,0,0-.46.2,1.29,1.29,0,0,0-.3.56,2.88,2.88,0,0,0-.11.81,1.49,1.49,0,0,0,.18.76.55.55,0,0,0,.46.25A.66.66,0,0,0,11.36,21.87Z"/><path class="cls-7" d="M13,22.41a.35.35,0,0,1-.07-.25,3,3,0,0,1,0-.3c0-.13,0-.31,0-.55,0,0,0-.17,0-.4s0-.48.05-.73a3.89,3.89,0,0,0,0-.49q0-.18-.12-.18a.37.37,0,0,0-.2.11,1.37,1.37,0,0,0-.26.35c0,.05-.06.08-.1.08a.12.12,0,0,1-.09-.06.21.21,0,0,1,0-.12.51.51,0,0,1,0-.13.43.43,0,0,1,.07-.16,1.38,1.38,0,0,1,.34-.43.68.68,0,0,1,.42-.15.34.34,0,0,1,.28.14.73.73,0,0,1,.12.4,5.4,5.4,0,0,1,0,.68,2.23,2.23,0,0,1,.37-.91.69.69,0,0,1,.58-.31.54.54,0,0,1,.43.18.8.8,0,0,1,.18.48,2.91,2.91,0,0,1,0,.42c0,.37-.08.74-.11,1.11a1.33,1.33,0,0,0,0,.34.38.38,0,0,0,.09.24.23.23,0,0,0,.2.06.36.36,0,0,0,.22-.1,2.49,2.49,0,0,0,.23-.3.1.1,0,0,1,.09-.06s.05,0,.07,0a.17.17,0,0,1,0,.12.38.38,0,0,1,0,.24,1.27,1.27,0,0,1-.33.38.73.73,0,0,1-.36.16.57.57,0,0,1-.49-.16.8.8,0,0,1-.21-.52,1.31,1.31,0,0,1,0-.28,3.43,3.43,0,0,1,0-.4c0-.24.06-.48.08-.72,0,0,0-.07,0-.13s0-.11,0-.17a.76.76,0,0,0,0-.15.28.28,0,0,0-.07-.2.25.25,0,0,0-.18-.08.56.56,0,0,0-.39.26,2.67,2.67,0,0,0-.32.84,9.64,9.64,0,0,0-.19,1.48.71.71,0,0,1,0,.3.22.22,0,0,1-.18.09A.19.19,0,0,1,13,22.41Z"/><path class="cls-7" d="M15.9,22a.65.65,0,0,1-.34-.56.63.63,0,0,1,0-.32.19.19,0,0,1,.18-.12.19.19,0,0,1,.16,0,.16.16,0,0,1,.07.13.62.62,0,0,1,0,.13v.13a.28.28,0,0,0,.18.24,1.1,1.1,0,0,0,.46,0,.85.85,0,0,0,.45-.17.35.35,0,0,0,.13-.32.31.31,0,0,0-.11-.2.5.5,0,0,0-.21-.13c-.08,0-.19-.08-.33-.12a3.16,3.16,0,0,1-.46-.18,1,1,0,0,1-.31-.26.76.76,0,0,1-.17-.43.89.89,0,0,1,.08-.49.78.78,0,0,1,.34-.33,1.33,1.33,0,0,1,.56-.11,1.44,1.44,0,0,1,.46.08,1,1,0,0,1,.36.22.7.7,0,0,1,.17.37.68.68,0,0,1,0,.33.21.21,0,0,1-.18.13.3.3,0,0,1-.16-.05A.24.24,0,0,1,17.2,20a.62.62,0,0,1,0-.13.38.38,0,0,0,0-.13.27.27,0,0,0-.17-.22.75.75,0,0,0-.35-.08.71.71,0,0,0-.43.13.38.38,0,0,0-.12.33.53.53,0,0,0,.11.24.71.71,0,0,0,.22.15l.35.14c.19.06.33.12.45.17a.89.89,0,0,1,.3.22.6.6,0,0,1,.16.35.73.73,0,0,1-.22.68,1.44,1.44,0,0,1-.81.34A1.26,1.26,0,0,1,15.9,22Z"/></g></g></g></svg>