<svg xmlns="http://www.w3.org/2000/svg" viewBox="0 0 21.82 18.3"><defs><style>.cls-1{fill:#528c93;}.cls-2{fill:#6a9fa9;}.cls-3{fill:#65c8d0;}.cls-4{fill:#fff;}.cls-5{fill:#e8eced;}.cls-6{fill:#ea94e4;}.cls-7{fill:#ade1f7;}.cls-8{fill:#f9f687;}.cls-9{fill:#f2bbf1;}</style></defs><title>sprinklebutton</title><g id="Layer_2" data-name="Layer 2"><g id="Sprinkle_button" data-name="Sprinkle button"><g id="sprinklebutton"><polygon class="cls-1" points="11.61 0 1.4 0 0.05 0.66 1.79 0.66 6.64 8.87 11.83 17.64 16.71 8.93 21.82 0 11.61 0"/><polygon class="cls-1" points="10.43 18.3 11.83 17.64 11.3 16.75 10.43 18.3"/><g id="Sprinkle"><polygon class="cls-2" points="10.43 18.3 15.32 9.59 20.42 0.66 10.21 0.66 0 0.66 5.24 9.52 10.43 18.3"/><polygon class="cls-3" points="0 0.66 10.49 0.66 10.43 18.3 0 0.66"/></g><circle class="cls-4" cx="10.49" cy="6.98" r="5.13"/><path class="cls-5" d="M10.49,1.86a5.13,5.13,0,1,0,0,10.25Z"/><path class="cls-6" d="M8.15,5.12a1.91,1.91,0,0,1-1.29,1c-.64.06-.64,1.06,0,1A3,3,0,0,0,9,5.63C9.4,5.11,8.53,4.61,8.15,5.12Z"/><path class="cls-6" d="M13.91,4.79a2.92,2.92,0,0,0-1.73-1.06c-.63-.13-.9.84-.26,1a2.05,2.05,0,0,1,1.28.81C13.6,6,14.3,5.3,13.91,4.79Z"/><path class="cls-6" d="M11.93,8.17c-.52-.38-1,.49-.5.87.2.15.18.49.19.71,0,.64,1,.64,1,0A1.89,1.89,0,0,0,11.93,8.17Z"/><path class="cls-7" d="M14.33,6.87a2.15,2.15,0,0,1-1.19-.27.5.5,0,0,0-.5.86,3,3,0,0,0,1.69.41C15,7.84,15,6.84,14.33,6.87Z"/><path class="cls-7" d="M10.45,7.68A1.57,1.57,0,0,0,9,8.53c-.3.57.56,1.08.86.51a.59.59,0,0,1,.58-.36A.5.5,0,0,0,10.45,7.68Z"/><path class="cls-7" d="M10.84,4.17a2.3,2.3,0,0,1-1-.44c-.52-.38-1,.49-.51.86a3.26,3.26,0,0,0,1.25.55C11.2,5.26,11.47,4.3,10.84,4.17Z"/><path class="cls-8" d="M8.56,9.44c-.42-.1-.57-.53-.73-.89C7.58,8,6.72,8.47,7,9.05A2,2,0,0,0,8.3,10.4C8.92,10.54,9.19,9.58,8.56,9.44Z"/><path class="cls-8" d="M10.88,5.8a1.35,1.35,0,0,1-.8.27.5.5,0,0,0,0,1,2.48,2.48,0,0,0,1.51-.57C12.09,6.1,11.38,5.4,10.88,5.8Z"/><path class="cls-8" d="M11.82,10.31A1.66,1.66,0,0,1,10.55,10c-.53-.38-1,.49-.51.86a2.62,2.62,0,0,0,2.05.43C12.72,11.17,12.45,10.2,11.82,10.31Z"/><path class="cls-8" d="M9,2.81a3.13,3.13,0,0,0-1.62,1c-.41.49.3,1.2.71.7a2.25,2.25,0,0,1,1.18-.77A.5.5,0,0,0,9,2.81Z"/><path class="cls-8" d="M14.55,7.68c-.13-.63-1.09-.36-1,.27a1.71,1.71,0,0,1-.28,1.33c-.36.54.51,1,.86.5A2.68,2.68,0,0,0,14.55,7.68Z"/><path class="cls-9" d="M6.79,6.67A3.84,3.84,0,0,0,8.68,5.28l.24.1s-.82,1.46-2,1.44Z"/><path class="cls-9" d="M11.76,8.48s.73.69.64.87a1.27,1.27,0,0,0-.49-1.06Z"/><path class="cls-9" d="M12.08,3.84l-.17.21s1.45.29,1.69,1h.24A3.08,3.08,0,0,0,12.08,3.84Z"/></g></g></g></svg>