<svg xmlns="http://www.w3.org/2000/svg" viewBox="0 0 14.28 23.64"><defs><style>.cls-1{fill:#f29cf2;}.cls-2{fill:#baf1f7;}.cls-3{fill:#f2f78b;}</style></defs><title>spriinkle</title><g id="Layer_2" data-name="Layer 2"><g id="sprinkle"><g id="spriinkle"><path class="cls-1" d="M1.28,4.52A3.66,3.66,0,0,1,.17,6.14c-.49.42.22,1.13.7.71A4.67,4.67,0,0,0,2.25,4.79C2.45,4.18,1.49,3.92,1.28,4.52Z"/><path class="cls-1" d="M8.08,9.1a2.39,2.39,0,0,1-.55-1.22c-.11-.63-1.07-.36-1,.27a3.27,3.27,0,0,0,.8,1.66C7.79,10.3,8.5,9.59,8.08,9.1Z"/><path class="cls-1" d="M12.3,3.89a2.3,2.3,0,0,1-1.13-1.13c-.27-.58-1.13-.08-.86.5a3.1,3.1,0,0,0,1.48,1.49C12.37,5,12.88,4.17,12.3,3.89Z"/><path class="cls-1" d="M11.76,16.33c-.09-.64-1-.37-1,.26A1.93,1.93,0,0,1,10.37,18c-.39.51.48,1,.86.5A2.88,2.88,0,0,0,11.76,16.33Z"/><path class="cls-1" d="M5.27,16.66a2.08,2.08,0,0,1-.62-1.39c0-.64-1-.65-1,0a3.1,3.1,0,0,0,.92,2.1A.5.5,0,0,0,5.27,16.66Z"/><path class="cls-2" d="M1.81,10.37c-.38-.51-1.25,0-.86.5a1.43,1.43,0,0,1,.18,1.46c-.25.59.72.85,1,.26A2.3,2.3,0,0,0,1.81,10.37Z"/><path class="cls-2" d="M10.92,12.63a2.3,2.3,0,0,0-2.31,0,.5.5,0,0,0,.51.86,1.26,1.26,0,0,1,1.3,0C11,13.81,11.49,12.94,10.92,12.63Z"/><path class="cls-2" d="M8.14,2.29a1.26,1.26,0,0,1-.41-1.14c.07-.64-.93-.64-1,0A2.19,2.19,0,0,0,7.43,3C7.9,3.44,8.61,2.73,8.14,2.29Z"/><path class="cls-2" d="M8.2,20.93a2.26,2.26,0,0,0-.1,2.47A.5.5,0,0,0,9,22.89a1.25,1.25,0,0,1,.1-1.45C9.45,20.92,8.58,20.42,8.2,20.93Z"/><path class="cls-3" d="M4.38,5.65a5.89,5.89,0,0,0-.47,2.62c0,.64,1,.64,1,0a4.6,4.6,0,0,1,.34-2.11C5.5,5.57,4.63,5.06,4.38,5.65Z"/><path class="cls-3" d="M13.92,9.33a1.65,1.65,0,0,1-1.27-1.2.5.5,0,0,0-1,.27,2.69,2.69,0,0,0,2,1.9C14.28,10.44,14.55,9.48,13.92,9.33Z"/><path class="cls-3" d="M3,17.73c-.47-.44-1.18.27-.71.71A3.26,3.26,0,0,1,3.3,20.83a.5.5,0,0,0,1,0A4.3,4.3,0,0,0,3,17.73Z"/><path class="cls-3" d="M9.34,16.22a.5.5,0,0,0-1-.27,4.21,4.21,0,0,0,0,2.2.5.5,0,0,0,1-.26A3.26,3.26,0,0,1,9.34,16.22Z"/><path class="cls-3" d="M5.16,1.51A5.21,5.21,0,0,0,4.51.22c-.37-.52-1.24,0-.86.5a4.18,4.18,0,0,1,.54,1.05C4.39,2.38,5.36,2.12,5.16,1.51Z"/></g></g></g></svg>