<svg xmlns="http://www.w3.org/2000/svg" viewBox="0 0 36.99 31"><defs><style>.cls-1{fill:#fff;}.cls-2{fill:#e8e8e8;}.cls-3{fill:#f7e597;}.cls-4{fill:#efda81;}.cls-5{fill:#f4ebc9;}.cls-6{fill:#604937;}.cls-7{fill:#846e5f;}.cls-8{fill:#f29cf2;}.cls-9{fill:#baf1f7;}.cls-10{fill:#f2f78b;}</style></defs><title>sprinkleic</title><g id="Layer_2" data-name="Layer 2"><g id="sprinkleic"><g id="sprinkleic-2" data-name="sprinkleic"><g id="chocoic"><g id="bowl"><path id="Bowl-2" data-name="Bowl" class="cls-1" d="M18.49,17.89C10.94,17.67,0,15.25,0,15.25S2.44,22.4,6.39,24a54.91,54.91,0,0,0,8.32,2.53l0,1.68A26.74,26.74,0,0,0,9.69,30a58.91,58.91,0,0,0,8.72,1h.17c5-.37,8.72-1,8.72-1a26.78,26.78,0,0,0-5.08-1.77l.05-1.68A54.55,54.55,0,0,0,30.59,24c4-1.63,6.4-8.78,6.4-8.78S26.05,17.67,18.49,17.89Z"/><path class="cls-2" d="M0,15.25s6.2,1.21,7.17,1.36-1.59,3.87,4.66,6.22S16.11,26,16.11,26l0,2.94-3.83,1.53L9.69,30a11.68,11.68,0,0,1,4.42-1.84V26.42s-7.22-1.7-8.62-2.87S2.67,22.11,0,15.25Z"/></g><g id="plainic"><path class="cls-3" d="M18.94,2.41s-.16-.9-.73-.93-1.9,1.72.46,3,3.63.11,5,2.35c0,0,.64,1.08-.06,1.49,2.76.05,4.09,2.62,3.09,3.59,2.22-.87,2.83,3,.38,3.33,2.55,0,3,3.05-.28,3.8S15.69,21.85,7.67,17.13c0,0-1.06-3.11,1.57-3-1.42-.78-.17-3.52,1.87-3.31-1.85-1.1.65-3.48,1.72-3.29,0,0,.69-.29-.38-1.06S14.59-1.24,17.73.36A1.89,1.89,0,0,1,18.94,2.41Z"/><path class="cls-4" d="M22.28,5.12s3.87,1,2.12,3c2.94.22,4,2.17,3.07,3.44,1.83-.27,2.73,2.43.3,3.35,2.48-.37,2.42,3.35-.75,4,2.11-1.91,3.09-3.61-2-2.84s-9.9.71-13.17-.59c0,0,6,1.73,15.34-.48.83-.93,1.68-2.59-.78-2.25s-8.62.85-14.1-1.59c0,0,4.74,2,14.19.67.76-.87.63-2.86-2.22-3s-4-.07-6.13-1.16c0,0,4.17.65,5-.59S21.19,5.73,19.66,5C17.25,3.9,17.4,3.2,17.4,3.2S20.31,5,22.28,5.12Z"/><path class="cls-5" d="M19.86,5.92c-.05-1-4.4.62-5.57-.92s2.35-3.93,2.35-3.93S13.7.57,12.72,5.63C13.39,7.39,19.91,7.31,19.86,5.92Z"/><path class="cls-5" d="M24.07,10.15c.53.77-8.19,2.43-12.51-.83-1-.89.55-2,1.46-1.22s1.14,1.15,4.5,1.48S23.29,9,24.07,10.15Z"/><path class="cls-5" d="M26,14.17c.63.84-11.31,2.4-16.32-1.26-1.21-1,.48-2,1.54-1.18s1.35,1.28,5.09,1.84S25.07,12.93,26,14.17Z"/><path class="cls-5" d="M26.26,17.68c.29.57-10.8,2.69-16.26.11-.23-.92,4.58-.14,7.82-.24S25.61,16.4,26.26,17.68Z"/></g><path class="cls-6" d="M19.38,3.2S19.07-.07,16.82.12c0,0-1.22-.75-2.85,1.5S11.71,6.35,12.47,7c0,0-2.64,2.34-2.08,3.41s-.73,2.63-.08,3.38,2-1.82,3.16-2.22-.51,3.87,1.39,3.7.61-4.55,1.83-5.42.42,1.42,1.44,1.61S18.92,7.85,20,7.87s.12,4.63,2.46,4.88-.36-3.42.61-3.94,1.08,1.8,2.39,1.31,1.31-1.74.38-2.27c0,0,.51-2.26-3.94-3.42-4-1-4.14-.82-4.32-1.23S17.73.36,19.38,3.2Z"/><path class="cls-7" d="M11.22,10.12s-1.09,3-.65,3.21,1.25-.83,1.25-.83-.66.69-1,.53S11.22,10.12,11.22,10.12Z"/><path class="cls-7" d="M13.72,11.08a2,2,0,0,1,.57,1.35c0,.78-.35,2.35.31,2.44s1-.81,1-.81-.53.54-1,.5S15.41,11.25,13.72,11.08Z"/><path class="cls-7" d="M17.19.5a3,3,0,0,0-3,2.15A6.09,6.09,0,0,1,17.19.5Z"/><path class="cls-7" d="M17,8.71a6.27,6.27,0,0,1,.81,1.41c.06.38,0,1,.28,1s.59-1,.59-1-.37,1-.59.78S18,8.78,17,8.71Z"/><path class="cls-7" d="M21,9.31s.43,3,1.38,3.09.91-.53.91-.53a.9.9,0,0,1-.88.28C21.87,12,21,9.31,21,9.31Z"/><path class="cls-7" d="M23.66,5.53s1.84.8,1.81,2.09A6.75,6.75,0,0,0,23.66,5.53Z"/></g><path class="cls-8" d="M14.18,4.18a1.79,1.79,0,0,1,1-.57c.47-.09.27-.82-.2-.73a2.32,2.32,0,0,0-1.41.93c-.22.43.43.81.64.37Z"/><path class="cls-8" d="M19.22,5.26a4.31,4.31,0,0,0,1.51.68c.44.19.82-.45.38-.64s-1-.24-1.36-.57-.88.19-.53.53Z"/><path class="cls-8" d="M12.5,8.72c.12.56.5.64.92.91s.78-.38.38-.65c-.22-.14-.52-.17-.58-.46-.1-.47-.82-.27-.72.2Z"/><path class="cls-9" d="M16.49,7.06h.69a1.87,1.87,0,0,1,.52.12c.47.12.67-.61.2-.72a2.4,2.4,0,0,0-.6-.15c-.27,0-.54,0-.81,0a.38.38,0,0,0,0,.75Z"/><path class="cls-9" d="M23.55,8.43a2.19,2.19,0,0,0,1.31-.24c.41-.26,0-.91-.38-.64a1.72,1.72,0,0,1-.93.13.38.38,0,0,0,0,.75Z"/><path class="cls-9" d="M12.37,6.22c.18.45.53.35.85.6s.91-.23.53-.53a1.9,1.9,0,0,0-.34-.2c-.09,0-.35-.16-.31-.07-.18-.44-.9-.25-.73.2Z"/><path class="cls-10" d="M16.36,2.24c.34,0,.66-.1,1-.12s.48-.78,0-.75-.66.1-1,.12-.48.78,0,.75Z"/><path class="cls-10" d="M21.3,8.46a1.81,1.81,0,0,0,.55,1.27c.36.33.89-.2.53-.53a1,1,0,0,1-.33-.74c0-.48-.77-.48-.75,0Z"/><path class="cls-10" d="M22.61,5.94a4.48,4.48,0,0,0,1.56.55c.48,0,.48-.71,0-.75A3.92,3.92,0,0,1,23,5.3c-.44-.21-.82.44-.38.64Z"/><path class="cls-10" d="M15.45,8.54c.13,0,.19.32.24.43.18.44.9.25.72-.2s-.3-.83-.76-.95a.37.37,0,0,0-.2.72Z"/><path class="cls-10" d="M16.33,5.29c.24-.09.52-.34.78-.36.48,0,.48-.77,0-.75a2.83,2.83,0,0,0-1,.39c-.44.18-.25.91.19.72Z"/></g></g></g></svg>