<svg xmlns="http://www.w3.org/2000/svg" viewBox="0 0 427.94 430.29"><defs><style>.cls-1{fill:#edaede;}.cls-2{fill:#d895cb;}.cls-3{fill:#aeedf4;}.cls-12,.cls-4{fill:#f7e597;}.cls-5{fill:#f9f9f7;}.cls-20,.cls-6,.cls-9{fill:#fff;}.cls-6{opacity:0.33;}.cls-7{fill:#e2cba3;}.cls-8{fill:#af9472;}.cls-10{fill:#efedef;}.cls-11{fill:#addd9b;}.cls-12{stroke:#a9ebed;stroke-width:3px;}.cls-12,.cls-20,.cls-22{stroke-miterlimit:10;}.cls-13{fill:#848484;}.cls-14{fill:#c9c9c9;}.cls-15{fill:#c180b8;}.cls-16{fill:#ebf5f7;}.cls-17{fill:#6a9fa9;}.cls-18{fill:#a0648f;}.cls-19{fill:#65c8d0;}.cls-20{stroke:gray;stroke-width:0.25px;}.cls-21{fill:#999595;}.cls-22{fill:none;stroke:#b6ebf2;}.cls-23{fill:#e8eced;}.cls-24{fill:#90dbe9;}.cls-25{fill:#b6ebf2;}.cls-26{fill:#e8e8e8;}.cls-27{fill:#528c93;}.cls-28{fill:#5e4411;}.cls-29{fill:#6b5122;}.cls-30{fill:#775c31;}.cls-31{fill:#ea94e4;}.cls-32{fill:#ade1f7;}.cls-33{fill:#f9f687;}.cls-34{fill:#f2bbf1;}.cls-35{fill:#cc3b50;}.cls-36{fill:#d6516b;}.cls-37{fill:#ea9daf;}.cls-38{fill:#7a1b2d;}.cls-39{fill:#542d1f;}.cls-40{fill:#50843d;}.cls-41{fill:#6a9956;}.cls-42{fill:#f5db51;}.cls-43{fill:#c8a34a;}.cls-44{fill:#ffee86;}.cls-45{fill:#f1c025;}.cls-46{fill:#ebcb3a;}.cls-47{fill:#eccf35;}.cls-48{fill:#d3d3d3;}.cls-49{fill:#e3e1e5;}.cls-50{fill:#b5b5b5;}.cls-51{fill:#e5e1e1;}.cls-52{fill:#d398cd;}.cls-53{fill:#f9f9f9;}</style></defs><title>stand1</title><g id="Layer_2" data-name="Layer 2"><g id="stand1"><g id="stand1-2" data-name="stand1"><g id="icstand"><rect class="cls-1" x="15.8" y="73.54" width="399.72" height="345.64"/><rect class="cls-2" x="24.46" y="88.91" width="383.4" height="165.52"/><rect class="cls-1" x="6.98" y="10.97" width="420.36" height="70.94"/><rect class="cls-3" x="6.98" y="10.97" width="420.36" height="12.54"/><path class="cls-4" d="M7,81.9v44.75H7c.36,5.9,8,10.61,17.46,10.61s17.09-4.71,17.46-10.61h0V81.9Z"/><path class="cls-5" d="M41.93,81.9v44.75h0c.37,5.9,8,10.61,17.46,10.61s17.1-4.71,17.46-10.61h0V81.9Z"/><path class="cls-3" d="M76.89,81.9v44.75h0c.36,5.9,8,10.61,17.46,10.61s17.09-4.71,17.46-10.61h0V81.9Z"/><path class="cls-4" d="M111.54,81.9v44.75h0c.36,5.9,9,10.61,18.46,10.61s17.09-4.71,17.46-10.61h0V81.9Z"/><path class="cls-5" d="M147.49,81.9v44.75h0c.37,5.9,8,10.61,17.46,10.61s17.1-4.71,17.46-10.61h0V81.9Z"/><path class="cls-3" d="M182.2,82.18v44.74h0c.37,5.91,8,10.62,17.46,10.62s17.09-4.71,17.46-10.62h0V82.18Z"/><path class="cls-4" d="M217.16,81.76v44.75h0c.36,5.9,8,10.61,17.46,10.61s17.09-4.71,17.46-10.61h0V81.76Z"/><path class="cls-5" d="M252.11,81.76v44.75h0c.37,5.9,8,10.61,17.46,10.61s17.1-4.71,17.46-10.61h0V81.76Z"/><path class="cls-3" d="M287.07,81.76v44.75h0c.36,5.9,8,10.61,17.46,10.61s17.09-4.71,17.46-10.61h0V81.76Z"/><path class="cls-4" d="M321.72,81.76v44.75h0c.36,5.9,9,10.61,18.46,10.61s17.09-4.71,17.46-10.61h0V81.76Z"/><path class="cls-5" d="M357.67,81.76v44.75h0c.37,5.9,8,10.61,17.46,10.61s17.1-4.71,17.46-10.61h0V81.76Z"/><path class="cls-3" d="M392.38,82v44.75h0c.37,5.9,8,10.61,17.46,10.61s17.09-4.71,17.46-10.61h0V82Z"/><rect class="cls-6" x="6.98" y="80.75" width="420.36" height="23.9"/><path class="cls-7" d="M12.64,22.69S77,35.15,112.19,0l-1,80.55-71.25.2Z"/><path class="cls-8" d="M100.53,15.54,111.88,23l0-1.35-10.6-6.92L111.78,3.27l.06-1.77L100.34,14,97.07,11.9l-1.22.58,3.7,2.42-17.46,19L63.89,23.29l-1.77.3L81.29,34.81,65.06,52.51,38.39,36.67l11-11.84-2,.51-10,10.73L15.91,23.34l-2.08.1L36.57,36.93l-11.18,12L26,50,37.58,37.54,64.27,53.37,49.11,69.9,30.94,60.54l-.53,1L48.3,70.78l-7.82,8.53.85.78,8-8.76,18.46,9.52L69,80.16,50.17,70.45,65.28,54,93,70.42l-7.5,10.2h1.3L94,71l16.07,9.54,1.42-.5-16.8-10,14.1-19.17,2.76,1.61.11-1.27L109.47,50l2.35-3.2-.46-1.32-2.89,3.93L83.1,34.54Zm7.25,34.78L93.68,69.49,66.07,53.11l16.24-17.7Z"/><path class="cls-8" d="M15.8,29.42s47,5.71,97.22-25.2l-.93,3.65S67.42,38.11,17.39,32.79Z"/><rect class="cls-2" x="8.19" y="409.97" width="414.95" height="16.13"/><polygon class="cls-9" points="24.46 254.43 1.54 261.73 427.34 261.73 407.85 254.43 24.46 254.43"/><rect class="cls-10" y="261.73" width="427.94" height="7.3"/><rect class="cls-3" x="24.46" y="277.69" width="383.4" height="124.59"/><rect class="cls-4" x="24.46" y="277.69" width="25.95" height="124.59"/><rect class="cls-5" x="50.41" y="277.69" width="25.95" height="124.59"/><rect class="cls-4" x="103.45" y="277.69" width="25.95" height="124.59"/><rect class="cls-5" x="129.4" y="277.69" width="25.95" height="124.59"/><rect class="cls-4" x="180.66" y="277.69" width="25.95" height="124.59"/><rect class="cls-5" x="206.62" y="277.69" width="25.95" height="124.59"/><rect class="cls-4" x="256.99" y="277.69" width="25.95" height="124.59"/><rect class="cls-5" x="282.94" y="277.69" width="25.95" height="124.59"/><rect class="cls-4" x="333.9" y="277.69" width="25.95" height="124.59"/><rect class="cls-5" x="359.85" y="277.69" width="25.95" height="124.59"/><path class="cls-9" d="M128.33,63.94a2.35,2.35,0,0,1-.41-1.6,16.3,16.3,0,0,1,.17-2c.11-.82.29-2,.55-3.41q.66-4,1.05-7a26.3,26.3,0,0,0,.23-3.07c0-.77-.28-1.15-.85-1.15a3,3,0,0,0-1.6.68,10.56,10.56,0,0,0-2.06,2.16,1,1,0,0,1-.79.49.79.79,0,0,1-.63-.35,1.23,1.23,0,0,1-.27-.78,2.28,2.28,0,0,1,.17-.83,4.49,4.49,0,0,1,.55-1,9.65,9.65,0,0,1,2.74-2.65,5.73,5.73,0,0,1,3-.94,2.65,2.65,0,0,1,2.16.9,3.93,3.93,0,0,1,.76,2.61,11.63,11.63,0,0,1-.13,1.63c-.08.62-.16,1.13-.23,1.52s-.12.67-.15.82a14.27,14.27,0,0,1,3.27-5.82,5.82,5.82,0,0,1,4-1.66,3.21,3.21,0,0,1,2.62,1.18,5.16,5.16,0,0,1,1,3.33,12.43,12.43,0,0,1-.23,2.1,12.28,12.28,0,0,1,3-5.07,5.74,5.74,0,0,1,3.94-1.54,3.38,3.38,0,0,1,2.75,1.16,4.87,4.87,0,0,1,1,3.22,14,14,0,0,1-.33,2.74L152,57a10.89,10.89,0,0,0-.26,2.2,2.33,2.33,0,0,0,.5,1.62,1.79,1.79,0,0,0,1.39.53,2.83,2.83,0,0,0,1.66-.56,10.8,10.8,0,0,0,1.9-1.87.91.91,0,0,1,.69-.36.6.6,0,0,1,.53.31,1.6,1.6,0,0,1,.19.85,2.37,2.37,0,0,1-.49,1.58,9.81,9.81,0,0,1-2.63,2.36,5.53,5.53,0,0,1-2.74.74,4.49,4.49,0,0,1-3.41-1.29,4.83,4.83,0,0,1-1.23-3.47,22.76,22.76,0,0,1,.62-4.38l1-4.68c0-.16.1-.43.18-.82s.16-.77.21-1.12a7.23,7.23,0,0,0,.07-1,2.2,2.2,0,0,0-.34-1.35,1.19,1.19,0,0,0-1-.44,3.55,3.55,0,0,0-2.52,1.54,16.16,16.16,0,0,0-2.51,5.14,51.08,51.08,0,0,0-1.93,9.32,4.1,4.1,0,0,1-.63,2.06,1.8,1.8,0,0,1-1.44.52,1.71,1.71,0,0,1-1.27-.41,2.18,2.18,0,0,1-.4-1.53,18.79,18.79,0,0,1,.28-2.76c.19-1.13.43-2.47.72-4a57,57,0,0,0,1.18-8,2.29,2.29,0,0,0-.37-1.43,1.35,1.35,0,0,0-1.12-.46,3.68,3.68,0,0,0-2.58,1.42,14.54,14.54,0,0,0-2.6,5A51.48,51.48,0,0,0,131.56,62a4.6,4.6,0,0,1-.53,1.82,1.52,1.52,0,0,1-1.34.51A1.85,1.85,0,0,1,128.33,63.94Z"/><path class="cls-9" d="M157.13,63.21a4.63,4.63,0,0,1-.95-3,8.33,8.33,0,0,1,.95-3.88,8,8,0,0,1,2.52-2.94A5.66,5.66,0,0,1,163,52.25a1,1,0,0,1,.76.22,1.93,1.93,0,0,1,.32.78,5.87,5.87,0,0,1,1.13-.1c.83,0,1.25.3,1.25.89a19.78,19.78,0,0,1-.38,2.56,24.18,24.18,0,0,0-.59,4.1.89.89,0,0,0,.19.61.6.6,0,0,0,.5.23,2,2,0,0,0,1.18-.62,21.74,21.74,0,0,0,1.86-2,.92.92,0,0,1,.7-.36.6.6,0,0,1,.52.31,1.6,1.6,0,0,1,.19.85,2.35,2.35,0,0,1-.48,1.58,12.84,12.84,0,0,1-2.23,2.2,3.81,3.81,0,0,1-2.28.9,2.37,2.37,0,0,1-1.55-.58A3.45,3.45,0,0,1,163,62.21a3.91,3.91,0,0,1-3.35,2.15A3.11,3.11,0,0,1,157.13,63.21Zm4.53-2.1a4.24,4.24,0,0,0,.74-1.77l.95-4.71a3.12,3.12,0,0,0-2,.81,5.43,5.43,0,0,0-1.45,2.06,6.9,6.9,0,0,0-.54,2.71,1.83,1.83,0,0,0,.32,1.18,1.1,1.1,0,0,0,.89.39A1.42,1.42,0,0,0,161.66,61.11Z"/><path class="cls-9" d="M183.87,58.83a1.6,1.6,0,0,1,.19.85,2.35,2.35,0,0,1-.48,1.58,12.89,12.89,0,0,1-2.33,2.26,4.7,4.7,0,0,1-2.79.84,4.42,4.42,0,0,1-3.18-1.13,3.89,3.89,0,0,1-1.2-3,1.47,1.47,0,0,1,1-1.43,4.56,4.56,0,0,0,1.61-1,2,2,0,0,0,.49-1.35,1.07,1.07,0,0,0-.19-.69.61.61,0,0,0-.47-.23c-.47,0-1,.34-1.53,1a11.71,11.71,0,0,0-1.55,2.57,18.82,18.82,0,0,0-1.12,3.24,3.94,3.94,0,0,1-.66,1.63,1.45,1.45,0,0,1-1.16.42,1.29,1.29,0,0,1-1.17-.58,4.18,4.18,0,0,1-.49-1.77,34.74,34.74,0,0,1-.13-3.54,44.88,44.88,0,0,1,.8-8.21,24.85,24.85,0,0,1,2.38-7.19q1.58-2.9,3.78-2.9a2.26,2.26,0,0,1,1.91,1,4.41,4.41,0,0,1,.73,2.62,11.3,11.3,0,0,1-1.51,5.37,35.1,35.1,0,0,1-4.92,6.49c-.05.88-.08,1.8-.08,2.74a12,12,0,0,1,2.82-4.65,4.63,4.63,0,0,1,3-1.45,2.64,2.64,0,0,1,2.06.87,3.11,3.11,0,0,1,.78,2.15,5,5,0,0,1-.71,2.59,6.24,6.24,0,0,1-2.46,2.1,1.68,1.68,0,0,0,.62,1.11,2,2,0,0,0,1.27.42,2.4,2.4,0,0,0,1.54-.61,16.94,16.94,0,0,0,1.94-2,.91.91,0,0,1,.69-.36A.6.6,0,0,1,183.87,58.83ZM174.13,44A22,22,0,0,0,173,47.58a46.77,46.77,0,0,0-.86,4.88,18.51,18.51,0,0,0,2.63-4.07,9.52,9.52,0,0,0,1-4,3.67,3.67,0,0,0-.17-1.25c-.12-.29-.3-.44-.52-.44S174.5,43.14,174.13,44Z"/><path class="cls-9" d="M191.68,59.6a1.56,1.56,0,0,1,.19.84,2.83,2.83,0,0,1-.44,1.59,4.94,4.94,0,0,1-1.88,1.72,5.84,5.84,0,0,1-2.77.61A5,5,0,0,1,183,62.89a5.67,5.67,0,0,1-1.36-4,7.32,7.32,0,0,1,.75-3.29,6,6,0,0,1,2.06-2.42,5.16,5.16,0,0,1,3-.9,3.25,3.25,0,0,1,2.38.89,3.19,3.19,0,0,1,.9,2.39,4.14,4.14,0,0,1-1.27,3,9.11,9.11,0,0,1-4.31,2,2.14,2.14,0,0,0,2.07,1.18,2.88,2.88,0,0,0,1.73-.49,8.53,8.53,0,0,0,1.57-1.63.89.89,0,0,1,.69-.39A.6.6,0,0,1,191.68,59.6Zm-6.33-3.69a5.19,5.19,0,0,0-.65,2.66v.06a5.78,5.78,0,0,0,2.38-1.08,2.11,2.11,0,0,0,.87-1.66,1.09,1.09,0,0,0-.27-.78.93.93,0,0,0-.73-.3A1.89,1.89,0,0,0,185.35,55.91Z"/><path class="cls-9" d="M221.77,58.45c.58,0,.87.37.87,1.12a1.89,1.89,0,0,1-.27,1,1.21,1.21,0,0,1-.83.53c-1.55.29-3.08.61-4.58,1l-.08.61q-.72,5-2.85,7.46a6.82,6.82,0,0,1-5.34,2.42,4.79,4.79,0,0,1-3.29-1,3.39,3.39,0,0,1-1.17-2.65,6.26,6.26,0,0,1,2.41-4.79,21.25,21.25,0,0,1,7.3-3.71l.51-3.61c.07-.41.15-1,.25-1.64a11.12,11.12,0,0,1-3.07,4.74,6.32,6.32,0,0,1-4.17,1.56,4.14,4.14,0,0,1-3.35-1.35A5.11,5.11,0,0,1,203,56.66a11.55,11.55,0,0,1,.21-2.09c.14-.76.35-1.79.64-3.09s.45-2.11.58-2.81a11.27,11.27,0,0,0,.19-1.87c0-.82-.32-1.23-.95-1.23a3.12,3.12,0,0,0-1.75.73,10.32,10.32,0,0,0-2.14,2.24,1,1,0,0,1-.79.49.79.79,0,0,1-.63-.35,1.23,1.23,0,0,1-.27-.78,3.16,3.16,0,0,1,.72-1.79q2.61-3.59,6.11-3.59a3.2,3.2,0,0,1,2.45.95,3.94,3.94,0,0,1,.88,2.79A16.09,16.09,0,0,1,208,49c-.16.93-.41,2.11-.73,3.54-.21.86-.36,1.54-.46,2.06a7.44,7.44,0,0,0-.16,1.3,3,3,0,0,0,.47,1.87,2,2,0,0,0,1.61.56,4.08,4.08,0,0,0,2.83-1.52,14,14,0,0,0,2.61-4.62,33,33,0,0,0,1.68-7.58,2.72,2.72,0,0,1,.58-1.6,1.77,1.77,0,0,1,1.34-.48,1.59,1.59,0,0,1,1.79,1.8,3,3,0,0,1,0,.48c-.36,2.55-.69,4.84-1,6.89-.17,1.23-.35,2.49-.55,3.79s-.39,2.61-.57,3.94c1.24-.34,2.56-.65,3.94-.92A1.35,1.35,0,0,1,221.77,58.45Zm-8.22,4.66q-6.2,2.15-6.19,5.22A1.58,1.58,0,0,0,209.07,70q3.56,0,4.46-6.7Z"/><path class="cls-9" d="M234.65,56.71a1.74,1.74,0,0,1,.18.84c0,.82-.25,1.31-.75,1.46a11.54,11.54,0,0,1-3.38.61,6.33,6.33,0,0,1-1.92,3.45,4.72,4.72,0,0,1-3.25,1.29,4.56,4.56,0,0,1-2.62-.74,4.66,4.66,0,0,1-1.65-2,6.27,6.27,0,0,1-.57-2.67,7.72,7.72,0,0,1,.75-3.46,5.74,5.74,0,0,1,2-2.38,5.14,5.14,0,0,1,2.9-.86,4,4,0,0,1,3.13,1.34,5.75,5.75,0,0,1,1.4,3.32,14.57,14.57,0,0,0,2.86-.52,1.81,1.81,0,0,1,.36-.05A.56.56,0,0,1,234.65,56.71ZM227.16,61a3.62,3.62,0,0,0,.8-1.92,3.6,3.6,0,0,1-1.21-1.41,4.17,4.17,0,0,1-.42-1.84,4.54,4.54,0,0,1,.07-.82h-.13a2,2,0,0,0-1.7,1,4.84,4.84,0,0,0-.68,2.77,3.61,3.61,0,0,0,.55,2.15,1.59,1.59,0,0,0,1.3.75A1.85,1.85,0,0,0,227.16,61Z"/><path class="cls-9" d="M233.35,63.3a4.62,4.62,0,0,1-.73-2.65,22.44,22.44,0,0,1,.26-3.52,22,22,0,0,1,.84-3.39,2.14,2.14,0,0,1,.72-1.1,2.46,2.46,0,0,1,1.46-.34,1.24,1.24,0,0,1,.78.18.65.65,0,0,1,.22.54,9.82,9.82,0,0,1-.28,1.38c-.17.63-.31,1.21-.41,1.72a24.19,24.19,0,0,0-.51,3.58,1.72,1.72,0,0,0,.12.76.46.46,0,0,0,.41.21c.26,0,.58-.25,1-.76a11,11,0,0,0,1.23-2.33,30.25,30.25,0,0,0,1.27-3.84,1.68,1.68,0,0,1,1.89-1.44,1.71,1.71,0,0,1,.82.14.56.56,0,0,1,.23.53,24.41,24.41,0,0,1-.64,3.51,29.09,29.09,0,0,0-.71,4,1.23,1.23,0,0,0,.2.76.65.65,0,0,0,.54.26,1.94,1.94,0,0,0,1.21-.62,21.18,21.18,0,0,0,1.89-2,.88.88,0,0,1,.69-.36.6.6,0,0,1,.52.31,1.6,1.6,0,0,1,.19.85,2.35,2.35,0,0,1-.48,1.58,11.23,11.23,0,0,1-2.37,2.23,5,5,0,0,1-2.88.87,2,2,0,0,1-1.81-1,5.18,5.18,0,0,1-.57-2.66,6.06,6.06,0,0,1-1.31,2.68,2.54,2.54,0,0,1-1.87.93A2.21,2.21,0,0,1,233.35,63.3Z"/><path class="cls-9" d="M255.75,56.21a1.3,1.3,0,0,1,.4,1,2,2,0,0,1-.15.72,4.42,4.42,0,0,1-1.16,1.59,2.48,2.48,0,0,1-1.64.64,1.6,1.6,0,0,1-1.21-.52,1.9,1.9,0,0,1-.5-1.38c0-.32,0-.67,0-1.05s.05-.46.05-.56a.46.46,0,0,0-.09-.31.27.27,0,0,0-.22-.1c-.23,0-.56.29-1,.86a12.4,12.4,0,0,0-1.23,2.26,17.84,17.84,0,0,0-1,3,4,4,0,0,1-.65,1.64,1.48,1.48,0,0,1-1.17.41,1.39,1.39,0,0,1-1.37-1,9.71,9.71,0,0,1-.4-3.28,20.84,20.84,0,0,1,.95-6.32,1.89,1.89,0,0,1,.75-1.09,2.68,2.68,0,0,1,1.48-.35,1.45,1.45,0,0,1,.71.13.53.53,0,0,1,.21.49,9.57,9.57,0,0,1-.39,1.84c-.17.68-.3,1.28-.41,1.79s-.18,1.15-.25,1.9a14.42,14.42,0,0,1,1.89-3.59,7.45,7.45,0,0,1,2.05-2,3.69,3.69,0,0,1,1.82-.59,1.48,1.48,0,0,1,1.14.43,1.76,1.76,0,0,1,.39,1.24,10.83,10.83,0,0,1-.28,1.84h.23A1.28,1.28,0,0,1,255.75,56.21Z"/><path class="cls-9" d="M268.3,63.34a7.47,7.47,0,0,1-2.91-3,9.8,9.8,0,0,1-1.07-4.75,15.69,15.69,0,0,1,1.42-6.86,10.93,10.93,0,0,1,3.86-4.58A9.61,9.61,0,0,1,275,42.52a8.29,8.29,0,0,1,4.1,1,7.29,7.29,0,0,1,2.91,3,9.76,9.76,0,0,1,1.08,4.74,15.85,15.85,0,0,1-1.42,6.87,11.09,11.09,0,0,1-3.87,4.58,9.68,9.68,0,0,1-5.42,1.61A8.29,8.29,0,0,1,268.3,63.34Zm7.88-3.23a7.68,7.68,0,0,0,2.34-3.42,14,14,0,0,0,.82-4.95,7.15,7.15,0,0,0-1.28-4.62,4,4,0,0,0-3.3-1.57,5.4,5.4,0,0,0-3.48,1.21,8,8,0,0,0-2.36,3.41,13.74,13.74,0,0,0-.84,5,7.22,7.22,0,0,0,1.28,4.63,4,4,0,0,0,3.3,1.57A5.43,5.43,0,0,0,276.18,60.11Z"/><path class="cls-9" d="M304.15,56.42a.73.73,0,0,1,.59.26,1.11,1.11,0,0,1,.2.69,2.11,2.11,0,0,1-.31,1.24,1.74,1.74,0,0,1-.92.66,8.19,8.19,0,0,1-2.51.38,7,7,0,0,1-2.12-.31c-.5.81-1,1.63-1.64,2.49a9.06,9.06,0,0,1-1.75,2,2.72,2.72,0,0,1-1.65.54,1.73,1.73,0,0,1-1.55-.79,5.69,5.69,0,0,1-.66-2.61l-.12-1.87a25.85,25.85,0,0,1-1.42,3.27A4.56,4.56,0,0,1,289,63.93a2.52,2.52,0,0,1-1.47.43,1.92,1.92,0,0,1-1.65-.82,5.26,5.26,0,0,1-.76-2.58q-.3-3.59-.3-6.28v-.89a1.43,1.43,0,0,1,.46-1.18,2.13,2.13,0,0,1,1.3-.33,1.46,1.46,0,0,1,1,.29,1.32,1.32,0,0,1,.32,1q0,2.94.36,7.65c1.16-2.44,2.22-5,3.2-7.63a2,2,0,0,1,.67-1,1.69,1.69,0,0,1,1-.27,1.27,1.27,0,0,1,1,.28,1.44,1.44,0,0,1,.27,1q0,2.94.36,7.65c1-1.52,1.79-2.73,2.31-3.63a3.79,3.79,0,0,1-.39-1.77,3.9,3.9,0,0,1,.39-1.69,3.39,3.39,0,0,1,1.05-1.33,2.4,2.4,0,0,1,1.51-.51,1.53,1.53,0,0,1,1.2.52,2.24,2.24,0,0,1,.46,1.53,7.2,7.2,0,0,1-.61,2.63,17.81,17.81,0,0,0,2.58-.38l.69-.13A.79.79,0,0,1,304.15,56.42Z"/><path class="cls-9" d="M303.16,63.34a10,10,0,0,1-.39-3.28,20.83,20.83,0,0,1,.94-6.32,2,2,0,0,1,.76-1.09,2.66,2.66,0,0,1,1.47-.35,1.53,1.53,0,0,1,.72.13.55.55,0,0,1,.2.49,10.09,10.09,0,0,1-.38,1.84c-.17.68-.31,1.28-.41,1.79s-.19,1.15-.26,1.9a14.76,14.76,0,0,1,1.9-3.59,7.33,7.33,0,0,1,2.06-2,3.75,3.75,0,0,1,1.85-.59A1.5,1.5,0,0,1,313.29,54a22,22,0,0,1-.28,2.51c-.18,1-.31,2-.41,3a26.75,26.75,0,0,0-.16,3.11,2,2,0,0,1-.39,1.4,1.74,1.74,0,0,1-1.3.42,1.57,1.57,0,0,1-1.23-.43,2,2,0,0,1-.38-1.31,25.63,25.63,0,0,1,.36-3.38,25.51,25.51,0,0,0,.31-2.61c0-.27-.1-.41-.29-.41s-.53.29-.93.86a13.75,13.75,0,0,0-1.23,2.26,17.89,17.89,0,0,0-1,3,4.1,4.1,0,0,1-.65,1.63,1.49,1.49,0,0,1-1.17.42A1.4,1.4,0,0,1,303.16,63.34Z"/><path class="cls-9" d="M323.58,63.14a4.34,4.34,0,0,1-2.05-4A3.87,3.87,0,0,1,322,57a1.58,1.58,0,0,1,1.43-.74,1.72,1.72,0,0,1,1.13.36,1.11,1.11,0,0,1,.43.92,4.66,4.66,0,0,1-.07.89c0,.07,0,.19,0,.36a3.12,3.12,0,0,0,0,.54A1.81,1.81,0,0,0,326,61.08a7.61,7.61,0,0,0,3.27.57,6.31,6.31,0,0,0,3.4-.78,2.46,2.46,0,0,0,1.23-2.19,2.2,2.2,0,0,0-.56-1.5,4.73,4.73,0,0,0-1.41-1c-.56-.28-1.36-.63-2.38-1a24.09,24.09,0,0,1-3.21-1.46,6.58,6.58,0,0,1-2.13-1.88,4.8,4.8,0,0,1-.88-3,5.71,5.71,0,0,1,1-3.28,6.42,6.42,0,0,1,2.84-2.23,11.07,11.07,0,0,1,4.37-.79,10.2,10.2,0,0,1,3.43.55,5.57,5.57,0,0,1,2.5,1.68,4.19,4.19,0,0,1,.93,2.76,4.75,4.75,0,0,1-.49,2.43,1.68,1.68,0,0,1-2.54.41,1.26,1.26,0,0,1-.45-1,4.31,4.31,0,0,1,.08-.9c.05-.51.07-.83.07-1A1.78,1.78,0,0,0,334,45.85a5.54,5.54,0,0,0-2.61-.56,5.83,5.83,0,0,0-3.36.81,2.58,2.58,0,0,0-1.17,2.26,2.44,2.44,0,0,0,.6,1.66,4.86,4.86,0,0,0,1.5,1.16c.6.3,1.43.67,2.51,1.1a31.92,31.92,0,0,1,3.12,1.43,6.21,6.21,0,0,1,2,1.74,4.36,4.36,0,0,1,.83,2.72,5.34,5.34,0,0,1-2.29,4.64A10.35,10.35,0,0,1,329,64.44,10,10,0,0,1,323.58,63.14Z"/><path class="cls-9" d="M340.23,63.3a4.55,4.55,0,0,1-.73-2.65,22.44,22.44,0,0,1,.26-3.52,22,22,0,0,1,.84-3.39,2.08,2.08,0,0,1,.72-1.1,2.46,2.46,0,0,1,1.46-.34,1.28,1.28,0,0,1,.78.18.68.68,0,0,1,.22.54,10.69,10.69,0,0,1-.29,1.38c-.17.63-.3,1.21-.41,1.72a24.19,24.19,0,0,0-.51,3.58,1.57,1.57,0,0,0,.13.76.45.45,0,0,0,.41.21c.26,0,.58-.25,1-.76a12,12,0,0,0,1.23-2.33,31.94,31.94,0,0,0,1.27-3.84,1.94,1.94,0,0,1,.62-1.1,2,2,0,0,1,1.27-.34,1.74,1.74,0,0,1,.82.14.58.58,0,0,1,.23.53,24.41,24.41,0,0,1-.64,3.51,28.19,28.19,0,0,0-.72,4,1.23,1.23,0,0,0,.21.76.62.62,0,0,0,.54.26,2,2,0,0,0,1.21-.62,20.11,20.11,0,0,0,1.88-2,.91.91,0,0,1,.69-.36.6.6,0,0,1,.53.31,1.6,1.6,0,0,1,.19.85,2.3,2.3,0,0,1-.49,1.58,11.19,11.19,0,0,1-2.36,2.23,5,5,0,0,1-2.88.87,2,2,0,0,1-1.81-1,5.18,5.18,0,0,1-.57-2.66A6.06,6.06,0,0,1,344,63.43a2.54,2.54,0,0,1-1.87.93A2.19,2.19,0,0,1,340.23,63.3Z"/><path class="cls-9" d="M351.78,63.34a9.71,9.71,0,0,1-.4-3.28,20.53,20.53,0,0,1,.95-6.32,1.89,1.89,0,0,1,.75-1.09,2.66,2.66,0,0,1,1.47-.35,1.5,1.5,0,0,1,.72.13.53.53,0,0,1,.21.49,9.57,9.57,0,0,1-.39,1.84c-.17.68-.31,1.28-.41,1.79a17.12,17.12,0,0,0-.25,1.9,14.42,14.42,0,0,1,1.89-3.59,7.47,7.47,0,0,1,2.06-2,3.76,3.76,0,0,1,1.86-.59A1.47,1.47,0,0,1,361.9,54a21.09,21.09,0,0,1-.56,3.61,17.15,17.15,0,0,0-.49,2.94c0,.68.25,1,.74,1a2,2,0,0,0,1.22-.62,20.11,20.11,0,0,0,1.88-2,.91.91,0,0,1,.69-.36.62.62,0,0,1,.53.31,1.7,1.7,0,0,1,.19.85,2.3,2.3,0,0,1-.49,1.58,11,11,0,0,1-2.37,2.23,5,5,0,0,1-2.88.87,2.5,2.5,0,0,1-2-.75,3.26,3.26,0,0,1-.66-2.19,15.9,15.9,0,0,1,.36-2.56,13.44,13.44,0,0,0,.33-2.23c0-.27-.1-.41-.28-.41s-.54.29-.94.86A13.75,13.75,0,0,0,356,59.34a18.86,18.86,0,0,0-1,3,4,4,0,0,1-.65,1.63,1.48,1.48,0,0,1-1.16.42A1.39,1.39,0,0,1,351.78,63.34Z"/><path class="cls-9" d="M379.09,58.83a1.6,1.6,0,0,1,.19.85,2.35,2.35,0,0,1-.48,1.58,11.9,11.9,0,0,1-2.31,2.19,4.18,4.18,0,0,1-2.48.91q-2,0-3-2.28a7.34,7.34,0,0,1-1.88,1.82,3.72,3.72,0,0,1-1.88.46,3.28,3.28,0,0,1-2.58-1.16,4.5,4.5,0,0,1-1-3,8.45,8.45,0,0,1,.87-3.8,7.8,7.8,0,0,1,2.4-2.87,6.87,6.87,0,0,1,3.41-1.31,32.51,32.51,0,0,1,1.86-8.49q1.36-3.52,3.6-3.52a2.19,2.19,0,0,1,1.83,1,5.15,5.15,0,0,1,.73,3A19.92,19.92,0,0,1,377,50.9a50,50,0,0,1-3.76,7.88,5.41,5.41,0,0,0,.44,2.12,1,1,0,0,0,.89.64,2.15,2.15,0,0,0,1.4-.61,18,18,0,0,0,1.92-2,.92.92,0,0,1,.7-.36A.6.6,0,0,1,379.09,58.83Zm-9.94,2.55a7.88,7.88,0,0,0,1.22-1.47,17.3,17.3,0,0,1-.25-3.1c0-.41,0-1.08.05-2a4.28,4.28,0,0,0-2.34,1.88,5.78,5.78,0,0,0-.94,3.22c0,1.24.43,1.87,1.28,1.87A1.59,1.59,0,0,0,369.15,61.38Zm5.42-17a31.94,31.94,0,0,0-.83,4.51q-.35,2.79-.5,5.84,2.86-6.24,2.87-10a5.31,5.31,0,0,0-.17-1.51q-.17-.54-.39-.54C375.22,42.68,374.9,43.25,374.57,44.41Z"/><path class="cls-9" d="M377.57,63.21a4.63,4.63,0,0,1-.95-3,8.33,8.33,0,0,1,.95-3.88,8,8,0,0,1,2.52-2.94,5.64,5.64,0,0,1,3.34-1.12,1,1,0,0,1,.76.22,2,2,0,0,1,.31.78,5.94,5.94,0,0,1,1.13-.1c.84,0,1.26.3,1.26.89a18.71,18.71,0,0,1-.39,2.56,25.29,25.29,0,0,0-.59,4.1.9.9,0,0,0,.2.61.58.58,0,0,0,.49.23,1.91,1.91,0,0,0,1.18-.62,23,23,0,0,0,1.87-2,.91.91,0,0,1,.69-.36.62.62,0,0,1,.53.31,1.7,1.7,0,0,1,.19.85,2.3,2.3,0,0,1-.49,1.58,12.79,12.79,0,0,1-2.22,2.2,3.81,3.81,0,0,1-2.28.9,2.35,2.35,0,0,1-1.55-.58,3.37,3.37,0,0,1-1.06-1.57,3.91,3.91,0,0,1-3.36,2.15A3.09,3.09,0,0,1,377.57,63.21Zm4.53-2.1a4.24,4.24,0,0,0,.74-1.77l1-4.71a3.14,3.14,0,0,0-2,.81,5.52,5.52,0,0,0-1.44,2.06,6.9,6.9,0,0,0-.54,2.71,1.83,1.83,0,0,0,.32,1.18,1.08,1.08,0,0,0,.88.39A1.42,1.42,0,0,0,382.1,61.11Z"/><path class="cls-9" d="M398.67,59.6a1.56,1.56,0,0,1,.2.84,2.83,2.83,0,0,1-.44,1.59,5,5,0,0,1-1.88,1.72,5.88,5.88,0,0,1-2.78.61A4.91,4.91,0,0,1,390,62.89a5.62,5.62,0,0,1-1.36-4,7.45,7.45,0,0,1,.74-3.29,6.1,6.1,0,0,1,2.06-2.42,5.19,5.19,0,0,1,3-.9,3.07,3.07,0,0,1,3.27,3.28,4.13,4.13,0,0,1-1.26,3,9.15,9.15,0,0,1-4.32,2,2.14,2.14,0,0,0,2.07,1.18,2.84,2.84,0,0,0,1.73-.49,8.23,8.23,0,0,0,1.58-1.63.86.86,0,0,1,.69-.39A.57.57,0,0,1,398.67,59.6Zm-6.32-3.69a5.19,5.19,0,0,0-.65,2.66v.06a5.84,5.84,0,0,0,2.38-1.08,2.11,2.11,0,0,0,.87-1.66,1.09,1.09,0,0,0-.27-.78.93.93,0,0,0-.73-.3A1.89,1.89,0,0,0,392.35,55.91Z"/><path class="cls-9" d="M400.85,63.75a2.29,2.29,0,0,1-.58-1.62,2.56,2.56,0,0,1,.66-1.84,2.38,2.38,0,0,1,1.83-.69,2.35,2.35,0,0,1,1.7.55,2.17,2.17,0,0,1,.58,1.63,2.65,2.65,0,0,1-.67,1.88,2.37,2.37,0,0,1-1.82.7A2.21,2.21,0,0,1,400.85,63.75ZM402.68,58a.8.8,0,0,1-.33-.71l0-.21c.29-1.91.69-4.09,1.18-6.53s1-4.55,1.38-6.32a2.05,2.05,0,0,1,2.23-1.64c1.09,0,1.64.35,1.64,1a2.05,2.05,0,0,1-.08.51q-.66,2.72-1.76,6.57t-2.1,6.69a1.24,1.24,0,0,1-1.34.82A1.39,1.39,0,0,1,402.68,58Z"/><path class="cls-11" d="M11.72,430.27s-.25-16.67-10.18-17c0,0,9.12-1.67,14.26,8.5,0,0-1.56-14.85,3.55-17.17,0,0-3.41,20.67,3.59,23.33,0,0-.33-14,5.33-16,0,0-4.66,17.67,0,18.34s2.3-11.09,2.3-11.09,6.81,8.48,4.59,11.11Z"/><path class="cls-11" d="M415.89,427.07s.25-16.67,10.13-17c0,0-9.08-1.67-14.2,8.5,0,0,1.56-14.85-3.53-17.17,0,0,3.39,20.67-3.58,23.33,0,0,.34-14-5.31-16,0,0,4.65,17.67,0,18.34S397.12,416,397.12,416s-6.78,8.48-4.57,11.12Z"/><g id="Converyer_belt" data-name="Converyer belt"><rect class="cls-12" x="22.94" y="248.04" width="385.65" height="8.5" rx="4.25" ry="4.25"/><circle class="cls-13" cx="28.04" cy="252.29" r="2.53"/><circle class="cls-13" cx="49.29" cy="252.29" r="2.53"/><circle class="cls-13" cx="94.35" cy="252.29" r="2.53"/><circle class="cls-13" cx="71.29" cy="252.29" r="2.53"/><circle class="cls-13" cx="116.34" cy="252.29" r="2.53"/><circle class="cls-13" cx="137.59" cy="252.29" r="2.53"/><circle class="cls-13" cx="182.65" cy="252.29" r="2.53"/><circle class="cls-13" cx="159.59" cy="252.29" r="2.53"/><circle class="cls-13" cx="204.63" cy="252.29" r="2.53"/><circle class="cls-13" cx="226.71" cy="252.29" r="2.53"/><circle class="cls-13" cx="270.65" cy="252.29" r="2.53"/><circle class="cls-13" cx="248.71" cy="252.29" r="2.53"/><circle class="cls-13" cx="291.59" cy="252.29" r="2.53"/><circle class="cls-13" cx="313.63" cy="252.29" r="2.53"/><circle class="cls-13" cx="356.84" cy="252.29" r="2.53"/><circle class="cls-13" cx="334.84" cy="252.29" r="2.53"/><circle class="cls-13" cx="403.02" cy="252.35" r="2.53"/><circle class="cls-13" cx="380.96" cy="252.29" r="2.53"/><circle class="cls-14" cx="28.04" cy="252.29" r="0.65"/><circle class="cls-14" cx="49.29" cy="252.29" r="0.65"/><circle class="cls-14" cx="71.29" cy="252.29" r="0.65"/><circle class="cls-14" cx="94.35" cy="252.29" r="0.65"/><circle class="cls-14" cx="116.34" cy="252.29" r="0.65"/><circle class="cls-14" cx="182.64" cy="252.29" r="0.65"/><circle class="cls-14" cx="204.63" cy="252.29" r="0.65"/><circle class="cls-14" cx="137.6" cy="252.29" r="0.65"/><circle class="cls-14" cx="159.59" cy="252.29" r="0.65"/><circle class="cls-14" cx="226.67" cy="252.29" r="0.65"/><circle class="cls-14" cx="248.61" cy="252.29" r="0.65"/><circle class="cls-14" cx="270.65" cy="252.29" r="0.65"/><circle class="cls-14" cx="291.59" cy="252.29" r="0.65"/><circle class="cls-14" cx="313.63" cy="252.29" r="0.65"/><circle class="cls-14" cx="334.8" cy="252.29" r="0.65"/><path class="cls-14" d="M356.84,251.64a.65.65,0,1,1-.65.65A.65.65,0,0,1,356.84,251.64Z"/><circle class="cls-14" cx="380.92" cy="252.29" r="0.65"/><path class="cls-14" d="M403,251.64a.65.65,0,1,1-.65.65A.65.65,0,0,1,403,251.64Z"/></g></g><g id="icmachine"><g id="icmachine-2" data-name="icmachine"><path class="cls-10" d="M38.46,242.07,33.27,245s-1.54,1.79.36,2,64.29,0,64.29,0,5.09.52,3.63-1.59A12.61,12.61,0,0,0,98,242.07Z"/><rect class="cls-15" x="41.89" y="140.79" width="59.92" height="101.68" rx="3.58" ry="3.58"/><path class="cls-16" d="M97.12,142.16H39.33a.87.87,0,0,0-.87.87v96.66H98V143A.88.88,0,0,0,97.12,142.16Z"/><rect class="cls-13" x="38.46" y="146.59" width="59.53" height="1.43"/><polygon class="cls-17" points="68.23 156.4 71.21 161.56 74.18 166.71 68.23 166.71 62.28 166.71 65.25 161.56 68.23 156.4"/><rect class="cls-14" x="41.89" y="180.09" width="52.67" height="56.28"/><rect class="cls-18" x="62.77" y="193.54" width="11.95" height="0.4" rx="0.2" ry="0.2"/><rect class="cls-14" x="40.36" y="143.35" width="55.1" height="0.48" rx="0.24" ry="0.24"/><rect class="cls-13" x="38.38" y="179.73" width="59.53" height="0.36"/><path class="cls-9" d="M87.94,170.37v21.82H48.52V170.08a1.9,1.9,0,0,0-3.8,0v24A1.72,1.72,0,0,0,46,195.82a1.86,1.86,0,0,0,.81.17H89.52a1.94,1.94,0,0,0,.56-.08,1.77,1.77,0,0,0,1.66-1.82V170.37A1.9,1.9,0,0,0,87.94,170.37Z"/><rect class="cls-19" x="38.46" y="149.28" width="18.37" height="21.08"/><rect class="cls-3" x="40.36" y="152.68" width="14.25" height="17.68"/><polygon class="cls-9" points="50.15 163.02 49.51 163.02 50.15 162.24 49.82 162.02 49.08 163.02 47.22 163.02 48.57 161.67 49.8 161.78 49.78 161.37 48.88 161.36 49.29 160.94 49.01 160.66 48.61 161.06 48.51 160.13 48.13 160.22 48.31 161.36 46.94 162.74 46.94 160.83 47.78 160.18 47.48 159.9 46.94 160.39 46.94 159.8 46.54 159.8 46.54 160.42 45.92 159.89 45.71 160.22 46.54 160.84 46.54 162.74 45.37 161.57 45.39 160.33 44.98 160.38 45.04 161.24 44.46 160.66 44.18 160.94 44.8 161.56 43.85 161.74 43.96 162.12 45.08 161.85 46.26 163.02 44.61 163.02 43.75 162.08 43.49 162.39 44.15 163.02 43.32 163.02 43.32 163.42 44.14 163.42 43.59 164.16 43.93 164.36 44.55 163.42 46.26 163.42 44.9 164.77 43.67 164.74 43.71 165.15 44.57 165.11 44.18 165.49 44.46 165.78 44.89 165.34 45.06 166.3 45.43 166.19 45.18 165.06 46.54 163.7 46.54 165.42 45.59 166.19 45.89 166.47 46.54 165.86 46.54 166.63 46.94 166.63 46.94 165.87 47.66 166.47 47.88 166.15 46.94 165.44 46.94 163.7 48.1 164.86 47.84 165.98 48.25 166.02 48.39 165.15 49.01 165.78 49.29 165.49 48.7 164.9 49.65 164.92 49.62 164.54 48.36 164.56 47.22 163.42 49.14 163.42 49.87 164.31 50.15 164.01 49.59 163.42 50.15 163.42 50.15 163.02"/><rect class="cls-19" x="79.63" y="149.28" width="18.37" height="21.08"/><rect class="cls-3" x="81.69" y="152.68" width="14.25" height="17.68"/><rect class="cls-19" x="54.67" y="187.49" width="26.82" height="1.95"/><polygon class="cls-9" points="92.38 163.02 91.73 163.02 92.37 162.24 92.04 162.02 91.3 163.02 89.44 163.02 90.79 161.67 92.02 161.78 92 161.37 91.1 161.36 91.52 160.94 91.23 160.66 90.83 161.06 90.73 160.13 90.35 160.22 90.53 161.36 89.16 162.74 89.16 160.83 90 160.18 89.7 159.9 89.16 160.39 89.16 159.8 88.76 159.8 88.76 160.42 88.14 159.89 87.93 160.22 88.76 160.84 88.76 162.74 87.6 161.57 87.61 160.33 87.2 160.38 87.26 161.24 86.68 160.66 86.4 160.94 87.02 161.56 86.07 161.74 86.18 162.12 87.31 161.85 88.48 163.02 86.83 163.02 85.97 162.08 85.71 162.39 86.37 163.02 85.54 163.02 85.54 163.42 86.36 163.42 85.81 164.16 86.15 164.36 86.77 163.42 88.48 163.42 87.12 164.77 85.89 164.74 85.93 165.15 86.79 165.11 86.4 165.49 86.68 165.78 87.11 165.34 87.28 166.3 87.66 166.19 87.4 165.06 88.76 163.7 88.76 165.42 87.81 166.19 88.11 166.47 88.76 165.86 88.76 166.63 89.16 166.63 89.16 165.87 89.89 166.47 90.1 166.15 89.16 165.44 89.16 163.7 90.32 164.86 90.06 165.98 90.47 166.02 90.61 165.15 91.23 165.78 91.52 165.49 90.92 164.9 91.87 164.92 91.84 164.54 90.58 164.56 89.44 163.42 91.36 163.42 92.09 164.31 92.38 164.01 91.81 163.42 92.38 163.42 92.38 163.02"/><rect class="cls-16" x="57.94" y="180.12" width="20.43" height="10.53" rx="2.63" ry="2.63"/><polygon class="cls-20" points="68.1 183.61 67.11 181.85 66.13 180.1 68.14 180.12 70.15 180.15 69.12 181.88 68.1 183.61"/><rect class="cls-13" x="61.07" y="191.2" width="14.15" height="5.75" rx="1.5" ry="1.5"/><path class="cls-21" d="M63.09,192.05a.9.9,0,0,0-.9.91v4H62a.9.9,0,0,1-.9-.9V192.1a.9.9,0,0,1,.9-.9H74.32a.9.9,0,0,1,.9.85Z"/><path class="cls-13" d="M74.3,186.71a.25.25,0,0,0-.23-.33H62.4c-.36,0-.43.19-.43.34v2.39a.26.26,0,0,0,.52,0v-2.22H73.81v2.3a.26.26,0,0,0,.51,0v-2.38A.16.16,0,0,0,74.3,186.71Z"/><line class="cls-22" x1="76.75" y1="174.41" x2="76.75" y2="178.68"/><rect class="cls-9" x="67.19" y="196.94" width="1.93" height="3.06"/><rect class="cls-23" x="67.46" y="197.18" width="0.41" height="2.61"/><path class="cls-19" d="M38.46,239.69H98a0,0,0,0,1,0,0v.69a3,3,0,0,1-3,3H41.46a3,3,0,0,1-3-3v-.69A0,0,0,0,1,38.46,239.69Z"/><rect class="cls-3" x="38.46" y="241.43" width="59.53" height="0.63"/></g><g id="Handle"><path class="cls-19" d="M82.45,175.31a1.52,1.52,0,0,0-.39-.06H54c-1.24,0-1,2.49-1,2.69v11.72a1.27,1.27,0,0,0,2.53,0V177.94c0-.05,0-.1,0-.16H81v11.81a1.27,1.27,0,0,0,2.54,0V176.52A1.18,1.18,0,0,0,82.45,175.31Z"/><path class="cls-24" d="M59.81,174.41H76.49a1.87,1.87,0,0,1,1.87,1.87v.53a1.87,1.87,0,0,1-1.87,1.87H59.81a1.88,1.88,0,0,1-1.88-1.88v-.53a1.88,1.88,0,0,1,1.88-1.88Z"/><line class="cls-22" x1="59.55" y1="174.41" x2="59.55" y2="178.68"/><rect class="cls-25" x="60.21" y="174.72" width="14.51" height="0.37" rx="0.18" ry="0.18"/></g><polygon class="cls-19" points="68.23 156.4 68.23 166.71 62.28 166.71 68.23 156.4"/></g><g id="toppingmachine"><g id="topping_machine" data-name="topping machine"><path class="cls-15" d="M114.45,142.71l-.2,100.88a2.77,2.77,0,0,0,2.77,2.77h6.64a2.78,2.78,0,0,0,2.78-2.77l.2-61.25a2.77,2.77,0,0,1,2.77-2.77H311.23a2.77,2.77,0,0,1,2.78,2.77l-.38,61.41a2.77,2.77,0,0,0,2.77,2.78h7.38a2.77,2.77,0,0,0,2.78-2.78l.38-101.87a2.78,2.78,0,0,0-2.79-2.78l-206.94.84A2.77,2.77,0,0,0,114.45,142.71Z"/><path class="cls-9" d="M111.54,145.74v97.85a2.77,2.77,0,0,0,2.77,2.77H121a2.77,2.77,0,0,0,2.77-2.77V185.37a2.78,2.78,0,0,1,2.78-2.77H308.32a2.77,2.77,0,0,1,2.77,2.77v58.38a2.78,2.78,0,0,0,2.78,2.78h7.38a2.77,2.77,0,0,0,2.77-2.78V144.91a2.76,2.76,0,0,0-2.78-2.77L114.3,143A2.77,2.77,0,0,0,111.54,145.74Z"/><rect class="cls-9" x="135.8" y="182.6" width="4.4" height="5.22"/><rect class="cls-23" x="136.12" y="182.93" width="1.16" height="4.42"/><rect class="cls-9" x="212.23" y="182.53" width="4.4" height="5.22"/><rect class="cls-23" x="212.53" y="182.93" width="1.16" height="4.42"/><rect class="cls-9" x="293.43" y="182.6" width="4.4" height="5.22"/><rect class="cls-23" x="293.74" y="182.93" width="1.16" height="4.42"/></g><rect class="cls-3" x="157.27" y="156.38" width="3.25" height="11.58"/><rect class="cls-4" x="161.11" y="156.38" width="3.25" height="11.58"/><rect class="cls-1" x="164.97" y="156.38" width="3.25" height="11.58"/><rect class="cls-3" x="168.86" y="156.38" width="3.25" height="11.58"/><rect class="cls-4" x="172.69" y="156.38" width="3.25" height="11.58"/><rect class="cls-1" x="176.56" y="156.38" width="3.25" height="11.58"/><rect class="cls-3" x="180.61" y="156.38" width="3.25" height="11.58"/><rect class="cls-4" x="184.44" y="156.38" width="3.25" height="11.58"/><rect class="cls-1" x="188.31" y="156.38" width="3.25" height="11.58"/><rect class="cls-3" x="238.77" y="156.19" width="3.25" height="11.58"/><rect class="cls-4" x="242.61" y="156.19" width="3.25" height="11.58"/><rect class="cls-1" x="246.47" y="156.19" width="3.25" height="11.58"/><rect class="cls-3" x="250.36" y="156.19" width="3.25" height="11.58"/><rect class="cls-4" x="254.19" y="156.19" width="3.25" height="11.58"/><rect class="cls-1" x="258.06" y="156.19" width="3.25" height="11.58"/><rect class="cls-3" x="262.11" y="156.19" width="3.25" height="11.58"/><rect class="cls-4" x="265.94" y="156.19" width="3.25" height="11.58"/><rect class="cls-1" x="269.81" y="156.19" width="3.25" height="11.58"/></g><g id="bowl"><path id="Bowl-2" data-name="Bowl" class="cls-9" d="M68.08,225.56c-7.56-.22-18.49-2.64-18.49-2.64S52,230.07,56,231.7a54.91,54.91,0,0,0,8.32,2.53l0,1.68a26.51,26.51,0,0,0-5.07,1.77,58.64,58.64,0,0,0,8.71,1h.17c5-.37,8.72-1,8.72-1a26.51,26.51,0,0,0-5.07-1.77l0-1.68a54.91,54.91,0,0,0,8.32-2.53c4-1.63,6.39-8.78,6.39-8.78S75.64,225.34,68.08,225.56Z"/><path class="cls-26" d="M49.59,222.92s6.2,1.21,7.16,1.36-1.59,3.87,4.66,6.22,4.29,3.15,4.29,3.15l0,2.94-3.84,1.53-2.61-.44a11.6,11.6,0,0,1,4.42-1.84v-1.75s-7.23-1.7-8.62-2.87S52.26,229.78,49.59,222.92Z"/></g><g id="chocobutton"><polygon class="cls-27" points="139.05 153.95 128.84 153.95 127.49 154.61 129.22 154.61 134.08 162.81 139.27 171.59 144.15 162.88 149.26 153.95 139.05 153.95"/><polygon class="cls-27" points="137.87 172.24 139.27 171.59 138.74 170.69 137.87 172.24"/><g id="Chocolate_Icon" data-name="Chocolate Icon"><polygon class="cls-17" points="137.91 172.18 142.79 163.47 147.9 154.54 137.69 154.54 127.47 154.54 132.72 163.41 137.91 172.18"/><polygon class="cls-19" points="127.47 154.54 137.96 154.54 137.91 172.18 127.47 154.54"/><circle class="cls-9" cx="137.96" cy="160.94" r="5.13"/><path class="cls-23" d="M138,155.82a5.13,5.13,0,0,0,0,10.25Z"/><polygon class="cls-28" points="136.66 164.11 136.82 164.47 137.15 164.2 136.95 164.07 136.66 164.11"/><polygon class="cls-28" points="137.48 164.07 137.65 164.27 137.79 164.17 137.63 163.81 137.48 164.07"/><polygon class="cls-28" points="137.38 164.79 137.27 164.96 137.38 165.03 137.72 164.96 137.38 164.79"/><polygon class="cls-29" points="134.17 161.65 134.17 162 136.56 163.99 136.58 163.75 136.58 163.27 137.17 163.47 137.6 163.26 138.06 163.96 141.17 158.94 141.21 158.49 134.17 161.65"/><polygon class="cls-28" points="137.44 156.86 141.21 158.49 138.04 163.66 137.65 163.08 137.19 163.35 136.5 163.1 136.58 163.6 134.17 161.65 137.44 156.86"/><polygon class="cls-29" points="137.64 157.31 136.84 158.51 137.57 158.9 138.37 157.62 137.64 157.31"/><polygon class="cls-29" points="138.7 157.78 137.91 158.98 138.64 159.37 139.44 158.09 138.7 157.78"/><polygon class="cls-29" points="139.81 158.29 139.01 159.49 139.74 159.88 140.54 158.6 139.81 158.29"/><polygon class="cls-29" points="136.62 158.83 135.76 159.99 136.47 160.42 137.34 159.18 136.62 158.83"/><polygon class="cls-29" points="137.66 159.36 136.8 160.52 137.51 160.95 138.37 159.71 137.66 159.36"/><polygon class="cls-29" points="138.74 159.93 137.88 161.09 138.59 161.51 139.45 160.28 138.74 159.93"/><polygon class="cls-29" points="135.54 160.34 134.64 161.47 135.34 161.92 136.24 160.72 135.54 160.34"/><polygon class="cls-29" points="136.56 160.91 135.66 162.04 136.35 162.49 137.26 161.29 136.56 160.91"/><polygon class="cls-29" points="137.62 161.51 136.72 162.64 137.41 163.1 138.32 161.89 137.62 161.51"/><polygon class="cls-28" points="137.66 157.41 136.99 158.42 137.61 158.75 138.28 157.67 137.66 157.41"/><polygon class="cls-28" points="138.69 157.91 138.02 158.92 138.64 159.25 139.31 158.17 138.69 157.91"/><polygon class="cls-28" points="139.8 158.4 139.12 159.44 139.75 159.78 140.44 158.67 139.8 158.4"/><polygon class="cls-28" points="136.61 158.97 135.9 159.93 136.49 160.28 137.2 159.26 136.61 158.97"/><polygon class="cls-28" points="137.63 159.51 136.92 160.47 137.51 160.83 138.23 159.8 137.63 159.51"/><polygon class="cls-28" points="138.73 160.06 138.02 161.02 138.61 161.38 139.32 160.35 138.73 160.06"/><polygon class="cls-28" points="135.51 160.5 134.79 161.4 135.34 161.77 136.07 160.81 135.51 160.5"/><polygon class="cls-28" points="136.55 161.06 135.82 161.97 136.38 162.34 137.12 161.36 136.55 161.06"/><polygon class="cls-28" points="137.61 161.68 136.89 162.58 137.44 162.94 138.17 161.98 137.61 161.68"/><polygon class="cls-30" points="136.99 158.42 138.28 157.67 137.61 158.75 136.99 158.42"/><polygon class="cls-30" points="138.02 158.92 139.31 158.17 138.64 159.25 138.02 158.92"/><polygon class="cls-30" points="139.12 159.44 140.44 158.67 139.75 159.78 139.12 159.44"/><polygon class="cls-30" points="138.02 161.02 139.32 160.35 138.61 161.38 138.02 161.02"/><polygon class="cls-30" points="136.92 160.47 138.23 159.8 137.51 160.83 136.92 160.47"/><polygon class="cls-30" points="135.9 159.93 137.2 159.26 136.49 160.28 135.9 159.93"/><polygon class="cls-30" points="134.79 161.4 136.07 160.81 135.34 161.77 134.79 161.4"/><polygon class="cls-30" points="135.82 161.97 137.12 161.36 136.38 162.34 135.82 161.97"/><polygon class="cls-30" points="136.89 162.58 138.17 161.98 137.44 162.94 136.89 162.58"/></g></g><g id="sprinklebutton"><polygon class="cls-27" points="215.56 153.88 205.34 153.88 204 154.54 205.73 154.54 210.59 162.75 215.78 171.52 220.66 162.81 225.77 153.88 215.56 153.88"/><polygon class="cls-27" points="214.38 172.18 215.78 171.52 215.25 170.63 214.38 172.18"/><g id="Sprinkle"><polygon class="cls-17" points="214.38 172.18 219.26 163.47 224.37 154.54 214.16 154.54 203.95 154.54 209.19 163.41 214.38 172.18"/><polygon class="cls-19" points="203.95 154.54 214.43 154.54 214.38 172.18 203.95 154.54"/></g><circle class="cls-9" cx="214.43" cy="160.87" r="5.13"/><path class="cls-23" d="M214.43,155.74a5.13,5.13,0,0,0,0,10.25Z"/><path class="cls-31" d="M212.1,159a2,2,0,0,1-1.29,1c-.64,0-.65,1,0,1a3,3,0,0,0,2.15-1.45C213.34,159,212.48,158.49,212.1,159Z"/><path class="cls-31" d="M217.86,158.68a2.91,2.91,0,0,0-1.73-1.07c-.63-.12-.9.84-.27,1a2.08,2.08,0,0,1,1.29.81C217.54,159.89,218.24,159.18,217.86,158.68Z"/><path class="cls-31" d="M215.88,162.06c-.52-.38-1,.48-.51.86.2.15.18.5.19.71,0,.64,1,.65,1,0A1.83,1.83,0,0,0,215.88,162.06Z"/><path class="cls-32" d="M218.27,160.75a2,2,0,0,1-1.18-.27.5.5,0,0,0-.5.86,3,3,0,0,0,1.68.41C218.92,161.72,218.92,160.72,218.27,160.75Z"/><path class="cls-32" d="M214.4,161.56a1.6,1.6,0,0,0-1.45.86c-.3.57.57,1.07.87.5a.59.59,0,0,1,.58-.36A.5.5,0,0,0,214.4,161.56Z"/><path class="cls-32" d="M214.78,158.06a2.55,2.55,0,0,1-1-.45c-.52-.38-1,.49-.5.86a3,3,0,0,0,1.25.55C215.15,159.15,215.41,158.18,214.78,158.06Z"/><path class="cls-33" d="M212.51,163.32c-.42-.1-.57-.53-.73-.89-.26-.59-1.12-.08-.86.51a2,2,0,0,0,1.32,1.34C212.87,164.43,213.14,163.46,212.51,163.32Z"/><path class="cls-33" d="M214.82,159.68a1.21,1.21,0,0,1-.8.27c-.64,0-.64,1,0,1a2.36,2.36,0,0,0,1.51-.56C216,160,215.32,159.29,214.82,159.68Z"/><path class="cls-33" d="M215.77,164.19a1.69,1.69,0,0,1-1.28-.33c-.52-.37-1,.49-.5.86a2.66,2.66,0,0,0,2,.44C216.67,165.05,216.4,164.09,215.77,164.19Z"/><path class="cls-33" d="M212.93,156.7a3.11,3.11,0,0,0-1.62,1c-.41.49.29,1.2.7.71a2.24,2.24,0,0,1,1.18-.78A.5.5,0,0,0,212.93,156.7Z"/><path class="cls-33" d="M218.5,161.56c-.13-.63-1.09-.36-1,.27a1.7,1.7,0,0,1-.28,1.33c-.35.54.51,1,.87.51A2.75,2.75,0,0,0,218.5,161.56Z"/><path class="cls-34" d="M210.73,160.56a3.89,3.89,0,0,0,1.9-1.4l.24.11s-.82,1.46-2,1.43Z"/><path class="cls-34" d="M215.7,162.37s.73.69.64.86a1.29,1.29,0,0,0-.48-1.06Z"/><path class="cls-34" d="M216,157.73l-.17.2s1.44.3,1.69,1h.23A3,3,0,0,0,216,157.73Z"/></g><g id="cherrybutton"><polygon class="cls-27" points="295.97 153.88 285.76 153.88 284.42 154.54 286.15 154.54 291 162.75 296.19 171.52 301.08 162.81 306.18 153.88 295.97 153.88"/><polygon class="cls-27" points="294.8 172.18 296.19 171.52 295.67 170.63 294.8 172.18"/><g id="cherry"><polygon class="cls-17" points="294.85 172.18 299.73 163.47 304.84 154.54 294.63 154.54 284.42 154.54 289.66 163.41 294.85 172.18"/><polygon class="cls-19" points="284.42 154.54 294.9 154.54 294.85 172.18 284.42 154.54"/><circle class="cls-9" cx="294.9" cy="160.94" r="5.13"/><path class="cls-23" d="M294.9,155.82a5.13,5.13,0,0,0,0,10.25Z"/></g><path class="cls-35" d="M292.38,162.15a1.15,1.15,0,0,0-.91.94,1.4,1.4,0,1,0,2.78-.05,1,1,0,0,0-.63-.82c-.31-.07-.67.28-.67.28A.52.52,0,0,0,292.38,162.15Z"/><path class="cls-36" d="M292.53,162.37s-.7.27-.71.73a1.31,1.31,0,0,0,.57,1.27c.46.24,0-.81,0-1.06S293.12,162.61,292.53,162.37Z"/><path class="cls-37" d="M292.17,162.74s-.35.14-.35.37a.65.65,0,0,0,.28.63c.23.12,0-.4,0-.53S292.47,162.86,292.17,162.74Z"/><path class="cls-37" d="M293.12,162.63s.33-.33.53-.26S293.46,162.64,293.12,162.63Z"/><path class="cls-38" d="M292.68,162.46s0,.2.35.17C293,162.63,292.43,162.87,292.68,162.46Z"/><path class="cls-35" d="M296,162.14a1.18,1.18,0,0,0-.89.92,1.37,1.37,0,1,0,2.72,0,1,1,0,0,0-.61-.81c-.3-.07-.66.28-.66.28S296.48,162.14,296,162.14Z"/><path class="cls-36" d="M296.14,162.36s-.68.26-.7.71a1.3,1.3,0,0,0,.57,1.25c.45.23,0-.79,0-1S296.72,162.6,296.14,162.36Z"/><path class="cls-37" d="M295.79,162.72s-.34.13-.35.36a.66.66,0,0,0,.28.62c.23.12,0-.39,0-.52S296.08,162.84,295.79,162.72Z"/><path class="cls-37" d="M296.72,162.62s.32-.32.51-.26S297.05,162.63,296.72,162.62Z"/><path class="cls-38" d="M296.29,162.45s0,.19.34.17C296.63,162.62,296.05,162.85,296.29,162.45Z"/><path class="cls-39" d="M292.78,162.57s2-2.13,1.61-3.94l.25-.11s2.41,2.1,2,4.1c0,0-.23,0-.25-.16a3.81,3.81,0,0,0-1.65-3.44,6.27,6.27,0,0,1-1.7,3.55S292.87,162.67,292.78,162.57Z"/><path class="cls-40" d="M294.42,158.66s1.06-2,2.21-1.14C296.63,157.52,296.38,159.72,294.42,158.66Z"/><path class="cls-41" d="M294.39,158.63l2.24-1.11S295.33,156.4,294.39,158.63Z"/></g><g id="hanger"><path class="cls-15" d="M333.67,246.36H335a.89.89,0,0,0,.9-.89l0-94.63a.9.9,0,0,1,.9-.9H351a.89.89,0,0,1,.89.9v6.21a.89.89,0,0,0,.9.89h5.77a.89.89,0,0,0,.89-.89h0a.89.89,0,0,0-.89-.9h-2.9a.89.89,0,0,1-.89-.89v-7.17a.9.9,0,0,0-.9-.9H333.51a.9.9,0,0,0-.9.9l.16,97.38A.9.9,0,0,0,333.67,246.36Z"/><path class="cls-9" d="M332,246.53h1.33a.9.9,0,0,0,.9-.9l-.07-93a.89.89,0,0,1,.9-.89h14.21a.89.89,0,0,1,.89.89v6.21a.9.9,0,0,0,.9.9h5.77a.9.9,0,0,0,.89-.9h0a.89.89,0,0,0-.89-.9h-2.9A.89.89,0,0,1,353,157v-7.17a.89.89,0,0,0-.9-.89H331.76a.89.89,0,0,0-.9.89l.19,95.76A.9.9,0,0,0,332,246.53Z"/></g><g id="bananas"><path class="cls-42" d="M364.35,180.6l0-2.26a24.79,24.79,0,0,0-4.64-3.61c-2.13-1.11-6.2-4.48-5.94-10s-.61-5.86-.61-5.86l1.13-1.58s1.93-.17,2-1.16c0,0-2.55-4.32-4.36-4.82-.33-.09-2.43,2.43-1.75,3a5.42,5.42,0,0,1-2.65,1.79,4.62,4.62,0,0,0-2.12.92s-2.57-.09-4.77,3.08-3.23,8.17-.82,14.52,5.93,9.33,10.35,9.39l.49-1s2.49,1.13,4.1.78c0,0,4.52,2.21,6.91.53l.2-2.77S363.74,181.52,364.35,180.6Z"/><path class="cls-43" d="M356.12,156.4s1.12-.5-1.67-3.11-2.51-1.93-2.51-1.93-.2.74,0,1S356.12,156.4,356.12,156.4Z"/><path class="cls-44" d="M362.42,177.89c.21-.5-7-4.35-8.41-7.59s-1.18-9-1.57-9.17-2.28,5.39.21,9.46S362,178.88,362.42,177.89Z"/><path class="cls-44" d="M359.52,181.26c.6,0-7.39-6.46-8.84-10.29s0-9.77-.42-10-3.3,5.34-1.19,9.92S356.93,181.41,359.52,181.26Z"/><path class="cls-44" d="M353.16,180.37c0,.45-5-2.28-7.46-8.08S344.61,162,347,159.91c.74.24-2.51,7-.32,11.75S353.09,179.52,353.16,180.37Z"/><path class="cls-45" d="M355.55,183.7s-8.77-1.94-11.48-10.62-.78-12.8,3.81-16.15l-.22-.52s-5.65.38-6.48,9.34,6.82,16.33,10,17.65S355.55,183.7,355.55,183.7Z"/><path class="cls-46" d="M350.19,183.85s-7.41-2.67-9.2-10.17-.67-10.74.84-12.12c0,0,1.86-3.4,3.59-4.52,0,0-7.82.1-6.84,12.77C339.45,181,348.31,184.89,350.19,183.85Z"/><path class="cls-47" d="M351.1,154.88l-.72-.64a4.44,4.44,0,0,1-2.7,1.9l.33.8Z"/><path class="cls-43" d="M364.35,180.6a5.47,5.47,0,0,1,0-2.26s.53,0,.5,1.23S364.35,180.6,364.35,180.6Z"/><path class="cls-43" d="M355.75,183.61a5.66,5.66,0,0,1,0-2.26s.53,0,.5,1.23S355.75,183.61,355.75,183.61Z"/><path class="cls-43" d="M361.69,184.36a6.16,6.16,0,0,1,.08-2.73s.69,0,.6,1.46S361.69,184.36,361.69,184.36Z"/><path class="cls-43" d="M350.18,184s.61.11.79-.73l-.3-.26Z"/><polygon class="cls-47" points="352.98 156.66 351.86 158.41 351.59 158.26 352.98 156.66"/><polygon class="cls-47" points="351.89 155.99 350.76 157.83 350.55 157.65 351.89 155.99"/></g><g id="spoon"><path class="cls-48" d="M391.62,224.06v-3.77s-3-2-3.11-4.16.18-7.06,3.11-7.32c3.31-.28,4.14,5.49,4.07,7.44s-2.31,3.79-2.31,3.79l.41,16.53h-2.2Z"/><path class="cls-49" d="M392.09,209.6s-3.12.68-2.92,4.62,2.5,4.94,2.5,4.94c1-.31-1.12-4.09-1.05-4.78C390.94,211.22,394.08,210.41,392.09,209.6Z"/></g><g id="spooncup"><path class="cls-15" d="M384.34,224.37a24.63,24.63,0,0,0,9.5,1.73,42,42,0,0,0,9.5-1.59v21.85h-18.5Z"/><path class="cls-50" d="M395.28,224.15c-.13-2.18.18-7.07,3.11-7.32,3.31-.29,4.14,5.49,4.07,7.44S395.4,226.32,395.28,224.15Z"/><path class="cls-49" d="M398.86,217.61s-3.12.68-2.93,4.63,2.5,4.93,2.5,4.93c1-.31-1.11-4.09-1-4.78C397.71,219.24,400.85,218.42,398.86,217.61Z"/><path class="cls-50" d="M383.53,225.49c-.12-2.18.19-7.06,3.12-7.32,3.31-.29,4.13,5.49,4.07,7.44S383.66,227.67,383.53,225.49Z"/><path class="cls-49" d="M387.12,219s-3.12.68-2.93,4.63,2.5,4.94,2.5,4.94c1-.32-1.11-4.09-1-4.78C386,220.58,389.11,219.77,387.12,219Z"/><path class="cls-50" d="M385.33,227.77c-.12-2.18.19-7.06,3.12-7.32,3.31-.29,4.13,5.49,4.07,7.44S385.46,230,385.33,227.77Z"/><path class="cls-49" d="M388.92,221.23s-3.12.68-2.93,4.63,2.5,4.94,2.5,4.94c1-.32-1.11-4.09-1-4.79C387.77,222.86,390.91,222.05,388.92,221.23Z"/><path class="cls-50" d="M393.25,226.86c-.12-2.18.19-7.07,3.12-7.32,3.31-.29,4.13,5.49,4.07,7.44S393.38,229,393.25,226.86Z"/><path class="cls-49" d="M396.84,220.32s-3.13.68-2.93,4.62,2.5,4.94,2.5,4.94c1-.31-1.11-4.09-1-4.78C395.68,221.94,398.82,221.13,396.84,220.32Z"/><path class="cls-9" d="M383.49,223.93a24,24,0,0,0,9.5,1.77,40.81,40.81,0,0,0,9.5-1.63v22.48H384Z"/><path class="cls-51" d="M384.34,225a23.58,23.58,0,0,0,5.56,1.4v20H385Z"/><path class="cls-15" d="M383.66,231.29a34.49,34.49,0,0,0,8.61,1.72c3.67.05,10.22-1.72,10.22-1.72v10.48a30.81,30.81,0,0,1-9.84,1.79,33.12,33.12,0,0,1-8.75-1.34Z"/><path class="cls-52" d="M384.55,231.52l.35,11s4.12.83,5.33.92l-.33-10.61Z"/><path class="cls-53" d="M385.26,238.64a.6.6,0,0,1-.2-.57.55.55,0,0,1,.11-.29.23.23,0,0,1,.21-.08.21.21,0,0,1,.14.07.12.12,0,0,1,0,.13.37.37,0,0,1,0,.12s0,0,0,0,0,.05,0,.07a.26.26,0,0,0,.12.26,1,1,0,0,0,.44.13.73.73,0,0,0,.48-.06.36.36,0,0,0,.2-.3.33.33,0,0,0-.05-.22.59.59,0,0,0-.18-.17,3.2,3.2,0,0,0-.3-.17,3.8,3.8,0,0,1-.4-.24.75.75,0,0,1-.25-.28.57.57,0,0,1-.06-.41.83.83,0,0,1,.19-.45,1,1,0,0,1,.41-.3,1.55,1.55,0,0,1,.59-.11,1,1,0,0,1,.44.08.62.62,0,0,1,.3.25.61.61,0,0,1,.08.41.92.92,0,0,1-.1.36.23.23,0,0,1-.35.05.19.19,0,0,1,0-.15s0-.09,0-.13a.7.7,0,0,0,0-.14.24.24,0,0,0-.11-.24.59.59,0,0,0-.34-.09.83.83,0,0,0-.45.1.43.43,0,0,0-.2.32.34.34,0,0,0,0,.23.77.77,0,0,0,.18.18l.32.17.39.24a.78.78,0,0,1,.24.27.67.67,0,0,1,.08.41.79.79,0,0,1-.39.65,1.27,1.27,0,0,1-.87.13A1.4,1.4,0,0,1,385.26,238.64Z"/><path class="cls-53" d="M390.11,237.49a1.2,1.2,0,0,1-.46.46,1.59,1.59,0,0,1-.71.18c-.07.31-.14.63-.22,1s-.26.53-.52.5a.7.7,0,0,1-.39-.18,1.06,1.06,0,0,1-.25-.46,2,2,0,0,1,0-.71,3.49,3.49,0,0,1,.35-1.31,2.1,2.1,0,0,1,.66-.81,1.39,1.39,0,0,1,.84-.28.86.86,0,0,1,.52.14.75.75,0,0,1,.32.36,1.14,1.14,0,0,1,.09.53A1.26,1.26,0,0,1,390.11,237.49Zm-.32-.61a.64.64,0,0,0-.12-.44.57.57,0,0,0-.45-.17.88.88,0,0,0-.62.25,1.82,1.82,0,0,0-.46.7,3.33,3.33,0,0,0-.23,1,1.54,1.54,0,0,0,0,.43.89.89,0,0,0,.09.3q.06.12.12.12c.06,0,.11-.08.16-.26s.12-.49.17-.74l-.11,0a.22.22,0,0,1-.13-.08.22.22,0,0,1,0-.14.22.22,0,0,1,.05-.14.17.17,0,0,1,.13,0h.05l.12,0c0-.2.11-.47.19-.82a.32.32,0,0,1,.11-.19.27.27,0,0,1,.18-.05.21.21,0,0,1,.15.05.2.2,0,0,1,0,.16s0,.08,0,.11c-.06.25-.11.51-.17.77A.79.79,0,0,0,389.79,236.88Z"/><path class="cls-53" d="M390.9,239.19a1.13,1.13,0,0,1-.38-.5,1.72,1.72,0,0,1-.11-.77,2.87,2.87,0,0,1,.23-1.1,1.92,1.92,0,0,1,.54-.74,1.16,1.16,0,0,1,.72-.26.9.9,0,0,1,.53.17,1.12,1.12,0,0,1,.38.49,2.05,2.05,0,0,1,.14.78,3,3,0,0,1-.2,1.13,1.68,1.68,0,0,1-.54.74,1.21,1.21,0,0,1-.75.25A1,1,0,0,1,390.9,239.19Zm1.09-.49a1.2,1.2,0,0,0,.33-.56,2.55,2.55,0,0,0,.12-.81,1.37,1.37,0,0,0-.16-.76.49.49,0,0,0-.43-.25.61.61,0,0,0-.46.19,1.28,1.28,0,0,0-.33.55,2.72,2.72,0,0,0-.14.8,1.3,1.3,0,0,0,.14.76.52.52,0,0,0,.45.26A.63.63,0,0,0,392,238.7Z"/><path class="cls-53" d="M393.78,239.23a1.1,1.1,0,0,1-.4-.49,1.81,1.81,0,0,1-.15-.78,3,3,0,0,1,.19-1.12,1.68,1.68,0,0,1,.5-.75,1.07,1.07,0,0,1,.71-.27.94.94,0,0,1,.54.17,1.29,1.29,0,0,1,.4.48,2,2,0,0,1,.17.77,2.82,2.82,0,0,1-.15,1.11,1.66,1.66,0,0,1-.5.76,1.16,1.16,0,0,1-.74.28A1,1,0,0,1,393.78,239.23Zm1.07-.54a1.3,1.3,0,0,0,.31-.57,2.9,2.9,0,0,0,.08-.8,1.37,1.37,0,0,0-.19-.75.51.51,0,0,0-.45-.25.59.59,0,0,0-.45.2,1.44,1.44,0,0,0-.31.55,3,3,0,0,0-.1.82,1.33,1.33,0,0,0,.18.76.53.53,0,0,0,.46.25A.7.7,0,0,0,394.85,238.69Z"/><path class="cls-53" d="M396.52,239.23a.41.41,0,0,1-.07-.25c0-.08,0-.19,0-.31s0-.3,0-.54c0,0,0-.17,0-.4s0-.48,0-.73,0-.38,0-.49,0-.18-.12-.18a.31.31,0,0,0-.21.11,1.38,1.38,0,0,0-.25.35.14.14,0,0,1-.11.08.09.09,0,0,1-.08-.06.17.17,0,0,1,0-.12.33.33,0,0,1,0-.14.93.93,0,0,1,.07-.15,1.29,1.29,0,0,1,.35-.43.63.63,0,0,1,.41-.15.32.32,0,0,1,.28.14.7.7,0,0,1,.12.4,5.24,5.24,0,0,1,0,.67,2.24,2.24,0,0,1,.37-.9.7.7,0,0,1,.58-.31.52.52,0,0,1,.43.18.8.8,0,0,1,.19.48,1.94,1.94,0,0,1,0,.41c0,.37-.07.75-.11,1.12,0,.13,0,.25,0,.34a.38.38,0,0,0,.09.24.23.23,0,0,0,.2.06.34.34,0,0,0,.22-.1,2.28,2.28,0,0,0,.23-.3.18.18,0,0,1,.09-.07.12.12,0,0,1,.08,0,.33.33,0,0,1,0,.13.39.39,0,0,1,0,.24,1.26,1.26,0,0,1-.32.38.67.67,0,0,1-.37.15.56.56,0,0,1-.48-.15.71.71,0,0,1-.21-.52,2.44,2.44,0,0,1,0-.28c0-.11,0-.24,0-.4s.05-.48.08-.72a.78.78,0,0,1,0-.13c0-.06,0-.11,0-.17v-.16a.33.33,0,0,0-.08-.2.25.25,0,0,0-.18-.07.5.5,0,0,0-.38.26,2.55,2.55,0,0,0-.33.84,8.65,8.65,0,0,0-.18,1.48.75.75,0,0,1-.06.29.21.21,0,0,1-.18.1A.25.25,0,0,1,396.52,239.23Z"/><path class="cls-53" d="M399.4,238.86a.63.63,0,0,1-.34-.56.52.52,0,0,1,0-.32.22.22,0,0,1,.18-.13.25.25,0,0,1,.16,0,.26.26,0,0,1,.08.13v.27a.27.27,0,0,0,.19.23.8.8,0,0,0,.45,0,.77.77,0,0,0,.45-.16.32.32,0,0,0,.13-.32.35.35,0,0,0-.1-.21.72.72,0,0,0-.21-.12,2.14,2.14,0,0,0-.34-.12,3.16,3.16,0,0,1-.46-.18,1,1,0,0,1-.31-.26.75.75,0,0,1-.16-.43.88.88,0,0,1,.08-.49.75.75,0,0,1,.33-.33,1.36,1.36,0,0,1,.56-.11,1.39,1.39,0,0,1,.46.07,1,1,0,0,1,.36.23.68.68,0,0,1,.18.37.66.66,0,0,1,0,.33.17.17,0,0,1-.18.12.21.21,0,0,1-.23-.17c0-.05,0-.09,0-.13v-.13a.31.31,0,0,0-.17-.23.8.8,0,0,0-.36-.07.68.68,0,0,0-.42.13.33.33,0,0,0-.12.33.38.38,0,0,0,.11.24.8.8,0,0,0,.21.15l.36.14.44.17a.81.81,0,0,1,.3.22.61.61,0,0,1,.17.35.75.75,0,0,1-.22.68,1.44,1.44,0,0,1-.82.34A1.22,1.22,0,0,1,399.4,238.86Z"/></g></g></g></g></svg>