<svg xmlns="http://www.w3.org/2000/svg" viewBox="0 0 114.82 114.82"><defs><style>.cls-1{fill:#edaede;}.cls-2{fill:#f9f9f7;}</style></defs><title>step3</title><g id="Layer_2" data-name="Layer 2"><g id="Layer_9" data-name="Layer 9"><g id="step3"><path class="cls-1" d="M57.41,114.82a57.41,57.41,0,1,1,57.41-57.41A57.47,57.47,0,0,1,57.41,114.82Z"/><circle class="cls-2" cx="57.41" cy="57.41" r="47.41"/><path class="cls-1" d="M55.57,61.52H46.32A23.22,23.22,0,0,1,47,55.85a12.23,12.23,0,0,1,2-4,10.52,10.52,0,0,1,3.79-3.12,10.93,10.93,0,0,1,5.06-1.19,10.4,10.4,0,0,1,8.05,3.5A12.73,12.73,0,0,1,69.07,60a11.57,11.57,0,0,1-4.85,9.85q5.7,3,5.7,10.52a13.93,13.93,0,0,1-1.41,6,8.9,8.9,0,0,1-4.1,4.34A13.92,13.92,0,0,1,58.11,92a12.54,12.54,0,0,1-8.87-3.19,12.12,12.12,0,0,1-3.71-8.75h9.09Q54.68,84,57.73,84t3-5.32a5.2,5.2,0,0,0-.87-3.44,4.05,4.05,0,0,0-3.09-1H53.83V65.47H57a3.56,3.56,0,0,0,2.9-1.06,5.46,5.46,0,0,0,.87-3.47c0-3.46-1-5.19-2.92-5.19A1.78,1.78,0,0,0,56,56.83a10.72,10.72,0,0,0-.46,3.8Z"/><path class="cls-1" d="M39.24,39.36V35.65a6.11,6.11,0,0,0,2.88,1,1.5,1.5,0,0,0,1.08-.38,1.31,1.31,0,0,0,.39-1,1.47,1.47,0,0,0-.31-.9,6,6,0,0,0-1.1-1,12.45,12.45,0,0,1-2.71-2.67A4.77,4.77,0,0,1,38.63,28a4.46,4.46,0,0,1,4.66-4.67,7.46,7.46,0,0,1,3,.66v3.57a5.81,5.81,0,0,0-2.61-.88,1.55,1.55,0,0,0-1.05.32,1.12,1.12,0,0,0-.39.9c0,.67.6,1.42,1.8,2.26a11,11,0,0,1,2.18,2.08,4.79,4.79,0,0,1,1.1,3.11,4.49,4.49,0,0,1-1.44,3.42,5.18,5.18,0,0,1-3.67,1.35A6.94,6.94,0,0,1,39.24,39.36Z"/><path class="cls-1" d="M50,25.75h3.47v2.93h1.35v2.89H53.44v8.08H50V31.54H48.67V28.68H50Z"/><path class="cls-1" d="M61.73,36.3h2.92c-.55,2.47-2,3.7-4.17,3.7a3.94,3.94,0,0,1-3.31-1.59A7,7,0,0,1,56,34a6.65,6.65,0,0,1,1.22-4.17A3.89,3.89,0,0,1,60.4,28.3a4.11,4.11,0,0,1,2.34.75,4.41,4.41,0,0,1,1.64,2A12,12,0,0,1,65,35H59.16c.05,1.63.51,2.45,1.36,2.45a1.14,1.14,0,0,0,.79-.32A1.41,1.41,0,0,0,61.73,36.3Zm-2.52-3.17h2.52a4.14,4.14,0,0,0-.32-1.71,1,1,0,0,0-.91-.56,1,1,0,0,0-1,.54A3.72,3.72,0,0,0,59.21,33.13Z"/><path class="cls-1" d="M70.44,28.68v1.39h.06a3.23,3.23,0,0,1,2.61-1.7A2.84,2.84,0,0,1,75.62,30a8.27,8.27,0,0,1,.95,4.29,8,8,0,0,1-1,4.2,2.86,2.86,0,0,1-2.49,1.6,3,3,0,0,1-2.61-1.84h-.06v6H67V28.68Zm2.67,5.45c0-1.81-.46-2.71-1.37-2.71s-1.3.91-1.3,2.73S70.87,37,71.74,37,73.11,36,73.11,34.13Z"/></g></g></g></svg>