<svg xmlns="http://www.w3.org/2000/svg" viewBox="0 0 101.78 107.02"><defs><style>.cls-1{fill:#fcf386;}.cls-2{fill:#eade71;}</style></defs><title>sun</title><g id="Layer_2" data-name="Layer 2"><g id="Sun"><g id="sun-2" data-name="sun"><g id="Sun-3" data-name="Sun"><circle class="cls-1" cx="50.89" cy="53.51" r="25.74"/><polygon class="cls-1" points="50.89 0 54.25 11.89 57.6 23.77 50.89 23.77 44.18 23.77 47.53 11.89 50.89 0"/><polygon class="cls-1" points="19.44 10.22 29.14 17.86 38.84 25.5 33.41 29.45 27.98 33.4 23.71 21.81 19.44 10.22"/><polygon class="cls-1" points="0 36.97 12.34 37.45 24.68 37.93 22.61 44.32 20.53 50.7 10.27 43.84 0 36.97"/><polygon class="cls-1" points="0 70.04 10.27 63.18 20.53 56.31 22.61 62.7 24.68 69.08 12.34 69.56 0 70.04"/><polygon class="cls-1" points="19.44 96.8 23.71 85.21 27.98 73.62 33.41 77.56 38.84 81.51 29.14 89.15 19.44 96.8"/><polygon class="cls-1" points="50.89 107.02 47.53 95.13 44.18 83.24 50.89 83.24 57.6 83.24 54.25 95.13 50.89 107.02"/><polygon class="cls-1" points="82.34 96.8 72.64 89.15 62.94 81.51 68.37 77.56 73.8 73.62 78.07 85.21 82.34 96.8"/><polygon class="cls-1" points="101.78 70.04 89.44 69.56 77.1 69.08 79.17 62.7 81.25 56.31 91.51 63.18 101.78 70.04"/><polygon class="cls-1" points="101.78 36.97 91.51 43.84 81.25 50.7 79.17 44.32 77.1 37.93 89.44 37.45 101.78 36.97"/><polygon class="cls-1" points="82.34 10.22 78.07 21.81 73.8 33.4 68.37 29.45 62.94 25.5 72.64 17.86 82.34 10.22"/></g><path class="cls-2" d="M35.45,58.23a25.67,25.67,0,0,1,31-25.33,25.41,25.41,0,0,0-15.91-5.58,25.9,25.9,0,0,0-5.3,51.2A25.9,25.9,0,0,1,35.45,58.23Z"/><polyline class="cls-2" points="50.89 0 50.89 23.77 44.18 23.77 50.89 0"/><polyline class="cls-2" points="19.44 10.22 33.41 29.45 27.98 33.4 19.44 10.22"/><polyline class="cls-2" points="0 36.97 22.61 44.32 20.53 50.7 0 36.97"/><polyline class="cls-2" points="0 70.04 22.61 62.7 24.68 69.08 0 70.04"/><polyline class="cls-2" points="19.44 96.8 33.41 77.56 38.84 81.51 19.44 96.8"/><polyline class="cls-2" points="50.89 107.02 50.89 83.24 57.6 83.24 50.89 107.02"/><polyline class="cls-2" points="82.34 96.8 68.37 77.56 73.8 73.62 82.34 96.8"/><polyline class="cls-2" points="101.78 70.04 79.17 62.7 81.25 56.31 101.78 70.04"/><polyline class="cls-2" points="101.78 36.97 79.17 44.32 77.1 37.93 101.78 36.97"/><polyline class="cls-2" points="82.34 10.22 68.37 29.45 62.94 25.5 82.34 10.22"/></g></g></g></svg>