<svg xmlns="http://www.w3.org/2000/svg" viewBox="0 0 215.4 107.43"><defs><style>.cls-1{fill:#c180b8;}.cls-2{fill:#fff;}.cls-3{fill:#e8eced;}.cls-4{fill:#aeedf4;}.cls-5{fill:#f7e597;}.cls-6{fill:#edaede;}</style></defs><title>toppingmachine</title><g id="Layer_2" data-name="Layer 2"><g id="Topping_machine" data-name="Topping machine"><g id="toppingmachine"><g id="topping_machine-2" data-name="topping machine"><path class="cls-1" d="M2.91,3.61l-.2,100.88a2.77,2.77,0,0,0,2.77,2.77h6.64a2.78,2.78,0,0,0,2.78-2.77l.2-61.25a2.78,2.78,0,0,1,2.77-2.78H199.69a2.78,2.78,0,0,1,2.78,2.78l-.38,61.41a2.78,2.78,0,0,0,2.77,2.78h7.39a2.78,2.78,0,0,0,2.77-2.78L215.4,2.77A2.77,2.77,0,0,0,212.61,0L5.68.83A2.78,2.78,0,0,0,2.91,3.61Z"/><path class="cls-2" d="M0,6.64v97.85a2.77,2.77,0,0,0,2.77,2.77H9.41a2.78,2.78,0,0,0,2.78-2.77V46.27A2.77,2.77,0,0,1,15,43.5H196.78a2.77,2.77,0,0,1,2.77,2.77v58.38a2.79,2.79,0,0,0,2.78,2.78h7.38a2.79,2.79,0,0,0,2.78-2.78V5.81A2.78,2.78,0,0,0,209.7,3L2.76,3.87A2.77,2.77,0,0,0,0,6.64Z"/><rect class="cls-2" x="24.26" y="43.5" width="4.4" height="5.22"/><rect class="cls-3" x="24.58" y="43.82" width="1.16" height="4.42"/><rect class="cls-2" x="100.69" y="43.43" width="4.4" height="5.22"/><rect class="cls-3" x="100.99" y="43.82" width="1.16" height="4.42"/><rect class="cls-2" x="181.89" y="43.5" width="4.4" height="5.22"/><rect class="cls-3" x="182.2" y="43.82" width="1.16" height="4.42"/></g><rect class="cls-4" x="45.74" y="17.28" width="3.25" height="11.58"/><rect class="cls-5" x="49.57" y="17.28" width="3.25" height="11.58"/><rect class="cls-6" x="53.43" y="17.28" width="3.25" height="11.58"/><rect class="cls-4" x="57.32" y="17.28" width="3.25" height="11.58"/><rect class="cls-5" x="61.15" y="17.28" width="3.25" height="11.58"/><rect class="cls-6" x="65.02" y="17.28" width="3.25" height="11.58"/><rect class="cls-4" x="69.07" y="17.28" width="3.25" height="11.58"/><rect class="cls-5" x="72.9" y="17.28" width="3.25" height="11.58"/><rect class="cls-6" x="76.77" y="17.28" width="3.25" height="11.58"/><rect class="cls-4" x="127.24" y="17.08" width="3.25" height="11.58"/><rect class="cls-5" x="131.07" y="17.08" width="3.25" height="11.58"/><rect class="cls-6" x="134.93" y="17.08" width="3.25" height="11.58"/><rect class="cls-4" x="138.82" y="17.08" width="3.25" height="11.58"/><rect class="cls-5" x="142.65" y="17.08" width="3.25" height="11.58"/><rect class="cls-6" x="146.52" y="17.08" width="3.25" height="11.58"/><rect class="cls-4" x="150.57" y="17.08" width="3.25" height="11.58"/><rect class="cls-5" x="154.4" y="17.08" width="3.25" height="11.58"/><rect class="cls-6" x="158.27" y="17.08" width="3.25" height="11.58"/></g></g></g></svg>